<?xml version="1.0" encoding="UTF-8" standalone="no"?>
<svg
   xmlns:dc="http://purl.org/dc/elements/1.1/"
   xmlns:cc="http://creativecommons.org/ns#"
   xmlns:rdf="http://www.w3.org/1999/02/22-rdf-syntax-ns#"
   xmlns:svg="http://www.w3.org/2000/svg"
   xmlns="http://www.w3.org/2000/svg"
   xmlns:sodipodi="http://sodipodi.sourceforge.net/DTD/sodipodi-0.dtd"
   xmlns:inkscape="http://www.inkscape.org/namespaces/inkscape"
   version="1.1"
   viewBox="0.0 0.0 800.0 450.0"
   fill="none"
   stroke="none"
   stroke-linecap="square"
   stroke-miterlimit="10"
   id="svg3138"
   inkscape:version="0.48.2 r9819"
   width="100%"
   height="100%"
   sodipodi:docname="smtpd_bouncinga.svg">
  <metadata
     id="metadata3289">
    <rdf:RDF>
      <cc:Work
         rdf:about="">
        <dc:format>image/svg+xml</dc:format>
        <dc:type
           rdf:resource="http://purl.org/dc/dcmitype/StillImage" />
        <dc:title></dc:title>
      </cc:Work>
    </rdf:RDF>
  </metadata>
  <defs
     id="defs3287" />
  <sodipodi:namedview
     pagecolor="#ffffff"
     bordercolor="#666666"
     borderopacity="1"
     objecttolerance="10"
     gridtolerance="10"
     guidetolerance="10"
     inkscape:pageopacity="0"
     inkscape:pageshadow="2"
     inkscape:window-width="1332"
     inkscape:window-height="813"
     id="namedview3285"
     showgrid="false"
     inkscape:zoom="1.5"
     inkscape:cx="444.85032"
     inkscape:cy="236.68241"
     inkscape:window-x="-13"
     inkscape:window-y="43"
     inkscape:window-maximized="0"
     inkscape:current-layer="svg3138" />
  <clipPath
     id="p.0">
    <path
       d="m0 0l800.0 0l0 450.0l-800.0 0l0 -450.0z"
       clip-rule="nonzero"
       id="path3141" />
  </clipPath>
  <path
     style="fill:#000000;fill-opacity:0;fill-rule:nonzero"
     inkscape:connector-curvature="0"
     id="path3145"
     d="m 0,0 800.1627,0 0,450.02362 -800.1627,0 z" />
  <path
     style="fill:#000000;fill-opacity:0;fill-rule:nonzero"
     inkscape:connector-curvature="0"
     id="path3147"
     d="m 417.86615,84.76609 0,0 c 0,-27.614788 22.3862,-50.001 50.00098,-50.001 l 199.99799,0 0,0 c 13.2611,0 25.97906,5.267948 35.35608,14.644955 9.37701,9.377007 14.64496,22.09496 14.64496,35.356045 l 0,295.872 c 0,27.61478 -22.38623,50.00101 -50.00104,50.00101 l -199.99799,0 c -27.61478,0 -50.00098,-22.38623 -50.00098,-50.00101 z" />
  <path
     style="fill:#000000;fill-opacity:0;fill-rule:nonzero"
     inkscape:connector-curvature="0"
     id="path3151"
     d="m 58.866142,84.76609 0,0 c 0,-27.614788 22.386208,-50.001 50.000998,-50.001 l 199.998,0 0,0 c 13.26108,0 25.97904,5.267948 35.35605,14.644955 9.37699,9.377007 14.64496,22.09496 14.64496,35.356045 l 0,295.872 c 0,27.61478 -22.38623,50.00101 -50.00101,50.00101 l -199.998,0 c -27.614789,0 -50.000997,-22.38623 -50.000997,-50.00101 z" />
  <path
     style="stroke:#000000;stroke-width:2;stroke-linecap:butt;stroke-linejoin:round"
     inkscape:connector-curvature="0"
     id="path3153"
     d="m 58.866142,84.76609 0,0 c 0,-27.614788 22.386208,-50.001 50.000998,-50.001 l 199.998,0 0,0 c 13.26108,0 25.97904,5.267948 35.35605,14.644955 9.37699,9.377007 14.64496,22.09496 14.64496,35.356045 l 0,295.872 c 0,27.61478 -22.38623,50.00101 -50.00101,50.00101 l -199.998,0 c -27.614789,0 -50.000997,-22.38623 -50.000997,-50.00101 z" />
  <path
     style="fill:#cfe2f3;fill-rule:nonzero"
     inkscape:connector-curvature="0"
     id="path3155"
     d="m 94.50131,144.855 0,0 c 0,-2.20877 1.790573,-3.99936 3.999359,-3.99936 l 88.001281,0 c 1.0607,0 2.07794,0.42137 2.82797,1.17139 0.75003,0.75003 1.17139,1.76729 1.17139,2.82797 l 0,56.00128 c 0,2.20879 -1.79057,3.99936 -3.99936,3.99936 l -88.001281,0 c -2.208786,0 -3.999359,-1.79057 -3.999359,-3.99936 z" />
  <path
     style="stroke:#000000;stroke-width:2;stroke-linecap:butt;stroke-linejoin:round"
     inkscape:connector-curvature="0"
     id="path3157"
     d="m 94.50131,144.855 0,0 c 0,-2.20877 1.790573,-3.99936 3.999359,-3.99936 l 88.001281,0 c 1.0607,0 2.07794,0.42137 2.82797,1.17139 0.75003,0.75003 1.17139,1.76729 1.17139,2.82797 l 0,56.00128 c 0,2.20879 -1.79057,3.99936 -3.99936,3.99936 l -88.001281,0 c -2.208786,0 -3.999359,-1.79057 -3.999359,-3.99936 z" />
  <path
     style="fill:#000000;fill-opacity:0;fill-rule:nonzero"
     inkscape:connector-curvature="0"
     id="path3159"
     d="m 94.75197,157.35695 48.49869,26.21851 47,-26.21851" />
  <path
     style="stroke:#000000;stroke-width:2;stroke-linecap:butt;stroke-linejoin:round"
     inkscape:connector-curvature="0"
     id="path3161"
     d="m 94.75197,157.35695 48.49869,26.21851 47,-26.21851" />
  <path
     style="fill:#cfe2f3;fill-rule:nonzero"
     inkscape:connector-curvature="0"
     id="path3163"
     d="m 225.50131,144.855 0,0 c 0,-2.20877 1.79057,-3.99936 3.99936,-3.99936 l 88.00128,0 c 1.0607,0 2.07794,0.42137 2.82797,1.17139 0.75003,0.75003 1.17139,1.76729 1.17139,2.82797 l 0,56.00128 c 0,2.20879 -1.79059,3.99936 -3.99936,3.99936 l -88.00128,0 c -2.20879,0 -3.99936,-1.79057 -3.99936,-3.99936 z" />
  <path
     style="stroke:#000000;stroke-width:2;stroke-linecap:butt;stroke-linejoin:round"
     inkscape:connector-curvature="0"
     id="path3165"
     d="m 225.50131,144.855 0,0 c 0,-2.20877 1.79057,-3.99936 3.99936,-3.99936 l 88.00128,0 c 1.0607,0 2.07794,0.42137 2.82797,1.17139 0.75003,0.75003 1.17139,1.76729 1.17139,2.82797 l 0,56.00128 c 0,2.20879 -1.79059,3.99936 -3.99936,3.99936 l -88.00128,0 c -2.20879,0 -3.99936,-1.79057 -3.99936,-3.99936 z" />
  <path
     style="fill:#000000;fill-opacity:0;fill-rule:nonzero"
     inkscape:connector-curvature="0"
     id="path3167"
     d="m 225.75197,157.35695 48.4987,26.21851 47,-26.21851" />
  <path
     style="stroke:#000000;stroke-width:2;stroke-linecap:butt;stroke-linejoin:round"
     inkscape:connector-curvature="0"
     id="path3169"
     d="m 225.75197,157.35695 48.4987,26.21851 47,-26.21851" />
  <path
     style="fill:#000000;fill-opacity:0;fill-rule:nonzero"
     inkscape:connector-curvature="0"
     id="path3211"
     d="m 136.86613,28.786089 144.00002,0 0,48 -144.00002,0 z" />
  <path
     style="fill:#000000;fill-rule:nonzero"
     inkscape:connector-curvature="0"
     id="path3213"
     d="m 163.45274,58.950153 0,-9.859375 1.5,0 0,1.390625 q 0.45312,-0.71875 1.21875,-1.15625 0.78125,-0.453125 1.76562,-0.453125 1.09375,0 1.79688,0.453125 0.70312,0.453125 0.98437,1.28125 1.17188,-1.734375 3.04688,-1.734375 1.46875,0 2.25,0.8125 0.79687,0.8125 0.79687,2.5 l 0,6.765625 -1.67187,0 0,-6.203125 q 0,-1 -0.15625,-1.4375 -0.15625,-0.453125 -0.59375,-0.71875 -0.42188,-0.265625 -1,-0.265625 -1.03125,0 -1.71875,0.6875 -0.6875,0.6875 -0.6875,2.21875 l 0,5.71875 -1.67188,0 0,-6.40625 q 0,-1.109375 -0.40625,-1.65625 -0.40625,-0.5625 -1.34375,-0.5625 -0.70312,0 -1.3125,0.375 -0.59375,0.359375 -0.85937,1.078125 -0.26563,0.71875 -0.26563,2.0625 l 0,5.109375 -1.67187,0 z m 22.2908,-3.171875 1.71875,0.21875 q -0.40625,1.5 -1.51562,2.34375 -1.09375,0.828125 -2.8125,0.828125 -2.15625,0 -3.42188,-1.328125 -1.26562,-1.328125 -1.26562,-3.734375 0,-2.484375 1.26562,-3.859375 1.28125,-1.375 3.32813,-1.375 1.98437,0 3.23437,1.34375 1.25,1.34375 1.25,3.796875 0,0.140625 -0.0156,0.4375 l -7.34375,0 q 0.0937,1.625 0.92187,2.484375 0.82813,0.859375 2.0625,0.859375 0.90625,0 1.54688,-0.46875 0.65625,-0.484375 1.04687,-1.546875 z m -5.48437,-2.703125 5.5,0 q -0.10938,-1.234375 -0.625,-1.859375 -0.79688,-0.96875 -2.07813,-0.96875 -1.14062,0 -1.9375,0.78125 -0.78125,0.765625 -0.85937,2.046875 z m 8.43821,2.9375 1.65625,-0.265625 q 0.14063,1 0.76563,1.53125 0.64062,0.515625 1.78125,0.515625 1.15625,0 1.70312,-0.46875 0.5625,-0.46875 0.5625,-1.09375 0,-0.5625 -0.48437,-0.890625 -0.34375,-0.21875 -1.70313,-0.5625 -1.84375,-0.46875 -2.5625,-0.796875 -0.70312,-0.34375 -1.07812,-0.9375 -0.35938,-0.609375 -0.35938,-1.328125 0,-0.65625 0.29688,-1.21875 0.3125,-0.5625 0.82812,-0.9375 0.39063,-0.28125 1.0625,-0.484375 0.67188,-0.203125 1.4375,-0.203125 1.17188,0 2.04688,0.34375 0.875,0.328125 1.28125,0.90625 0.42187,0.5625 0.57812,1.515625 l -1.625,0.21875 q -0.10937,-0.75 -0.65625,-1.171875 -0.53125,-0.4375 -1.5,-0.4375 -1.15625,0 -1.64062,0.390625 -0.48438,0.375 -0.48438,0.875 0,0.328125 0.20313,0.59375 0.20312,0.265625 0.64062,0.4375 0.25,0.09375 1.46875,0.4375 1.76563,0.46875 2.46875,0.765625 0.70313,0.296875 1.09375,0.875 0.40625,0.578125 0.40625,1.4375 0,0.828125 -0.48437,1.578125 -0.48438,0.734375 -1.40625,1.140625 -0.92188,0.390625 -2.07813,0.390625 -1.92187,0 -2.9375,-0.796875 -1,-0.796875 -1.28125,-2.359375 z m 9.32813,0 1.65625,-0.265625 q 0.14062,1 0.76562,1.53125 0.64063,0.515625 1.78125,0.515625 1.15625,0 1.70313,-0.46875 0.5625,-0.46875 0.5625,-1.09375 0,-0.5625 -0.48438,-0.890625 -0.34375,-0.21875 -1.70312,-0.5625 -1.84375,-0.46875 -2.5625,-0.796875 -0.70313,-0.34375 -1.07813,-0.9375 -0.35937,-0.609375 -0.35937,-1.328125 0,-0.65625 0.29687,-1.21875 0.3125,-0.5625 0.82813,-0.9375 0.39062,-0.28125 1.0625,-0.484375 0.67187,-0.203125 1.4375,-0.203125 1.17187,0 2.04687,0.34375 0.875,0.328125 1.28125,0.90625 0.42188,0.5625 0.57813,1.515625 l -1.625,0.21875 q -0.10938,-0.75 -0.65625,-1.171875 -0.53125,-0.4375 -1.5,-0.4375 -1.15625,0 -1.64063,0.390625 -0.48437,0.375 -0.48437,0.875 0,0.328125 0.20312,0.59375 0.20313,0.265625 0.64063,0.4375 0.25,0.09375 1.46875,0.4375 1.76562,0.46875 2.46875,0.765625 0.70312,0.296875 1.09375,0.875 0.40625,0.578125 0.40625,1.4375 0,0.828125 -0.48438,1.578125 -0.48437,0.734375 -1.40625,1.140625 -0.92187,0.390625 -2.07812,0.390625 -1.92188,0 -2.9375,-0.796875 -1,-0.796875 -1.28125,-2.359375 z m 16.4375,1.71875 q -0.9375,0.796875 -1.79688,1.125 -0.85937,0.3125 -1.84375,0.3125 -1.60937,0 -2.48437,-0.78125 -0.875,-0.796875 -0.875,-2.03125 0,-0.734375 0.32812,-1.328125 0.32813,-0.59375 0.85938,-0.953125 0.53125,-0.359375 1.20312,-0.546875 0.5,-0.140625 1.48438,-0.25 2.03125,-0.25 2.98437,-0.578125 0,-0.34375 0,-0.4375 0,-1.015625 -0.46875,-1.4375 -0.64062,-0.5625 -1.90625,-0.5625 -1.17187,0 -1.73437,0.40625 -0.5625,0.40625 -0.82813,1.46875 l -1.64062,-0.234375 q 0.23437,-1.046875 0.73437,-1.6875 0.51563,-0.640625 1.46875,-0.984375 0.96875,-0.359375 2.25,-0.359375 1.26563,0 2.04688,0.296875 0.78125,0.296875 1.15625,0.75 0.375,0.453125 0.51562,1.140625 0.0937,0.421875 0.0937,1.53125 l 0,2.234375 q 0,2.328125 0.0937,2.953125 0.10938,0.609375 0.4375,1.171875 l -1.75,0 q -0.26562,-0.515625 -0.32812,-1.21875 z m -0.14063,-3.71875 q -0.90625,0.359375 -2.73437,0.625 -1.03125,0.140625 -1.45313,0.328125 -0.42187,0.1875 -0.65625,0.546875 -0.23437,0.359375 -0.23437,0.796875 0,0.671875 0.5,1.125 0.51562,0.4375 1.48437,0.4375 0.96875,0 1.71875,-0.421875 0.75,-0.4375 1.10938,-1.15625 0.26562,-0.578125 0.26562,-1.671875 l 0,-0.609375 z m 3.78197,5.75 1.60938,0.25 q 0.10937,0.75 0.57812,1.09375 0.60938,0.453125 1.6875,0.453125 1.17188,0 1.79688,-0.46875 0.625,-0.453125 0.85937,-1.28125 0.125,-0.515625 0.10938,-2.15625 -1.09375,1.296875 -2.71875,1.296875 -2.03125,0 -3.15625,-1.46875 -1.10938,-1.46875 -1.10938,-3.515625 0,-1.40625 0.51563,-2.59375 0.51562,-1.203125 1.48437,-1.84375 0.96875,-0.65625 2.26563,-0.65625 1.75,0 2.875,1.40625 l 0,-1.1875 1.54687,0 0,8.515625 q 0,2.3125 -0.46875,3.265625 -0.46875,0.96875 -1.48437,1.515625 -1.01563,0.5625 -2.5,0.5625 -1.76563,0 -2.85938,-0.796875 -1.07812,-0.796875 -1.03125,-2.390625 z m 1.375,-5.921875 q 0,1.953125 0.76563,2.84375 0.78125,0.890625 1.9375,0.890625 1.14062,0 1.92187,-0.890625 0.78125,-0.890625 0.78125,-2.78125 0,-1.8125 -0.8125,-2.71875 -0.79687,-0.921875 -1.92187,-0.921875 -1.10938,0 -1.89063,0.90625 -0.78125,0.890625 -0.78125,2.671875 z m 16.04759,1.9375 1.71875,0.21875 q -0.40625,1.5 -1.51562,2.34375 -1.09375,0.828125 -2.8125,0.828125 -2.15625,0 -3.42188,-1.328125 -1.26562,-1.328125 -1.26562,-3.734375 0,-2.484375 1.26562,-3.859375 1.28125,-1.375 3.32813,-1.375 1.98437,0 3.23437,1.34375 1.25,1.34375 1.25,3.796875 0,0.140625 -0.0156,0.4375 l -7.34375,0 q 0.0937,1.625 0.92187,2.484375 0.82813,0.859375 2.0625,0.859375 0.90625,0 1.54688,-0.46875 0.65625,-0.484375 1.04687,-1.546875 z m -5.48437,-2.703125 5.5,0 q -0.10938,-1.234375 -0.625,-1.859375 -0.79688,-0.96875 -2.07813,-0.96875 -1.14062,0 -1.9375,0.78125 -0.78125,0.765625 -0.85937,2.046875 z m 13.01214,5.875 5.23438,-13.59375 1.9375,0 5.5625,13.59375 -2.04688,0 -1.59375,-4.125 -5.6875,0 -1.48437,4.125 -1.92188,0 z m 3.92188,-5.578125 4.60937,0 -1.40625,-3.78125 q -0.65625,-1.703125 -0.96875,-2.8125 -0.26562,1.3125 -0.73437,2.59375 l -1.5,4 z" />
  <path
     style="fill:#000000;fill-opacity:0;fill-rule:nonzero"
     inkscape:connector-curvature="0"
     id="path3215"
     d="m 502.69815,28.786089 144.00003,0 0,48 -144.00003,0 z" />
  <path
     style="fill:#000000;fill-rule:nonzero"
     inkscape:connector-curvature="0"
     id="path3253"
     d="m 110.75707,92.435715 0,-13.59375 9.17188,0 0,1.59375 -7.375,0 0,4.21875 6.375,0 0,1.609375 -6.375,0 0,6.171875 -1.79688,0 z m 11.33348,0 0,-13.59375 6.03126,0 q 1.8125,0 2.75,0.359375 0.95312,0.359375 1.51562,1.296875 0.5625,0.921875 0.5625,2.046875 0,1.453125 -0.9375,2.453125 -0.92187,0.984375 -2.89062,1.25 0.71875,0.34375 1.09375,0.671875 0.78125,0.734375 1.48437,1.8125 l 2.375,3.703125 -2.26562,0 -1.79688,-2.828125 q -0.79687,-1.21875 -1.3125,-1.875 -0.5,-0.65625 -0.90625,-0.90625 -0.40625,-0.265625 -0.8125,-0.359375 -0.3125,-0.07813 -1.01563,-0.07813 l -2.07812,0 0,6.046875 -1.79688,0 z m 1.79688,-7.59375 3.85937,0 q 1.23438,0 1.92188,-0.25 0.70313,-0.265625 1.0625,-0.828125 0.375,-0.5625 0.375,-1.21875 0,-0.96875 -0.70312,-1.578125 -0.70313,-0.625 -2.21875,-0.625 l -4.29688,0 0,4.5 z m 11.09795,0.96875 q 0,-3.390625 1.8125,-5.296875 1.82812,-1.921875 4.70312,-1.921875 1.875,0 3.39063,0.90625 1.51562,0.890625 2.29687,2.5 0.79688,1.609375 0.79688,3.65625 0,2.0625 -0.84375,3.703125 -0.82813,1.625 -2.35938,2.46875 -1.53125,0.84375 -3.29687,0.84375 -1.92188,0 -3.4375,-0.921875 -1.5,-0.9375 -2.28125,-2.53125 -0.78125,-1.609375 -0.78125,-3.40625 z m 1.85937,0.03125 q 0,2.453125 1.3125,3.875 1.32813,1.40625 3.3125,1.40625 2.03125,0 3.34375,-1.421875 1.3125,-1.4375 1.3125,-4.0625 0,-1.65625 -0.5625,-2.890625 -0.54687,-1.234375 -1.64062,-1.921875 -1.07813,-0.6875 -2.42188,-0.6875 -1.90625,0 -3.28125,1.3125 -1.375,1.3125 -1.375,4.390625 z m 13.13643,6.59375 0,-13.59375 2.71875,0 3.21875,9.625 q 0.4375,1.34375 0.64063,2.015625 0.23437,-0.75 0.73437,-2.1875 l 3.25,-9.453125 2.42188,0 0,13.59375 -1.73438,0 0,-11.390625 -3.95312,11.390625 -1.625,0 -3.9375,-11.578125 0,11.578125 -1.73438,0 z m 15.85331,-7.953125 0,-1.90625 1.90625,0 0,1.90625 -1.90625,0 z m 0,7.953125 0,-1.90625 1.90625,0 0,1.90625 -1.90625,0 z m 9.69473,-5.953125 0,-1.546875 9,-3.8125 0,1.65625 -7.14063,2.9375 7.14063,2.96875 0,1.65625 -9,-3.859375 z m 11.50433,5.953125 0,-8.546875 -1.48437,0 0,-1.3125 1.48437,0 0,-1.046875 q 0,-0.984375 0.17188,-1.46875 0.23437,-0.65625 0.84375,-1.046875 0.60937,-0.40625 1.70312,-0.40625 0.70313,0 1.5625,0.15625 l -0.25,1.46875 q -0.51562,-0.09375 -0.98437,-0.09375 -0.76563,0 -1.07813,0.328125 -0.3125,0.3125 -0.3125,1.203125 l 0,0.90625 1.92188,0 0,1.3125 -1.92188,0 0,8.546875 -1.65625,0 z m 4.15206,-4.921875 q 0,-2.734375 1.53125,-4.0625 1.26562,-1.09375 3.09375,-1.09375 2.03125,0 3.3125,1.34375 1.29687,1.328125 1.29687,3.671875 0,1.90625 -0.57812,3 -0.5625,1.078125 -1.65625,1.6875 -1.07813,0.59375 -2.375,0.59375 -2.0625,0 -3.34375,-1.328125 -1.28125,-1.328125 -1.28125,-3.8125 z m 1.71875,0 q 0,1.890625 0.82812,2.828125 0.82813,0.9375 2.07813,0.9375 1.25,0 2.0625,-0.9375 0.82812,-0.953125 0.82812,-2.890625 0,-1.828125 -0.82812,-2.765625 -0.82813,-0.9375 -2.0625,-0.9375 -1.25,0 -2.07813,0.9375 -0.82812,0.9375 -0.82812,2.828125 z m 8.65696,0 q 0,-2.734375 1.53125,-4.0625 1.26563,-1.09375 3.09375,-1.09375 2.03124,0 3.31249,1.34375 1.29687,1.328125 1.29687,3.671875 0,1.90625 -0.57812,3 -0.5625,1.078125 -1.65625,1.6875 -1.07813,0.59375 -2.37499,0.59375 -2.0625,0 -3.34375,-1.328125 -1.28125,-1.328125 -1.28125,-3.8125 z m 1.71875,0 q 0,1.890625 0.82813,2.828125 0.82812,0.9375 2.07812,0.9375 1.24999,0 2.06249,-0.9375 0.82812,-0.953125 0.82812,-2.890625 0,-1.828125 -0.82812,-2.765625 -0.82813,-0.9375 -2.06249,-0.9375 -1.25,0 -2.07812,0.9375 -0.82813,0.9375 -0.82813,2.828125 z m 18.7976,3.40625 q -0.59375,0.703125 -1.34375,1.125 -0.75,0.421875 -1.5,0.421875 -0.82813,0 -1.60938,-0.484375 -0.78125,-0.484375 -1.26562,-1.484375 -0.48438,-1 -0.48438,-2.203125 0,-1.46875 0.75,-2.953125 0.76563,-1.484375 1.89063,-2.21875 1.125,-0.75 2.17187,-0.75 0.8125,0 1.54688,0.421875 0.73437,0.421875 1.26562,1.296875 l 0.3125,-1.4375 1.65625,0 -1.32812,6.21875 q -0.28125,1.296875 -0.28125,1.4375 0,0.25 0.1875,0.4375 0.1875,0.171875 0.45312,0.171875 0.5,0 1.29688,-0.5625 1.0625,-0.75 1.67187,-1.984375 0.625,-1.25 0.625,-2.578125 0,-1.546875 -0.79687,-2.890625 -0.79688,-1.34375 -2.375,-2.15625 -1.5625,-0.8125 -3.46875,-0.8125 -2.17188,0 -3.96875,1.015625 -1.79688,1.015625 -2.78125,2.921875 -0.98438,1.890625 -0.98438,4.0625 0,2.265625 0.98438,3.921875 0.98437,1.640625 2.85937,2.421875 1.875,0.78125 4.14063,0.78125 2.4375,0 4.07812,-0.8125 1.64063,-0.8125 2.45313,-1.984375 l 1.67187,0 q -0.46875,0.96875 -1.625,1.984375 -1.14062,1.015625 -2.73437,1.59375 -1.57813,0.59375 -3.8125,0.59375 -2.0625,0 -3.8125,-0.53125 -1.73438,-0.53125 -2.95313,-1.59375 -1.21875,-1.0625 -1.84375,-2.4375 -0.78125,-1.75 -0.78125,-3.78125 0,-2.265625 0.92188,-4.328125 1.14062,-2.5 3.21875,-3.828125 2.07812,-1.34375 5.04687,-1.34375 2.3125,0 4.14063,0.9375 1.82812,0.9375 2.89062,2.796875 0.89063,1.609375 0.89063,3.5 0,2.6875 -1.89063,4.765625 -1.6875,1.875 -3.6875,1.875 -0.64062,0 -1.03125,-0.1875 -0.39062,-0.203125 -0.57812,-0.5625 -0.125,-0.234375 -0.1875,-0.796875 z m -4.48438,-2.515625 q 0,1.28125 0.59375,1.984375 0.60938,0.703125 1.39063,0.703125 0.51562,0 1.09375,-0.3125 0.57812,-0.3125 1.09375,-0.921875 0.53125,-0.609375 0.85937,-1.546875 0.34375,-0.953125 0.34375,-1.890625 0,-1.265625 -0.625,-1.953125 -0.625,-0.703125 -1.53125,-0.703125 -0.59375,0 -1.125,0.296875 -0.51562,0.296875 -1.01562,0.96875 -0.48438,0.671875 -0.78125,1.625 -0.29688,0.953125 -0.29688,1.75 z m 15.45425,4.03125 -1.54687,0 0,-13.59375 1.65625,0 0,4.84375 q 1.0625,-1.328125 2.70312,-1.328125 0.90625,0 1.71875,0.375 0.8125,0.359375 1.32813,1.03125 0.53125,0.65625 0.82812,1.59375 0.29688,0.9375 0.29688,2 0,2.53125 -1.25,3.921875 -1.25,1.375 -3,1.375 -1.75,0 -2.73438,-1.453125 l 0,1.234375 z m -0.0156,-5 q 0,1.765625 0.46875,2.5625 0.79687,1.28125 2.14062,1.28125 1.09375,0 1.89063,-0.9375 0.79687,-0.953125 0.79687,-2.84375 0,-1.921875 -0.76562,-2.84375 -0.76563,-0.921875 -1.84375,-0.921875 -1.09375,0 -1.89063,0.953125 -0.79687,0.953125 -0.79687,2.75 z m 15.28198,3.78125 q -0.9375,0.796875 -1.79687,1.125 -0.85938,0.3125 -1.84375,0.3125 -1.60938,0 -2.48438,-0.78125 -0.875,-0.796875 -0.875,-2.03125 0,-0.734375 0.32813,-1.328125 0.32812,-0.59375 0.85937,-0.953125 0.53125,-0.359375 1.20313,-0.546875 0.5,-0.140625 1.48437,-0.25 2.03125,-0.25 2.98438,-0.578125 0,-0.34375 0,-0.4375 0,-1.015625 -0.46875,-1.4375 -0.64063,-0.5625 -1.90625,-0.5625 -1.17188,0 -1.73438,0.40625 -0.5625,0.40625 -0.82812,1.46875 l -1.64063,-0.234375 q 0.23438,-1.046875 0.73438,-1.6875 0.51562,-0.640625 1.46875,-0.984375 0.96875,-0.359375 2.25,-0.359375 1.26562,0 2.04687,0.296875 0.78125,0.296875 1.15625,0.75 0.375,0.453125 0.51563,1.140625 0.0937,0.421875 0.0937,1.53125 l 0,2.234375 q 0,2.328125 0.0937,2.953125 0.10937,0.609375 0.4375,1.171875 l -1.75,0 q -0.26563,-0.515625 -0.32813,-1.21875 z m -0.14062,-3.71875 q -0.90625,0.359375 -2.73438,0.625 -1.03125,0.140625 -1.45312,0.328125 -0.42188,0.1875 -0.65625,0.546875 -0.23438,0.359375 -0.23438,0.796875 0,0.671875 0.5,1.125 0.51563,0.4375 1.48438,0.4375 0.96875,0 1.71875,-0.421875 0.75,-0.4375 1.10937,-1.15625 0.26563,-0.578125 0.26563,-1.671875 l 0,-0.609375 z m 4.0632,4.9375 0,-9.859375 1.5,0 0,1.5 q 0.57812,-1.046875 1.0625,-1.375 0.48437,-0.34375 1.07812,-0.34375 0.84375,0 1.71875,0.546875 l -0.57812,1.546875 q -0.60938,-0.359375 -1.23438,-0.359375 -0.54687,0 -0.98437,0.328125 -0.42188,0.328125 -0.60938,0.90625 -0.28125,0.890625 -0.28125,1.953125 l 0,5.15625 -1.67187,0 z m 6.69705,0 0,-1.90625 1.90625,0 0,1.90625 -1.90625,0 z m 11.15207,-3.609375 1.64062,0.21875 q -0.26562,1.6875 -1.375,2.65625 -1.10937,0.953125 -2.73437,0.953125 -2.01563,0 -3.25,-1.3125 -1.21875,-1.328125 -1.21875,-3.796875 0,-1.59375 0.51562,-2.78125 0.53125,-1.203125 1.60938,-1.796875 1.09375,-0.609375 2.35937,-0.609375 1.60938,0 2.625,0.8125 1.01563,0.8125 1.3125,2.3125 l -1.625,0.25 q -0.23437,-1 -0.82812,-1.5 -0.59375,-0.5 -1.42188,-0.5 -1.26562,0 -2.0625,0.90625 -0.78125,0.90625 -0.78125,2.859375 0,1.984375 0.76563,2.890625 0.76562,0.890625 1.98437,0.890625 0.98438,0 1.64063,-0.59375 0.65625,-0.609375 0.84375,-1.859375 z m 2.26562,-1.3125 q 0,-2.734375 1.53125,-4.0625 1.26563,-1.09375 3.09375,-1.09375 2.03125,0 3.3125,1.34375 1.29688,1.328125 1.29688,3.671875 0,1.90625 -0.57813,3 -0.5625,1.078125 -1.65625,1.6875 -1.07812,0.59375 -2.375,0.59375 -2.0625,0 -3.34375,-1.328125 -1.28125,-1.328125 -1.28125,-3.8125 z m 1.71875,0 q 0,1.890625 0.82813,2.828125 0.82812,0.9375 2.07812,0.9375 1.25,0 2.0625,-0.9375 0.82813,-0.953125 0.82813,-2.890625 0,-1.828125 -0.82813,-2.765625 -0.82812,-0.9375 -2.0625,-0.9375 -1.25,0 -2.07812,0.9375 -0.82813,0.9375 -0.82813,2.828125 z m 9.28196,4.921875 0,-9.859375 1.5,0 0,1.390625 q 0.45312,-0.71875 1.21875,-1.15625 0.78125,-0.453125 1.76562,-0.453125 1.09375,0 1.79688,0.453125 0.70312,0.453125 0.98437,1.28125 1.17188,-1.734375 3.04688,-1.734375 1.46875,0 2.25,0.8125 0.79687,0.8125 0.79687,2.5 l 0,6.765625 -1.67187,0 0,-6.203125 q 0,-1 -0.15625,-1.4375 -0.15625,-0.453125 -0.59375,-0.71875 -0.42188,-0.265625 -1,-0.265625 -1.03125,0 -1.71875,0.6875 -0.6875,0.6875 -0.6875,2.21875 l 0,5.71875 -1.67188,0 0,-6.40625 q 0,-1.109375 -0.40625,-1.65625 -0.40625,-0.5625 -1.34375,-0.5625 -0.70312,0 -1.3125,0.375 -0.59375,0.359375 -0.85937,1.078125 -0.26563,0.71875 -0.26563,2.0625 l 0,5.109375 -1.67187,0 z m 24.33767,-5.953125 -9,3.859375 0,-1.65625 7.125,-2.96875 -7.125,-2.9375 0,-1.65625 9,3.8125 0,1.546875 z" />
  <path
     style="fill:#000000;fill-opacity:0;fill-rule:nonzero"
     inkscape:connector-curvature="0"
     id="path3251"
     d="m 78.58267,62.271652 260.56693,0 0,47.999998 -260.56693,0 z" />
  <g
     id="bounce1"
     inkscape:label="#g3408">
    <path
       d="m 225.50131,235.855 0,0 c 0,-2.20877 1.79057,-3.99936 3.99936,-3.99936 l 88.00128,0 c 1.0607,0 2.07794,0.42137 2.82797,1.17139 0.75003,0.75003 1.17139,1.76729 1.17139,2.82797 l 0,56.0013 c 0,2.20877 -1.79059,3.99936 -3.99936,3.99936 l -88.00128,0 c -2.20879,0 -3.99936,-1.79059 -3.99936,-3.99936 z"
       id="path3179"
       inkscape:connector-curvature="0"
       style="fill:#cfe2f3;fill-rule:nonzero" />
    <path
       d="m 225.50131,235.855 0,0 c 0,-2.20877 1.79057,-3.99936 3.99936,-3.99936 l 88.00128,0 c 1.0607,0 2.07794,0.42137 2.82797,1.17139 0.75003,0.75003 1.17139,1.76729 1.17139,2.82797 l 0,56.0013 c 0,2.20877 -1.79059,3.99936 -3.99936,3.99936 l -88.00128,0 c -2.20879,0 -3.99936,-1.79059 -3.99936,-3.99936 z"
       id="path3181"
       inkscape:connector-curvature="0"
       style="stroke:#000000;stroke-width:2;stroke-linecap:butt;stroke-linejoin:round" />
    <path
       d="m 225.75197,248.35695 48.4987,26.21849 47,-26.21849"
       id="path3183"
       inkscape:connector-curvature="0"
       style="fill:#000000;fill-opacity:0;fill-rule:nonzero" />
    <path
       d="m 225.75197,248.35695 48.4987,26.21849 47,-26.21849"
       id="path3185"
       inkscape:connector-curvature="0"
       style="stroke:#000000;stroke-width:2;stroke-linecap:butt;stroke-linejoin:round" />
    <path
       d="m 218.24147,269.3517 110.5197,0 0,33.66928 -110.5197,0 z"
       id="path3235"
       inkscape:connector-curvature="0"
       style="fill:#000000;fill-opacity:0;fill-rule:nonzero" />
    <path
       d="m 238.0668,292.3504 0,-13.59375 5.10937,0 q 1.54688,0 2.48438,0.40625 0.95312,0.40625 1.48437,1.26562 0.53125,0.85938 0.53125,1.79688 0,0.875 -0.46875,1.65625 -0.46875,0.76562 -1.4375,1.23437 1.23438,0.35938 1.89063,1.23438 0.67187,0.875 0.67187,2.0625 0,0.95312 -0.40625,1.78125 -0.39062,0.8125 -0.98437,1.26562 -0.59375,0.4375 -1.5,0.67188 -0.89063,0.21875 -2.1875,0.21875 l -5.1875,0 z m 1.79687,-7.89063 2.9375,0 q 1.20313,0 1.71875,-0.15625 0.6875,-0.20312 1.03125,-0.67187 0.35938,-0.46875 0.35938,-1.1875 0,-0.67188 -0.32813,-1.1875 -0.32812,-0.51563 -0.9375,-0.70313 -0.59375,-0.20312 -2.0625,-0.20312 l -2.71875,0 0,4.10937 z m 0,6.28125 3.39063,0 q 0.875,0 1.21875,-0.0625 0.625,-0.10937 1.04687,-0.35937 0.42188,-0.26563 0.6875,-0.76563 0.26563,-0.5 0.26563,-1.14062 0,-0.76563 -0.39063,-1.32813 -0.39062,-0.5625 -1.07812,-0.78125 -0.6875,-0.23437 -1.98438,-0.23437 l -3.15625,0 0,4.67187 z m 9.88108,-3.3125 q 0,-2.73437 1.53125,-4.0625 1.26562,-1.09375 3.09375,-1.09375 2.03125,0 3.3125,1.34375 1.29687,1.32813 1.29687,3.67188 0,1.90625 -0.57812,3 -0.5625,1.07812 -1.65625,1.6875 -1.07813,0.59375 -2.375,0.59375 -2.0625,0 -3.34375,-1.32813 -1.28125,-1.32812 -1.28125,-3.8125 z m 1.71875,0 q 0,1.89063 0.82812,2.82813 0.82813,0.9375 2.07813,0.9375 1.25,0 2.0625,-0.9375 0.82812,-0.95313 0.82812,-2.89063 0,-1.82812 -0.82812,-2.76562 -0.82813,-0.9375 -2.0625,-0.9375 -1.25,0 -2.07813,0.9375 -0.82812,0.9375 -0.82812,2.82812 z m 15.73507,4.92188 0,-1.45313 q -1.14062,1.67188 -3.125,1.67188 -0.85937,0 -1.625,-0.32813 -0.75,-0.34375 -1.125,-0.84375 -0.35937,-0.5 -0.51562,-1.23437 -0.0937,-0.5 -0.0937,-1.5625 l 0,-6.10938 1.67187,0 0,5.46875 q 0,1.3125 0.0937,1.76563 0.15625,0.65625 0.67188,1.03125 0.51562,0.375 1.26562,0.375 0.75,0 1.40625,-0.375 0.65625,-0.39063 0.92188,-1.04688 0.28125,-0.67187 0.28125,-1.9375 l 0,-5.28125 1.67187,0 0,9.85938 -1.5,0 z m 3.92261,0 0,-9.85938 1.5,0 0,1.40625 q 1.09375,-1.625 3.14063,-1.625 0.89062,0 1.64062,0.32813 0.75,0.3125 1.10938,0.84375 0.375,0.51562 0.53125,1.21875 0.0937,0.46875 0.0937,1.625 l 0,6.0625 -1.67188,0 0,-6 q 0,-1.01563 -0.20312,-1.51563 -0.1875,-0.51562 -0.6875,-0.8125 -0.5,-0.29687 -1.17188,-0.29687 -1.0625,0 -1.84375,0.67187 -0.76562,0.67188 -0.76562,2.57813 l 0,5.375 -1.67188,0 z m 16.8132,-3.60938 1.64063,0.21875 q -0.26563,1.6875 -1.375,2.65625 -1.10938,0.95313 -2.73438,0.95313 -2.01562,0 -3.25,-1.3125 -1.21875,-1.32813 -1.21875,-3.79688 0,-1.59375 0.51563,-2.78125 0.53125,-1.20312 1.60937,-1.79687 1.09375,-0.60938 2.35938,-0.60938 1.60937,0 2.625,0.8125 1.01562,0.8125 1.3125,2.3125 l -1.625,0.25 q -0.23438,-1 -0.82813,-1.5 -0.59375,-0.5 -1.42187,-0.5 -1.26563,0 -2.0625,0.90625 -0.78125,0.90625 -0.78125,2.85938 0,1.98437 0.76562,2.89062 0.76563,0.89063 1.98438,0.89063 0.98437,0 1.64062,-0.59375 0.65625,-0.60938 0.84375,-1.85938 z m 9.64063,0.4375 1.71875,0.21875 q -0.40625,1.5 -1.51563,2.34375 -1.09375,0.82813 -2.8125,0.82813 -2.15625,0 -3.42187,-1.32813 -1.26563,-1.32812 -1.26563,-3.73437 0,-2.48438 1.26563,-3.85938 1.28125,-1.375 3.32812,-1.375 1.98438,0 3.23438,1.34375 1.25,1.34375 1.25,3.79688 0,0.14062 -0.0156,0.4375 l -7.34375,0 q 0.0937,1.625 0.92188,2.48437 0.82812,0.85938 2.0625,0.85938 0.90625,0 1.54687,-0.46875 0.65625,-0.48438 1.04688,-1.54688 z m -5.48438,-2.70312 5.5,0 q -0.10937,-1.23438 -0.625,-1.85938 -0.79687,-0.96875 -2.07812,-0.96875 -1.14063,0 -1.9375,0.78125 -0.78125,0.76563 -0.85938,2.04688 z m 14.93824,5.875 -1.67188,0 0,-10.64063 q -0.59375,0.57813 -1.57812,1.15625 -0.98438,0.5625 -1.76563,0.85938 l 0,-1.625 q 1.40625,-0.65625 2.45313,-1.59375 1.04687,-0.9375 1.48437,-1.8125 l 1.07813,0 0,13.65625 z"
       id="path3237"
       inkscape:connector-curvature="0"
       style="fill:#000000;fill-rule:nonzero" />
  </g>
  <g
     id="evp1"
     inkscape:label="#g3361">
    <path
       style="fill:#000000;fill-opacity:0;fill-rule:nonzero"
       inkscape:connector-curvature="0"
       id="path3239"
       d="m 76.47769,262.18634 144,0 0,48 -144,0 z" />
    <path
       d="m 94.50131,235.855 0,0 c 0,-2.20877 1.790573,-3.99936 3.999359,-3.99936 l 88.001281,0 c 1.0607,0 2.07794,0.42137 2.82797,1.17139 0.75003,0.75003 1.17139,1.76729 1.17139,2.82797 l 0,56.0013 c 0,2.20877 -1.79057,3.99936 -3.99936,3.99936 l -88.001281,0 c -2.208786,0 -3.999359,-1.79059 -3.999359,-3.99936 z"
       id="path3171"
       inkscape:connector-curvature="0"
       style="fill:#cfe2f3;fill-rule:nonzero" />
    <path
       d="m 94.50131,235.855 0,0 c 0,-2.20877 1.790573,-3.99936 3.999359,-3.99936 l 88.001281,0 c 1.0607,0 2.07794,0.42137 2.82797,1.17139 0.75003,0.75003 1.17139,1.76729 1.17139,2.82797 l 0,56.0013 c 0,2.20877 -1.79057,3.99936 -3.99936,3.99936 l -88.001281,0 c -2.208786,0 -3.999359,-1.79059 -3.999359,-3.99936 z"
       id="path3173"
       inkscape:connector-curvature="0"
       style="stroke:#000000;stroke-width:2;stroke-linecap:butt;stroke-linejoin:round" />
    <path
       d="m 94.75197,248.35695 48.49869,26.21849 47,-26.21849"
       id="path3175"
       inkscape:connector-curvature="0"
       style="fill:#000000;fill-opacity:0;fill-rule:nonzero" />
    <path
       d="m 94.75197,248.35695 48.49869,26.21849 47,-26.21849"
       id="path3177"
       inkscape:connector-curvature="0"
       style="stroke:#000000;stroke-width:2;stroke-linecap:butt;stroke-linejoin:round" />
    <path
       d="m 119.39711,292.3504 0,-13.59375 6.03125,0 q 1.8125,0 2.75,0.35937 0.95312,0.35938 1.51562,1.29688 0.5625,0.92187 0.5625,2.04687 0,1.45313 -0.9375,2.45313 -0.92187,0.98437 -2.89062,1.25 0.71875,0.34375 1.09375,0.67187 0.78125,0.73438 1.48437,1.8125 l 2.375,3.70313 -2.26562,0 -1.79688,-2.82813 q -0.79687,-1.21875 -1.3125,-1.875 -0.5,-0.65625 -0.90625,-0.90625 -0.40625,-0.26562 -0.8125,-0.35937 -0.3125,-0.0781 -1.01562,-0.0781 l -2.07813,0 0,6.04688 -1.79687,0 z m 1.79687,-7.59375 3.85938,0 q 1.23437,0 1.92187,-0.25 0.70313,-0.26563 1.0625,-0.82813 0.375,-0.5625 0.375,-1.21875 0,-0.96875 -0.70312,-1.57812 -0.70313,-0.625 -2.21875,-0.625 l -4.29688,0 0,4.5 z m 21.34795,2.82812 1.79688,0.45313 q -0.5625,2.21875 -2.03125,3.39062 -1.46875,1.15625 -3.59375,1.15625 -2.20313,0 -3.57813,-0.89062 -1.375,-0.90625 -2.09375,-2.59375 -0.71875,-1.70313 -0.71875,-3.65625 0,-2.125 0.79688,-3.70313 0.8125,-1.57812 2.3125,-2.39062 1.5,-0.82813 3.29687,-0.82813 2.04688,0 3.4375,1.04688 1.39063,1.03125 1.9375,2.90625 l -1.76562,0.42187 q -0.46875,-1.48437 -1.375,-2.15625 -0.90625,-0.6875 -2.26563,-0.6875 -1.5625,0 -2.625,0.75 -1.04687,0.75 -1.48437,2.03125 -0.42188,1.26563 -0.42188,2.60938 0,1.73437 0.5,3.03125 0.51563,1.28125 1.57813,1.92187 1.07812,0.64063 2.3125,0.64063 1.51562,0 2.5625,-0.85938 1.04687,-0.875 1.42187,-2.59375 z m 3.76982,4.76563 0,-13.59375 5.125,0 q 1.35938,0 2.07813,0.125 1,0.17187 1.67187,0.64062 0.67188,0.46875 1.07813,1.3125 0.42187,0.84375 0.42187,1.84375 0,1.73438 -1.10937,2.9375 -1.09375,1.20313 -3.98438,1.20313 l -3.48437,0 0,5.53125 -1.79688,0 z m 1.79688,-7.14063 3.51562,0 q 1.75,0 2.46875,-0.64062 0.73438,-0.65625 0.73438,-1.82813 0,-0.85937 -0.4375,-1.46875 -0.42188,-0.60937 -1.125,-0.79687 -0.45313,-0.125 -1.67188,-0.125 l -3.48437,0 0,4.85937 z m 14.09982,7.14063 0,-12 -4.46875,0 0,-1.59375 10.76563,0 0,1.59375 -4.5,0 0,12 -1.79688,0 z m 13.55223,0 -1.67187,0 0,-10.64063 q -0.59375,0.57813 -1.57813,1.15625 -0.98437,0.5625 -1.76562,0.85938 l 0,-1.625 q 1.40625,-0.65625 2.45312,-1.59375 1.04688,-0.9375 1.48438,-1.8125 l 1.07812,0 0,13.65625 z"
       id="path3241"
       inkscape:connector-curvature="0"
       style="fill:#000000;fill-rule:nonzero" />
  </g>
  <g
     id="evp2"
     inkscape:label="#g3375">
    <path
       style="fill:#000000;fill-opacity:0;fill-rule:nonzero"
       inkscape:connector-curvature="0"
       id="path3243"
       d="m 70.50131,356.68503 144,0 0,48 -144,0 z" />
    <path
       d="m 94.50131,330.3537 0,0 c 0,-2.2088 1.790573,-3.99936 3.999359,-3.99936 l 88.001281,0 c 1.0607,0 2.07794,0.42136 2.82797,1.17139 0.75003,0.75003 1.17139,1.76727 1.17139,2.82797 l 0,56.00128 c 0,2.20877 -1.79057,3.99936 -3.99936,3.99936 l -88.001281,0 c -2.208786,0 -3.999359,-1.79059 -3.999359,-3.99936 z"
       id="path3187"
       inkscape:connector-curvature="0"
       style="fill:#cfe2f3;fill-rule:nonzero" />
    <path
       d="m 94.50131,330.3537 0,0 c 0,-2.2088 1.790573,-3.99936 3.999359,-3.99936 l 88.001281,0 c 1.0607,0 2.07794,0.42136 2.82797,1.17139 0.75003,0.75003 1.17139,1.76727 1.17139,2.82797 l 0,56.00128 c 0,2.20877 -1.79057,3.99936 -3.99936,3.99936 l -88.001281,0 c -2.208786,0 -3.999359,-1.79059 -3.999359,-3.99936 z"
       id="path3189"
       inkscape:connector-curvature="0"
       style="stroke:#000000;stroke-width:2;stroke-linecap:butt;stroke-linejoin:round" />
    <path
       d="m 94.75197,342.85565 48.49869,26.21848 47,-26.21848"
       id="path3191"
       inkscape:connector-curvature="0"
       style="fill:#000000;fill-opacity:0;fill-rule:nonzero" />
    <path
       d="m 94.75197,342.85565 48.49869,26.21848 47,-26.21848"
       id="path3193"
       inkscape:connector-curvature="0"
       style="stroke:#000000;stroke-width:2;stroke-linecap:butt;stroke-linejoin:round" />
    <path
       d="m 113.42073,386.8491 0,-13.59375 6.03125,0 q 1.8125,0 2.75,0.35938 0.95313,0.35937 1.51563,1.29687 0.5625,0.92188 0.5625,2.04688 0,1.45312 -0.9375,2.45312 -0.92188,0.98438 -2.89063,1.25 0.71875,0.34375 1.09375,0.67188 0.78125,0.73437 1.48438,1.8125 l 2.375,3.70312 -2.26563,0 -1.79687,-2.82812 q -0.79688,-1.21875 -1.3125,-1.875 -0.5,-0.65625 -0.90625,-0.90625 -0.40625,-0.26563 -0.8125,-0.35938 -0.3125,-0.0781 -1.01563,-0.0781 l -2.07812,0 0,6.04687 -1.79688,0 z m 1.79688,-7.59375 3.85937,0 q 1.23438,0 1.92188,-0.25 0.70312,-0.26562 1.0625,-0.82812 0.375,-0.5625 0.375,-1.21875 0,-0.96875 -0.70313,-1.57813 -0.70312,-0.625 -2.21875,-0.625 l -4.29687,0 0,4.5 z m 21.34794,2.82813 1.79688,0.45312 q -0.5625,2.21875 -2.03125,3.39063 -1.46875,1.15625 -3.59375,1.15625 -2.20313,0 -3.57813,-0.89063 -1.375,-0.90625 -2.09375,-2.59375 -0.71875,-1.70312 -0.71875,-3.65625 0,-2.125 0.79688,-3.70312 0.8125,-1.57813 2.3125,-2.39063 1.5,-0.82812 3.29687,-0.82812 2.04688,0 3.4375,1.04687 1.39063,1.03125 1.9375,2.90625 l -1.76562,0.42188 q -0.46875,-1.48438 -1.375,-2.15625 -0.90625,-0.6875 -2.26563,-0.6875 -1.5625,0 -2.625,0.75 -1.04687,0.75 -1.48437,2.03125 -0.42188,1.26562 -0.42188,2.60937 0,1.73438 0.5,3.03125 0.51563,1.28125 1.57813,1.92188 1.07812,0.64062 2.3125,0.64062 1.51562,0 2.5625,-0.85937 1.04687,-0.875 1.42187,-2.59375 z m 3.76982,4.76562 0,-13.59375 5.125,0 q 1.35938,0 2.07813,0.125 1,0.17188 1.67187,0.64063 0.67188,0.46875 1.07813,1.3125 0.42187,0.84375 0.42187,1.84375 0,1.73437 -1.10937,2.9375 -1.09375,1.20312 -3.98438,1.20312 l -3.48437,0 0,5.53125 -1.79688,0 z m 1.79688,-7.14062 3.51562,0 q 1.75,0 2.46875,-0.64063 0.73438,-0.65625 0.73438,-1.82812 0,-0.85938 -0.4375,-1.46875 -0.42188,-0.60938 -1.125,-0.79688 -0.45313,-0.125 -1.67188,-0.125 l -3.48437,0 0,4.85938 z m 14.09982,7.14062 0,-12 -4.46875,0 0,-1.59375 10.76563,0 0,1.59375 -4.5,0 0,12 -1.79688,0 z m 16.03661,-1.60937 0,1.60937 -8.98438,0 q -0.0156,-0.60937 0.1875,-1.15625 0.34375,-0.92187 1.09375,-1.8125 0.76563,-0.89062 2.1875,-2.0625 2.21875,-1.8125 3,-2.875 0.78125,-1.0625 0.78125,-2.01562 0,-0.98438 -0.71875,-1.67188 -0.70312,-0.6875 -1.84375,-0.6875 -1.20312,0 -1.9375,0.73438 -0.71875,0.71875 -0.71875,2 l -1.71875,-0.17188 q 0.17188,-1.92187 1.32813,-2.92187 1.15625,-1.01563 3.09375,-1.01563 1.95312,0 3.09375,1.09375 1.14062,1.07813 1.14062,2.6875 0,0.8125 -0.34375,1.60938 -0.32812,0.78125 -1.10937,1.65625 -0.76563,0.85937 -2.5625,2.39062 -1.5,1.26563 -1.9375,1.71875 -0.42188,0.4375 -0.70313,0.89063 l 6.67188,0 z"
       id="path3245"
       inkscape:connector-curvature="0"
       style="fill:#000000;fill-rule:nonzero" />
  </g>
  <g
     id="bounce2"
     inkscape:label="#g3400">
    <path
       d="m 225.50131,330.3537 0,0 c 0,-2.2088 1.79057,-3.99936 3.99936,-3.99936 l 88.00128,0 c 1.0607,0 2.07794,0.42136 2.82797,1.17139 0.75003,0.75003 1.17139,1.76727 1.17139,2.82797 l 0,56.00128 c 0,2.20877 -1.79059,3.99936 -3.99936,3.99936 l -88.00128,0 c -2.20879,0 -3.99936,-1.79059 -3.99936,-3.99936 z"
       id="path3195"
       inkscape:connector-curvature="0"
       style="fill:#cfe2f3;fill-rule:nonzero" />
    <path
       d="m 225.50131,330.3537 0,0 c 0,-2.2088 1.79057,-3.99936 3.99936,-3.99936 l 88.00128,0 c 1.0607,0 2.07794,0.42136 2.82797,1.17139 0.75003,0.75003 1.17139,1.76727 1.17139,2.82797 l 0,56.00128 c 0,2.20877 -1.79059,3.99936 -3.99936,3.99936 l -88.00128,0 c -2.20879,0 -3.99936,-1.79059 -3.99936,-3.99936 z"
       id="path3197"
       inkscape:connector-curvature="0"
       style="stroke:#000000;stroke-width:2;stroke-linecap:butt;stroke-linejoin:round" />
    <path
       d="m 225.75197,342.85565 48.4987,26.21848 47,-26.21848"
       id="path3199"
       inkscape:connector-curvature="0"
       style="fill:#000000;fill-opacity:0;fill-rule:nonzero" />
    <path
       d="m 225.75197,342.85565 48.4987,26.21848 47,-26.21848"
       id="path3201"
       inkscape:connector-curvature="0"
       style="stroke:#000000;stroke-width:2;stroke-linecap:butt;stroke-linejoin:round" />
    <path
       d="m 218.24147,363.8504 110.5197,0 0,33.66928 -110.5197,0 z"
       id="path3247"
       inkscape:connector-curvature="0"
       style="fill:#000000;fill-opacity:0;fill-rule:nonzero" />
    <path
       d="m 238.0668,386.8491 0,-13.59375 5.10937,0 q 1.54688,0 2.48438,0.40625 0.95312,0.40625 1.48437,1.26563 0.53125,0.85937 0.53125,1.79687 0,0.875 -0.46875,1.65625 -0.46875,0.76563 -1.4375,1.23438 1.23438,0.35937 1.89063,1.23437 0.67187,0.875 0.67187,2.0625 0,0.95313 -0.40625,1.78125 -0.39062,0.8125 -0.98437,1.26563 -0.59375,0.4375 -1.5,0.67187 -0.89063,0.21875 -2.1875,0.21875 l -5.1875,0 z m 1.79687,-7.89062 2.9375,0 q 1.20313,0 1.71875,-0.15625 0.6875,-0.20313 1.03125,-0.67188 0.35938,-0.46875 0.35938,-1.1875 0,-0.67187 -0.32813,-1.1875 -0.32812,-0.51562 -0.9375,-0.70312 -0.59375,-0.20313 -2.0625,-0.20313 l -2.71875,0 0,4.10938 z m 0,6.28125 3.39063,0 q 0.875,0 1.21875,-0.0625 0.625,-0.10938 1.04687,-0.35938 0.42188,-0.26562 0.6875,-0.76562 0.26563,-0.5 0.26563,-1.14063 0,-0.76562 -0.39063,-1.32812 -0.39062,-0.5625 -1.07812,-0.78125 -0.6875,-0.23438 -1.98438,-0.23438 l -3.15625,0 0,4.67188 z m 9.88108,-3.3125 q 0,-2.73438 1.53125,-4.0625 1.26562,-1.09375 3.09375,-1.09375 2.03125,0 3.3125,1.34375 1.29687,1.32812 1.29687,3.67187 0,1.90625 -0.57812,3 -0.5625,1.07813 -1.65625,1.6875 -1.07813,0.59375 -2.375,0.59375 -2.0625,0 -3.34375,-1.32812 -1.28125,-1.32813 -1.28125,-3.8125 z m 1.71875,0 q 0,1.89062 0.82812,2.82812 0.82813,0.9375 2.07813,0.9375 1.25,0 2.0625,-0.9375 0.82812,-0.95312 0.82812,-2.89062 0,-1.82813 -0.82812,-2.76563 -0.82813,-0.9375 -2.0625,-0.9375 -1.25,0 -2.07813,0.9375 -0.82812,0.9375 -0.82812,2.82813 z m 15.73507,4.92187 0,-1.45312 q -1.14062,1.67187 -3.125,1.67187 -0.85937,0 -1.625,-0.32812 -0.75,-0.34375 -1.125,-0.84375 -0.35937,-0.5 -0.51562,-1.23438 -0.0937,-0.5 -0.0937,-1.5625 l 0,-6.10937 1.67187,0 0,5.46875 q 0,1.3125 0.0937,1.76562 0.15625,0.65625 0.67188,1.03125 0.51562,0.375 1.26562,0.375 0.75,0 1.40625,-0.375 0.65625,-0.39062 0.92188,-1.04687 0.28125,-0.67188 0.28125,-1.9375 l 0,-5.28125 1.67187,0 0,9.85937 -1.5,0 z m 3.92261,0 0,-9.85937 1.5,0 0,1.40625 q 1.09375,-1.625 3.14063,-1.625 0.89062,0 1.64062,0.32812 0.75,0.3125 1.10938,0.84375 0.375,0.51563 0.53125,1.21875 0.0937,0.46875 0.0937,1.625 l 0,6.0625 -1.67188,0 0,-6 q 0,-1.01562 -0.20312,-1.51562 -0.1875,-0.51563 -0.6875,-0.8125 -0.5,-0.29688 -1.17188,-0.29688 -1.0625,0 -1.84375,0.67188 -0.76562,0.67187 -0.76562,2.57812 l 0,5.375 -1.67188,0 z m 16.8132,-3.60937 1.64063,0.21875 q -0.26563,1.6875 -1.375,2.65625 -1.10938,0.95312 -2.73438,0.95312 -2.01562,0 -3.25,-1.3125 -1.21875,-1.32812 -1.21875,-3.79687 0,-1.59375 0.51563,-2.78125 0.53125,-1.20313 1.60937,-1.79688 1.09375,-0.60937 2.35938,-0.60937 1.60937,0 2.625,0.8125 1.01562,0.8125 1.3125,2.3125 l -1.625,0.25 q -0.23438,-1 -0.82813,-1.5 -0.59375,-0.5 -1.42187,-0.5 -1.26563,0 -2.0625,0.90625 -0.78125,0.90625 -0.78125,2.85937 0,1.98438 0.76562,2.89063 0.76563,0.89062 1.98438,0.89062 0.98437,0 1.64062,-0.59375 0.65625,-0.60937 0.84375,-1.85937 z m 9.64063,0.4375 1.71875,0.21875 q -0.40625,1.5 -1.51563,2.34375 -1.09375,0.82812 -2.8125,0.82812 -2.15625,0 -3.42187,-1.32812 -1.26563,-1.32813 -1.26563,-3.73438 0,-2.48437 1.26563,-3.85937 1.28125,-1.375 3.32812,-1.375 1.98438,0 3.23438,1.34375 1.25,1.34375 1.25,3.79687 0,0.14063 -0.0156,0.4375 l -7.34375,0 q 0.0937,1.625 0.92188,2.48438 0.82812,0.85937 2.0625,0.85937 0.90625,0 1.54687,-0.46875 0.65625,-0.48437 1.04688,-1.54687 z m -5.48438,-2.70313 5.5,0 q -0.10937,-1.23437 -0.625,-1.85937 -0.79687,-0.96875 -2.07812,-0.96875 -1.14063,0 -1.9375,0.78125 -0.78125,0.76562 -0.85938,2.04687 z m 17.42261,4.26563 0,1.60937 -8.98437,0 q -0.0156,-0.60937 0.1875,-1.15625 0.34375,-0.92187 1.09375,-1.8125 0.76562,-0.89062 2.1875,-2.0625 2.21875,-1.8125 3,-2.875 0.78125,-1.0625 0.78125,-2.01562 0,-0.98438 -0.71875,-1.67188 -0.70313,-0.6875 -1.84375,-0.6875 -1.20313,0 -1.9375,0.73438 -0.71875,0.71875 -0.71875,2 l -1.71875,-0.17188 q 0.17187,-1.92187 1.32812,-2.92187 1.15625,-1.01563 3.09375,-1.01563 1.95313,0 3.09375,1.09375 1.14063,1.07813 1.14063,2.6875 0,0.8125 -0.34375,1.60938 -0.32813,0.78125 -1.10938,1.65625 -0.76562,0.85937 -2.5625,2.39062 -1.5,1.26563 -1.9375,1.71875 -0.42187,0.4375 -0.70312,0.89063 l 6.67187,0 z"
       id="path3249"
       inkscape:connector-curvature="0"
       style="fill:#000000;fill-rule:nonzero" />
  </g>
  <g
     id="evpB"
     inkscape:label="#g3440">
    <path
       d="m 453.5013,144.855 0,0 c 0,-2.20877 1.79059,-3.99936 3.99936,-3.99936 l 88.00128,0 c 1.06067,0 2.07794,0.42137 2.828,1.17139 0.75,0.75003 1.17139,1.76729 1.17139,2.82797 l 0,56.00128 c 0,2.20879 -1.79059,3.99936 -3.99939,3.99936 l -88.00128,0 c -2.20877,0 -3.99936,-1.79057 -3.99936,-3.99936 z"
       id="path3203"
       inkscape:connector-curvature="0"
       style="fill:#cfe2f3;fill-rule:nonzero" />
    <path
       d="m 453.5013,144.855 0,0 c 0,-2.20877 1.79059,-3.99936 3.99936,-3.99936 l 88.00128,0 c 1.06067,0 2.07794,0.42137 2.828,1.17139 0.75,0.75003 1.17139,1.76729 1.17139,2.82797 l 0,56.00128 c 0,2.20879 -1.79059,3.99936 -3.99939,3.99936 l -88.00128,0 c -2.20877,0 -3.99936,-1.79057 -3.99936,-3.99936 z"
       id="path3205"
       inkscape:connector-curvature="0"
       style="stroke:#000000;stroke-width:2;stroke-linecap:butt;stroke-linejoin:round" />
    <path
       d="m 453.75198,157.35695 48.49869,26.21851 47,-26.21851"
       id="path3207"
       inkscape:connector-curvature="0"
       style="fill:#000000;fill-opacity:0;fill-rule:nonzero" />
    <path
       d="m 453.75198,157.35695 48.49869,26.21851 47,-26.21851"
       id="path3209"
       inkscape:connector-curvature="0"
       style="stroke:#000000;stroke-width:2;stroke-linecap:butt;stroke-linejoin:round" />
    <path
       d="m 450.77692,92.855644 221.7323,0 0,47.999996 -221.7323,0 z"
       id="path3255"
       inkscape:connector-curvature="0"
       style="fill:#000000;fill-opacity:0;fill-rule:nonzero" />
    <path
       d="m 465.53934,123.01971 0,-13.59375 6.03125,0 q 1.8125,0 2.75,0.35938 0.95312,0.35937 1.51562,1.29687 0.5625,0.92188 0.5625,2.04688 0,1.45312 -0.9375,2.45312 -0.92187,0.98438 -2.89062,1.25 0.71875,0.34375 1.09375,0.67188 0.78125,0.73437 1.48437,1.8125 l 2.375,3.70312 -2.26562,0 -1.79688,-2.82812 q -0.79687,-1.21875 -1.3125,-1.875 -0.5,-0.65625 -0.90625,-0.90625 -0.40625,-0.26563 -0.8125,-0.35938 -0.3125,-0.0781 -1.01562,-0.0781 l -2.07813,0 0,6.04687 -1.79687,0 z m 1.79687,-7.59375 3.85938,0 q 1.23437,0 1.92187,-0.25 0.70313,-0.26562 1.0625,-0.82812 0.375,-0.5625 0.375,-1.21875 0,-0.96875 -0.70312,-1.57813 -0.70313,-0.625 -2.21875,-0.625 l -4.29688,0 0,4.5 z m 21.34797,2.82813 1.79687,0.45312 q -0.5625,2.21875 -2.03125,3.39063 -1.46875,1.15625 -3.59375,1.15625 -2.20312,0 -3.57812,-0.89063 -1.375,-0.90625 -2.09375,-2.59375 -0.71875,-1.70312 -0.71875,-3.65625 0,-2.125 0.79687,-3.70312 0.8125,-1.57813 2.3125,-2.39063 1.5,-0.82812 3.29688,-0.82812 2.04687,0 3.4375,1.04687 1.39062,1.03125 1.9375,2.90625 l -1.76563,0.42188 q -0.46875,-1.48438 -1.375,-2.15625 -0.90625,-0.6875 -2.26562,-0.6875 -1.5625,0 -2.625,0.75 -1.04688,0.75 -1.48438,2.03125 -0.42187,1.26562 -0.42187,2.60937 0,1.73438 0.5,3.03125 0.51562,1.28125 1.57812,1.92188 1.07813,0.64062 2.3125,0.64062 1.51563,0 2.5625,-0.85937 1.04688,-0.875 1.42188,-2.59375 z m 3.7698,4.76562 0,-13.59375 5.125,0 q 1.35938,0 2.07813,0.125 1,0.17188 1.67187,0.64063 0.67188,0.46875 1.07813,1.3125 0.42187,0.84375 0.42187,1.84375 0,1.73437 -1.10937,2.9375 -1.09375,1.20312 -3.98438,1.20312 l -3.48437,0 0,5.53125 -1.79688,0 z m 1.79688,-7.14062 3.51562,0 q 1.75,0 2.46875,-0.64063 0.73438,-0.65625 0.73438,-1.82812 0,-0.85938 -0.4375,-1.46875 -0.42188,-0.60938 -1.125,-0.79688 -0.45313,-0.125 -1.67188,-0.125 l -3.48437,0 0,4.85938 z m 14.09982,7.14062 0,-12 -4.46875,0 0,-1.59375 10.76566,0 0,1.59375 -4.50004,0 0,12 -1.79687,0 z m 8.19284,-7.95312 0,-1.90625 1.90625,0 0,1.90625 -1.90625,0 z m 0,7.95312 0,-1.90625 1.90625,0 0,1.90625 -1.90625,0 z m 9.69476,-5.95312 0,-1.54688 9,-3.8125 0,1.65625 -7.14062,2.9375 7.14062,2.96875 0,1.65625 -9,-3.85937 z m 11.50434,5.95312 0,-8.54687 -1.48438,0 0,-1.3125 1.48438,0 0,-1.04688 q 0,-0.98437 0.17187,-1.46875 0.23438,-0.65625 0.84375,-1.04687 0.60938,-0.40625 1.70313,-0.40625 0.70312,0 1.5625,0.15625 l -0.25,1.46875 q -0.51563,-0.0937 -0.98438,-0.0937 -0.76562,0 -1.07812,0.32812 -0.3125,0.3125 -0.3125,1.20313 l 0,0.90625 1.92187,0 0,1.3125 -1.92187,0 0,8.54687 -1.65625,0 z m 4.15204,-4.92187 q 0,-2.73438 1.53125,-4.0625 1.26562,-1.09375 3.09375,-1.09375 2.03125,0 3.3125,1.34375 1.29687,1.32812 1.29687,3.67187 0,1.90625 -0.57812,3 -0.5625,1.07813 -1.65625,1.6875 -1.07813,0.59375 -2.375,0.59375 -2.0625,0 -3.34375,-1.32812 -1.28125,-1.32813 -1.28125,-3.8125 z m 1.71875,0 q 0,1.89062 0.82812,2.82812 0.82813,0.9375 2.07813,0.9375 1.25,0 2.0625,-0.9375 0.82812,-0.95312 0.82812,-2.89062 0,-1.82813 -0.82812,-2.76563 -0.82813,-0.9375 -2.0625,-0.9375 -1.25,0 -2.07813,0.9375 -0.82812,0.9375 -0.82812,2.82813 z m 8.65698,0 q 0,-2.73438 1.53125,-4.0625 1.26562,-1.09375 3.09375,-1.09375 2.03125,0 3.3125,1.34375 1.29687,1.32812 1.29687,3.67187 0,1.90625 -0.57812,3 -0.5625,1.07813 -1.65625,1.6875 -1.07813,0.59375 -2.375,0.59375 -2.0625,0 -3.34375,-1.32812 -1.28125,-1.32813 -1.28125,-3.8125 z m 1.71875,0 q 0,1.89062 0.82812,2.82812 0.82813,0.9375 2.07813,0.9375 1.25,0 2.0625,-0.9375 0.82812,-0.95312 0.82812,-2.89062 0,-1.82813 -0.82812,-2.76563 -0.82813,-0.9375 -2.0625,-0.9375 -1.25,0 -2.07813,0.9375 -0.82812,0.9375 -0.82812,2.82813 z m 18.79761,3.40625 q -0.59375,0.70312 -1.34375,1.125 -0.75,0.42187 -1.5,0.42187 -0.82813,0 -1.60938,-0.48437 -0.78125,-0.48438 -1.26562,-1.48438 -0.48438,-1 -0.48438,-2.20312 0,-1.46875 0.75,-2.95313 0.76563,-1.48437 1.89063,-2.21875 1.125,-0.75 2.17187,-0.75 0.8125,0 1.54688,0.42188 0.73437,0.42187 1.26562,1.29687 l 0.3125,-1.4375 1.65625,0 -1.32812,6.21875 q -0.28125,1.29688 -0.28125,1.4375 0,0.25 0.1875,0.4375 0.1875,0.17188 0.45312,0.17188 0.5,0 1.29688,-0.5625 1.0625,-0.75 1.67187,-1.98438 0.625,-1.25 0.625,-2.57812 0,-1.54688 -0.79687,-2.89063 -0.79688,-1.34375 -2.375,-2.15625 -1.5625,-0.8125 -3.46875,-0.8125 -2.17188,0 -3.96875,1.01563 -1.79688,1.01562 -2.78125,2.92187 -0.98438,1.89063 -0.98438,4.0625 0,2.26563 0.98438,3.92188 0.98437,1.64062 2.85937,2.42187 1.875,0.78125 4.14063,0.78125 2.4375,0 4.07812,-0.8125 1.64063,-0.8125 2.45313,-1.98437 l 1.67187,0 q -0.46875,0.96875 -1.625,1.98437 -1.14062,1.01563 -2.73437,1.59375 -1.57813,0.59375 -3.8125,0.59375 -2.0625,0 -3.8125,-0.53125 -1.73438,-0.53125 -2.95313,-1.59375 -1.21875,-1.0625 -1.84375,-2.4375 -0.78125,-1.75 -0.78125,-3.78125 0,-2.26562 0.92188,-4.32812 1.14062,-2.5 3.21875,-3.82813 2.07812,-1.34375 5.04687,-1.34375 2.3125,0 4.14063,0.9375 1.82812,0.9375 2.89062,2.79688 0.89063,1.60937 0.89063,3.5 0,2.6875 -1.89063,4.76562 -1.6875,1.875 -3.6875,1.875 -0.64062,0 -1.03125,-0.1875 -0.39062,-0.20312 -0.57812,-0.5625 -0.125,-0.23437 -0.1875,-0.79687 z m -4.48438,-2.51563 q 0,1.28125 0.59375,1.98438 0.60938,0.70312 1.39063,0.70312 0.51562,0 1.09375,-0.3125 0.57812,-0.3125 1.09375,-0.92187 0.53125,-0.60938 0.85937,-1.54688 0.34375,-0.95312 0.34375,-1.89062 0,-1.26563 -0.625,-1.95313 -0.625,-0.70312 -1.53125,-0.70312 -0.59375,0 -1.125,0.29687 -0.51562,0.29688 -1.01562,0.96875 -0.48438,0.67188 -0.78125,1.625 -0.29688,0.95313 -0.29688,1.75 z m 15.45422,4.03125 -1.54687,0 0,-13.59375 1.65625,0 0,4.84375 q 1.0625,-1.32812 2.70312,-1.32812 0.90625,0 1.71875,0.375 0.8125,0.35937 1.32813,1.03125 0.53125,0.65625 0.82812,1.59375 0.29688,0.9375 0.29688,2 0,2.53125 -1.25,3.92187 -1.25,1.375 -3,1.375 -1.75,0 -2.73438,-1.45312 l 0,1.23437 z m -0.0156,-5 q 0,1.76563 0.46875,2.5625 0.79687,1.28125 2.14062,1.28125 1.09375,0 1.89063,-0.9375 0.79687,-0.95312 0.79687,-2.84375 0,-1.92187 -0.76562,-2.84375 -0.76563,-0.92187 -1.84375,-0.92187 -1.09375,0 -1.89063,0.95312 -0.79687,0.95313 -0.79687,2.75 z m 15.28198,3.78125 q -0.9375,0.79688 -1.79687,1.125 -0.85938,0.3125 -1.84375,0.3125 -1.60938,0 -2.48438,-0.78125 -0.875,-0.79687 -0.875,-2.03125 0,-0.73437 0.32813,-1.32812 0.32812,-0.59375 0.85937,-0.95313 0.53125,-0.35937 1.20313,-0.54687 0.5,-0.14063 1.48437,-0.25 2.03125,-0.25 2.98438,-0.57813 0,-0.34375 0,-0.4375 0,-1.01562 -0.46875,-1.4375 -0.64063,-0.5625 -1.90625,-0.5625 -1.17188,0 -1.73438,0.40625 -0.5625,0.40625 -0.82812,1.46875 l -1.64063,-0.23437 q 0.23438,-1.04688 0.73438,-1.6875 0.51562,-0.64063 1.46875,-0.98438 0.96875,-0.35937 2.25,-0.35937 1.26562,0 2.04687,0.29687 0.78125,0.29688 1.15625,0.75 0.375,0.45313 0.51563,1.14063 0.0937,0.42187 0.0937,1.53125 l 0,2.23437 q 0,2.32813 0.0937,2.95313 0.10937,0.60937 0.4375,1.17187 l -1.75,0 q -0.26563,-0.51562 -0.32813,-1.21875 z m -0.14062,-3.71875 q -0.90625,0.35938 -2.73438,0.625 -1.03125,0.14063 -1.45312,0.32813 -0.42188,0.1875 -0.65625,0.54687 -0.23438,0.35938 -0.23438,0.79688 0,0.67187 0.5,1.125 0.51563,0.4375 1.48438,0.4375 0.96875,0 1.71875,-0.42188 0.75,-0.4375 1.10937,-1.15625 0.26563,-0.57812 0.26563,-1.67187 l 0,-0.60938 z m 4.06323,4.9375 0,-9.85937 1.5,0 0,1.5 q 0.57812,-1.04688 1.0625,-1.375 0.48437,-0.34375 1.07812,-0.34375 0.84375,0 1.71875,0.54687 l -0.57812,1.54688 q -0.60938,-0.35938 -1.23438,-0.35938 -0.54687,0 -0.98437,0.32813 -0.42188,0.32812 -0.60938,0.90625 -0.28125,0.89062 -0.28125,1.95312 l 0,5.15625 -1.67187,0 z m 6.69702,0 0,-1.90625 1.90625,0 0,1.90625 -1.90625,0 z m 11.1521,-3.60937 1.64062,0.21875 q -0.26562,1.6875 -1.375,2.65625 -1.10937,0.95312 -2.73437,0.95312 -2.01563,0 -3.25,-1.3125 -1.21875,-1.32812 -1.21875,-3.79687 0,-1.59375 0.51562,-2.78125 0.53125,-1.20313 1.60938,-1.79688 1.09375,-0.60937 2.35937,-0.60937 1.60938,0 2.625,0.8125 1.01563,0.8125 1.3125,2.3125 l -1.625,0.25 q -0.23437,-1 -0.82812,-1.5 -0.59375,-0.5 -1.42188,-0.5 -1.26562,0 -2.0625,0.90625 -0.78125,0.90625 -0.78125,2.85937 0,1.98438 0.76563,2.89063 0.76562,0.89062 1.98437,0.89062 0.98438,0 1.64063,-0.59375 0.65625,-0.60937 0.84375,-1.85937 z m 2.26562,-1.3125 q 0,-2.73438 1.53125,-4.0625 1.26563,-1.09375 3.09375,-1.09375 2.03125,0 3.3125,1.34375 1.29688,1.32812 1.29688,3.67187 0,1.90625 -0.57813,3 -0.5625,1.07813 -1.65625,1.6875 -1.07812,0.59375 -2.375,0.59375 -2.0625,0 -3.34375,-1.32812 -1.28125,-1.32813 -1.28125,-3.8125 z m 1.71875,0 q 0,1.89062 0.82813,2.82812 0.82812,0.9375 2.07812,0.9375 1.25,0 2.0625,-0.9375 0.82813,-0.95312 0.82813,-2.89062 0,-1.82813 -0.82813,-2.76563 -0.82812,-0.9375 -2.0625,-0.9375 -1.25,0 -2.07812,0.9375 -0.82813,0.9375 -0.82813,2.82813 z m 9.28193,4.92187 0,-9.85937 1.5,0 0,1.39062 q 0.45312,-0.71875 1.21875,-1.15625 0.78125,-0.45312 1.76562,-0.45312 1.09375,0 1.79688,0.45312 0.70312,0.45313 0.98437,1.28125 1.17188,-1.73437 3.04688,-1.73437 1.46875,0 2.25,0.8125 0.79687,0.8125 0.79687,2.5 l 0,6.76562 -1.67187,0 0,-6.20312 q 0,-1 -0.15625,-1.4375 -0.15625,-0.45313 -0.59375,-0.71875 -0.42188,-0.26563 -1,-0.26563 -1.03125,0 -1.71875,0.6875 -0.6875,0.6875 -0.6875,2.21875 l 0,5.71875 -1.67188,0 0,-6.40625 q 0,-1.10937 -0.40625,-1.65625 -0.40625,-0.5625 -1.34375,-0.5625 -0.70312,0 -1.3125,0.375 -0.59375,0.35938 -0.85937,1.07813 -0.26563,0.71875 -0.26563,2.0625 l 0,5.10937 -1.67187,0 z m 24.3377,-5.95312 -9,3.85937 0,-1.65625 7.125,-2.96875 -7.125,-2.9375 0,-1.65625 9,3.8125 0,1.54688 z"
       id="path3257"
       inkscape:connector-curvature="0"
       style="fill:#000000;fill-rule:nonzero" />
  </g>
  <g
     id="messageB"
     inkscape:label="#g3428">
    <path
       style="fill:#000000;fill-opacity:0;fill-rule:nonzero"
       inkscape:connector-curvature="0"
       id="path3259"
       d="m 453.5013,67.39501 260.56693,0 0,48 -260.56693,0 z" />
    <path
       d="m 417.86615,84.76609 0,0 c 0,-27.614788 22.3862,-50.001 50.00098,-50.001 l 199.99799,0 0,0 c 13.2611,0 25.97906,5.267948 35.35608,14.644955 9.37701,9.377007 14.64496,22.09496 14.64496,35.356045 l 0,295.872 c 0,27.61478 -22.38623,50.00101 -50.00104,50.00101 l -199.99799,0 c -27.61478,0 -50.00098,-22.38623 -50.00098,-50.00101 z"
       id="path3149"
       inkscape:connector-curvature="0"
       style="stroke:#000000;stroke-width:2;stroke-linecap:butt;stroke-linejoin:round" />
    <path
       d="m 529.2848,58.950153 0,-9.859375 1.5,0 0,1.390625 q 0.45313,-0.71875 1.21875,-1.15625 0.78125,-0.453125 1.76563,-0.453125 1.09375,0 1.79687,0.453125 0.70313,0.453125 0.98438,1.28125 1.17187,-1.734375 3.04687,-1.734375 1.46875,0 2.25,0.8125 0.79688,0.8125 0.79688,2.5 l 0,6.765625 -1.67188,0 0,-6.203125 q 0,-1 -0.15625,-1.4375 -0.15625,-0.453125 -0.59375,-0.71875 -0.42187,-0.265625 -1,-0.265625 -1.03125,0 -1.71875,0.6875 -0.6875,0.6875 -0.6875,2.21875 l 0,5.71875 -1.67187,0 0,-6.40625 q 0,-1.109375 -0.40625,-1.65625 -0.40625,-0.5625 -1.34375,-0.5625 -0.70313,0 -1.3125,0.375 -0.59375,0.359375 -0.85938,1.078125 -0.26562,0.71875 -0.26562,2.0625 l 0,5.109375 -1.67188,0 z m 22.29077,-3.171875 1.71875,0.21875 q -0.40625,1.5 -1.51562,2.34375 -1.09375,0.828125 -2.8125,0.828125 -2.15625,0 -3.42188,-1.328125 -1.26562,-1.328125 -1.26562,-3.734375 0,-2.484375 1.26562,-3.859375 1.28125,-1.375 3.32813,-1.375 1.98437,0 3.23437,1.34375 1.25,1.34375 1.25,3.796875 0,0.140625 -0.0156,0.4375 l -7.34375,0 q 0.0937,1.625 0.92187,2.484375 0.82813,0.859375 2.0625,0.859375 0.90625,0 1.54688,-0.46875 0.65625,-0.484375 1.04687,-1.546875 z m -5.48437,-2.703125 5.5,0 q -0.10938,-1.234375 -0.625,-1.859375 -0.79688,-0.96875 -2.07813,-0.96875 -1.14062,0 -1.9375,0.78125 -0.78125,0.765625 -0.85937,2.046875 z m 8.43823,2.9375 1.65625,-0.265625 q 0.14062,1 0.76562,1.53125 0.64063,0.515625 1.78125,0.515625 1.15625,0 1.70313,-0.46875 0.5625,-0.46875 0.5625,-1.09375 0,-0.5625 -0.48438,-0.890625 -0.34375,-0.21875 -1.70312,-0.5625 -1.84375,-0.46875 -2.5625,-0.796875 -0.70313,-0.34375 -1.07813,-0.9375 -0.35937,-0.609375 -0.35937,-1.328125 0,-0.65625 0.29687,-1.21875 0.3125,-0.5625 0.82813,-0.9375 0.39062,-0.28125 1.0625,-0.484375 0.67187,-0.203125 1.4375,-0.203125 1.17187,0 2.04687,0.34375 0.875,0.328125 1.28125,0.90625 0.42188,0.5625 0.57813,1.515625 l -1.625,0.21875 q -0.10938,-0.75 -0.65625,-1.171875 -0.53125,-0.4375 -1.5,-0.4375 -1.15625,0 -1.64063,0.390625 -0.48437,0.375 -0.48437,0.875 0,0.328125 0.20312,0.59375 0.20313,0.265625 0.64063,0.4375 0.25,0.09375 1.46875,0.4375 1.76562,0.46875 2.46875,0.765625 0.70312,0.296875 1.09375,0.875 0.40625,0.578125 0.40625,1.4375 0,0.828125 -0.48438,1.578125 -0.48437,0.734375 -1.40625,1.140625 -0.92187,0.390625 -2.07812,0.390625 -1.92188,0 -2.9375,-0.796875 -1,-0.796875 -1.28125,-2.359375 z m 9.32812,0 1.65625,-0.265625 q 0.14063,1 0.76563,1.53125 0.64062,0.515625 1.78125,0.515625 1.15625,0 1.70312,-0.46875 0.5625,-0.46875 0.5625,-1.09375 0,-0.5625 -0.48437,-0.890625 -0.34375,-0.21875 -1.70313,-0.5625 -1.84375,-0.46875 -2.5625,-0.796875 -0.70312,-0.34375 -1.07812,-0.9375 -0.35938,-0.609375 -0.35938,-1.328125 0,-0.65625 0.29688,-1.21875 0.3125,-0.5625 0.82812,-0.9375 0.39063,-0.28125 1.0625,-0.484375 0.67188,-0.203125 1.4375,-0.203125 1.17188,0 2.04688,0.34375 0.875,0.328125 1.28125,0.90625 0.42187,0.5625 0.57812,1.515625 l -1.625,0.21875 q -0.10937,-0.75 -0.65625,-1.171875 -0.53125,-0.4375 -1.5,-0.4375 -1.15625,0 -1.64062,0.390625 -0.48438,0.375 -0.48438,0.875 0,0.328125 0.20313,0.59375 0.20312,0.265625 0.64062,0.4375 0.25,0.09375 1.46875,0.4375 1.76563,0.46875 2.46875,0.765625 0.70313,0.296875 1.09375,0.875 0.40625,0.578125 0.40625,1.4375 0,0.828125 -0.48437,1.578125 -0.48438,0.734375 -1.40625,1.140625 -0.92188,0.390625 -2.07813,0.390625 -1.92187,0 -2.9375,-0.796875 -1,-0.796875 -1.28125,-2.359375 z m 16.4375,1.71875 q -0.9375,0.796875 -1.79687,1.125 -0.85938,0.3125 -1.84375,0.3125 -1.60938,0 -2.48438,-0.78125 -0.875,-0.796875 -0.875,-2.03125 0,-0.734375 0.32813,-1.328125 0.32812,-0.59375 0.85937,-0.953125 0.53125,-0.359375 1.20313,-0.546875 0.5,-0.140625 1.48437,-0.25 2.03125,-0.25 2.98438,-0.578125 0,-0.34375 0,-0.4375 0,-1.015625 -0.46875,-1.4375 -0.64063,-0.5625 -1.90625,-0.5625 -1.17188,0 -1.73438,0.40625 -0.5625,0.40625 -0.82812,1.46875 l -1.64063,-0.234375 q 0.23438,-1.046875 0.73438,-1.6875 0.51562,-0.640625 1.46875,-0.984375 0.96875,-0.359375 2.25,-0.359375 1.26562,0 2.04687,0.296875 0.78125,0.296875 1.15625,0.75 0.375,0.453125 0.51563,1.140625 0.0937,0.421875 0.0937,1.53125 l 0,2.234375 q 0,2.328125 0.0937,2.953125 0.10937,0.609375 0.4375,1.171875 l -1.75,0 q -0.26563,-0.515625 -0.32813,-1.21875 z m -0.14062,-3.71875 q -0.90625,0.359375 -2.73438,0.625 -1.03125,0.140625 -1.45312,0.328125 -0.42188,0.1875 -0.65625,0.546875 -0.23438,0.359375 -0.23438,0.796875 0,0.671875 0.5,1.125 0.51563,0.4375 1.48438,0.4375 0.96875,0 1.71875,-0.421875 0.75,-0.4375 1.10937,-1.15625 0.26563,-0.578125 0.26563,-1.671875 l 0,-0.609375 z m 3.78198,5.75 1.60938,0.25 q 0.10937,0.75 0.57812,1.09375 0.60938,0.453125 1.6875,0.453125 1.17188,0 1.79688,-0.46875 0.625,-0.453125 0.85937,-1.28125 0.125,-0.515625 0.10938,-2.15625 -1.09375,1.296875 -2.71875,1.296875 -2.03125,0 -3.15625,-1.46875 -1.10938,-1.46875 -1.10938,-3.515625 0,-1.40625 0.51563,-2.59375 0.51562,-1.203125 1.48437,-1.84375 0.96875,-0.65625 2.26563,-0.65625 1.75,0 2.875,1.40625 l 0,-1.1875 1.54687,0 0,8.515625 q 0,2.3125 -0.46875,3.265625 -0.46875,0.96875 -1.48437,1.515625 -1.01563,0.5625 -2.5,0.5625 -1.76563,0 -2.85938,-0.796875 -1.07812,-0.796875 -1.03125,-2.390625 z m 1.375,-5.921875 q 0,1.953125 0.76563,2.84375 0.78125,0.890625 1.9375,0.890625 1.14062,0 1.92187,-0.890625 0.78125,-0.890625 0.78125,-2.78125 0,-1.8125 -0.8125,-2.71875 -0.79687,-0.921875 -1.92187,-0.921875 -1.10938,0 -1.89063,0.90625 -0.78125,0.890625 -0.78125,2.671875 z m 16.04755,1.9375 1.71875,0.21875 q -0.40625,1.5 -1.51563,2.34375 -1.09375,0.828125 -2.8125,0.828125 -2.15625,0 -3.42187,-1.328125 -1.26563,-1.328125 -1.26563,-3.734375 0,-2.484375 1.26563,-3.859375 1.28125,-1.375 3.32812,-1.375 1.98438,0 3.23438,1.34375 1.25,1.34375 1.25,3.796875 0,0.140625 -0.0156,0.4375 l -7.34375,0 q 0.0937,1.625 0.92188,2.484375 0.82812,0.859375 2.0625,0.859375 0.90625,0 1.54687,-0.46875 0.65625,-0.484375 1.04688,-1.546875 z m -5.48438,-2.703125 5.5,0 q -0.10937,-1.234375 -0.625,-1.859375 -0.79687,-0.96875 -2.07812,-0.96875 -1.14063,0 -1.9375,0.78125 -0.78125,0.765625 -0.85938,2.046875 z m 14.43402,5.875 0,-13.59375 5.10938,0 q 1.54687,0 2.48437,0.40625 0.95313,0.40625 1.48438,1.265625 0.53125,0.859375 0.53125,1.796875 0,0.875 -0.46875,1.65625 -0.46875,0.765625 -1.4375,1.234375 1.23437,0.359375 1.89062,1.234375 0.67188,0.875 0.67188,2.0625 0,0.953125 -0.40625,1.78125 -0.39063,0.8125 -0.98438,1.265625 -0.59375,0.4375 -1.5,0.671875 -0.89062,0.21875 -2.1875,0.21875 l -5.1875,0 z m 1.79688,-7.890625 2.9375,0 q 1.20312,0 1.71875,-0.15625 0.6875,-0.203125 1.03125,-0.671875 0.35937,-0.46875 0.35937,-1.1875 0,-0.671875 -0.32812,-1.1875 -0.32813,-0.515625 -0.9375,-0.703125 -0.59375,-0.203125 -2.0625,-0.203125 l -2.71875,0 0,4.109375 z m 0,6.28125 3.39062,0 q 0.875,0 1.21875,-0.0625 0.625,-0.109375 1.04688,-0.359375 0.42187,-0.265625 0.6875,-0.765625 0.26562,-0.5 0.26562,-1.140625 0,-0.765625 -0.39062,-1.328125 -0.39063,-0.5625 -1.07813,-0.78125 -0.6875,-0.234375 -1.98437,-0.234375 l -3.15625,0 0,4.671875 z"
       id="path3217"
       inkscape:connector-curvature="0"
       style="fill:#000000;fill-rule:nonzero" />
    <path
       d="m 464.0638,97.559074 0,-13.59375 9.17188,0 0,1.59375 -7.375,0 0,4.21875 6.375,0 0,1.609375 -6.375,0 0,6.171875 -1.79688,0 z m 11.3335,0 0,-13.59375 6.03125,0 q 1.8125,0 2.75,0.359375 0.95312,0.359375 1.51562,1.296875 0.5625,0.921875 0.5625,2.046875 0,1.453125 -0.9375,2.453125 -0.92187,0.984375 -2.89062,1.25 0.71875,0.34375 1.09375,0.671875 0.78125,0.734375 1.48437,1.8125 l 2.375,3.703125 -2.26562,0 -1.79688,-2.828125 q -0.79687,-1.21875 -1.3125,-1.875 -0.5,-0.65625 -0.90625,-0.90625 -0.40625,-0.265625 -0.8125,-0.359375 -0.3125,-0.07813 -1.01562,-0.07813 l -2.07813,0 0,6.046875 -1.79687,0 z m 1.79687,-7.59375 3.85938,0 q 1.23437,0 1.92187,-0.25 0.70313,-0.265625 1.0625,-0.828125 0.375,-0.5625 0.375,-1.21875 0,-0.96875 -0.70312,-1.578125 -0.70313,-0.625 -2.21875,-0.625 l -4.29688,0 0,4.5 z m 11.09793,0.96875 q 0,-3.390625 1.8125,-5.296875 1.82813,-1.921875 4.70313,-1.921875 1.875,0 3.39062,0.90625 1.51563,0.890625 2.29688,2.5 0.79687,1.609375 0.79687,3.65625 0,2.0625 -0.84375,3.703125 -0.82812,1.625 -2.35937,2.46875 -1.53125,0.84375 -3.29688,0.84375 -1.92187,0 -3.4375,-0.921875 -1.5,-0.9375 -2.28125,-2.53125 -0.78125,-1.609375 -0.78125,-3.40625 z m 1.85938,0.03125 q 0,2.453125 1.3125,3.875 1.32812,1.40625 3.3125,1.40625 2.03125,0 3.34375,-1.421875 1.3125,-1.4375 1.3125,-4.0625 0,-1.65625 -0.5625,-2.890625 -0.54688,-1.234375 -1.64063,-1.921875 -1.07812,-0.6875 -2.42187,-0.6875 -1.90625,0 -3.28125,1.3125 -1.375,1.3125 -1.375,4.390625 z m 13.13644,6.59375 0,-13.59375 2.71875,0 3.21875,9.625 q 0.4375,1.34375 0.64063,2.015625 0.23437,-0.75 0.73437,-2.1875 l 3.24997,-9.453125 2.42188,0 0,13.59375 -1.73438,0 0,-11.390625 -3.95309,11.390625 -1.625,0 -3.9375,-11.578125 0,11.578125 -1.73438,0 z m 15.8533,-7.953125 0,-1.90625 1.90625,0 0,1.90625 -1.90625,0 z m 0,7.953125 0,-1.90625 1.90625,0 0,1.90625 -1.90625,0 z m 9.69471,-5.953125 0,-1.546875 9,-3.8125 0,1.65625 -7.14063,2.9375 7.14063,2.96875 0,1.65625 -9,-3.859375 z m 19.89495,0 -9,3.859375 0,-1.65625 7.125,-2.96875 -7.125,-2.9375 0,-1.65625 9,3.8125 0,1.546875 z"
       id="path3261"
       inkscape:connector-curvature="0"
       style="fill:#000000;fill-rule:nonzero" />
  </g>
  <g
     id="bodyB"
     inkscape:label="#g3433">
    <path
       d="m 450.77692,231.85564 232.81891,0 0,125.92128 -232.81891,0 z"
       id="path3263"
       inkscape:connector-curvature="0"
       style="fill:#000000;fill-opacity:0;fill-rule:nonzero" />
    <path
       d="m 460.87067,268.80066 0.40625,-1.90625 1.89063,0 -0.40625,1.90625 -1.89063,0 z m 5.18329,0 0.40625,-1.90625 1.89062,0 -0.40625,1.90625 -1.89062,0 z m 5.18332,0 0.40625,-1.90625 1.89062,0 -0.40625,1.90625 -1.89062,0 z m 4.91766,0 2.84375,-13.59377 2.23438,0 1.375,8.81252 q 0.26562,1.73437 0.35937,3.32812 0.5625,-1.375 1.89063,-3.71875 l 4.76562,-8.42189 2.26563,0 -2.82813,13.59377 -1.79687,0 1.42187,-6.60938 q 0.48438,-2.29687 1.40625,-5.14062 -0.57812,1.32812 -1.4375,2.85937 l -5.07812,8.89063 -1.75,0 -1.35938,-8.71875 q -0.1875,-1.20313 -0.26562,-2.79688 -0.23438,1.79688 -0.45313,2.84375 l -1.8125,8.67188 -1.78125,0 z m 14.33768,0 7.70312,-13.59377 2.14063,0 2.25,13.59377 -1.76563,0 -0.65625,-3.92188 -5.5,0 -2.1875,3.92188 -1.98437,0 z m 4.95312,-5.3125 4.5,0 -0.53125,-3.42188 q -0.3125,-2.03125 -0.375,-3.375 -0.46875,1.15625 -1.35937,2.76563 l -2.23438,4.03125 z m 8.94358,5.3125 2.85937,-13.59377 1.8125,0 -2.84375,13.59377 -1.82812,0 z m 4.87082,0 2.82812,-13.59377 1.82813,0 -2.51563,12.04689 7.0625,0 -0.32812,1.54688 -8.875,0 z m 10.46948,0 2.84375,-13.59377 9.8125,0 -0.32813,1.5469 -7.98437,0 -0.89063,4.21875 7.78125,0 -0.32812,1.5625 -7.78125,0 -0.98438,4.71875 8.5625,0 -0.32812,1.54687 -10.375,0 z m 12.47479,0 2.84375,-13.59377 5.70312,0 q 1.70313,0 2.5625,0.28125 0.875,0.28125 1.375,1.06252 0.5,0.78125 0.5,1.96875 0,1.65625 -1.09375,2.75 -1.07812,1.09375 -3.5,1.42188 0.73438,0.54687 1.125,1.07812 0.84375,1.1875 1.35938,2.46875 l 1.04687,2.5625 -2.03125,0 -0.96875,-2.53125 q -0.53125,-1.375 -1.21875,-2.375 -0.45312,-0.70312 -0.9375,-0.92187 -0.48437,-0.21875 -1.5625,-0.21875 l -2.125,0 -1.26562,6.04687 -1.8125,0 z m 3.39062,-7.51563 2.51563,0 q 1.73437,0 2.26562,-0.0469 1.03125,-0.0937 1.6875,-0.45313 0.65625,-0.375 1.01563,-0.98437 0.375,-0.60938 0.375,-1.3125 0,-0.59375 -0.28125,-1.03125 -0.26563,-0.45313 -0.70313,-0.60938 -0.4375,-0.15625 -1.48437,-0.15625 l -4.4375,0 -0.95313,4.59375 z m 10.06672,3.4375 0.35937,-1.6875 5.125,0 -0.34375,1.6875 -5.14062,0 z m 6.18139,4.07813 2.84375,-13.59377 4.09375,0 q 1.48438,0 2.25,0.20313 1.125,0.29687 1.90625,1.03127 0.79688,0.73437 1.1875,1.84375 0.40625,1.09375 0.40625,2.46875 0,1.64062 -0.5,3 -0.5,1.34375 -1.3125,2.375 -0.79687,1.01562 -1.67187,1.60937 -0.875,0.57813 -2.0625,0.84375 -0.92188,0.21875 -2.23438,0.21875 l -4.90625,0 z m 2.14063,-1.54688 2.15625,0 q 1.45312,0 2.59375,-0.26562 0.70312,-0.15625 1.20312,-0.48438 0.65625,-0.42187 1.1875,-1.10937 0.71875,-0.90625 1.14063,-2.0625 0.42187,-1.17188 0.42187,-2.65625 0,-1.65625 -0.57812,-2.53125 -0.57813,-0.89063 -1.46875,-1.1875 -0.65625,-0.20313 -2.04688,-0.20313 l -2.40625,0 -2.20312,10.5 z m 10.11358,1.54688 7.70313,-13.59377 2.14062,0 2.25,13.59377 -1.76562,0 -0.65625,-3.92188 -5.5,0 -2.1875,3.92188 -1.98438,0 z m 4.95313,-5.3125 4.5,0 -0.53125,-3.42188 q -0.3125,-2.03125 -0.375,-3.375 -0.46875,1.15625 -1.35938,2.76563 l -2.23437,4.03125 z m 8.72485,5.3125 2.84375,-13.59377 9.8125,0 -0.32812,1.5469 -7.98438,0 -0.89062,4.21875 7.78125,0 -0.32813,1.5625 -7.78125,0 -0.98437,4.71875 8.5625,0 -0.32813,1.54687 -10.375,0 z m 12.41229,0 2.84375,-13.59377 2.23438,0 1.375,8.81252 q 0.26562,1.73437 0.35937,3.32812 0.5625,-1.375 1.89063,-3.71875 l 4.76562,-8.42189 2.26563,0 -2.82813,13.59377 -1.79687,0 1.42187,-6.60938 q 0.48438,-2.29687 1.40625,-5.14062 -0.57812,1.32812 -1.4375,2.85937 l -5.07812,8.89063 -1.75,0 -1.35938,-8.71875 q -0.1875,-1.20313 -0.26562,-2.79688 -0.23438,1.79688 -0.45313,2.84375 l -1.8125,8.67188 -1.78125,0 z m 16.44709,-5.70313 q 0,-3.625 2.09375,-5.875 2.10937,-2.25001 5.10937,-2.25001 2.53125,0 4.125,1.65626 1.60938,1.65625 1.60938,4.4375 0,1.98438 -0.79688,3.6875 -0.60937,1.26563 -1.53125,2.1875 -0.90625,0.92188 -1.96875,1.42188 -1.39062,0.67187 -2.9375,0.67187 -1.64062,0 -2.98437,-0.78125 -1.32813,-0.78125 -2.03125,-2.17187 -0.6875,-1.40625 -0.6875,-2.98438 z m 1.79687,0.0937 q 0,1.20313 0.48438,2.20313 0.5,1 1.48437,1.57812 0.98438,0.5625 2.07813,0.5625 1.04687,0 1.98437,-0.5 0.95313,-0.5 1.6875,-1.375 0.75,-0.89062 1.1875,-2.1875 0.4375,-1.29687 0.4375,-2.54687 0,-2.03125 -1.14062,-3.23438 -1.14063,-1.21875 -2.8125,-1.21875 -2.125,0 -3.76563,1.82813 -1.625,1.82812 -1.625,4.89062 z m 11.90204,5.60938 2.85938,-13.59377 1.75,0 2.29687,5.09377 q 1.04688,2.34375 1.65625,3.9375 0.35938,0.92188 0.82813,2.5 0.25,-1.71875 0.625,-3.54687 l 1.67187,-7.9844 1.76563,0 -2.82813,13.59377 -1.8125,0 -3.375,-7.85938 q -0.89062,-2.07812 -1.39062,-3.65625 -0.14063,1.3125 -0.54688,3.25 l -1.71875,8.26563 -1.78125,0 z m 13.64484,0 0.40625,-1.90625 1.89062,0 -0.40625,1.90625 -1.89062,0 z m 5.18329,0 0.40625,-1.90625 1.89062,0 -0.40625,1.90625 -1.89062,0 z m 5.18328,0 0.40625,-1.90625 1.89063,0 -0.40625,1.90625 -1.89063,0 z"
       id="path3265"
       inkscape:connector-curvature="0"
       style="fill:#000000;fill-rule:nonzero" />
    <path
       d="m 460.66754,290.25378 2.84375,-13.59375 5.70312,0 q 1.70313,0 2.5625,0.28125 0.875,0.28125 1.375,1.0625 0.5,0.78125 0.5,1.96875 0,1.65625 -1.09375,2.75 -1.07812,1.09375 -3.5,1.42187 0.73438,0.54688 1.125,1.07813 0.84375,1.1875 1.35938,2.46875 l 1.04687,2.5625 -2.03125,0 -0.96875,-2.53125 q -0.53125,-1.375 -1.21875,-2.375 -0.45312,-0.70313 -0.9375,-0.92188 -0.48437,-0.21875 -1.5625,-0.21875 l -2.125,0 -1.26562,6.04688 -1.8125,0 z m 3.39062,-7.51563 2.51563,0 q 1.73437,0 2.26562,-0.0469 1.03125,-0.0937 1.6875,-0.45313 0.65625,-0.375 1.01563,-0.98437 0.375,-0.60938 0.375,-1.3125 0,-0.59375 -0.28125,-1.03125 -0.26563,-0.45313 -0.70313,-0.60938 -0.4375,-0.15625 -1.48437,-0.15625 l -4.4375,0 -0.95313,4.59375 z m 20.64481,2.73438 1.79688,0.25 q -0.84375,2.34375 -2.48438,3.5625 -1.625,1.20312 -3.65625,1.20312 -2.48437,0 -3.9375,-1.51562 -1.45312,-1.51563 -1.45312,-4.32813 0,-3.67187 2.21875,-6.07812 1.96875,-2.14063 4.89062,-2.14063 2.15625,0 3.5,1.15625 1.34375,1.15625 1.54688,3.10938 l -1.6875,0.17187 q -0.28125,-1.48437 -1.125,-2.20312 -0.82813,-0.73438 -2.15625,-0.73438 -2.5,0 -4.03125,2.21875 -1.34375,1.90625 -1.34375,4.53125 0,2.09375 1.03125,3.20313 1.03125,1.10937 2.6875,1.10937 1.40625,0 2.54687,-0.92187 1.14063,-0.92188 1.65625,-2.59375 z m 2.83234,4.78125 2.85937,-13.59375 5.67188,0 q 1.46875,0 2.20312,0.34375 0.75,0.32812 1.21875,1.15625 0.48438,0.8125 0.48438,1.82812 0,0.84375 -0.34375,1.71875 -0.32813,0.875 -0.85938,1.4375 -0.53125,0.5625 -1.0625,0.85938 -0.53125,0.28125 -1.15625,0.42187 -1.29687,0.3125 -2.64062,0.3125 l -3.40625,0 -1.14063,5.51563 -1.82812,0 z m 3.29687,-7.0625 3,0 q 1.73438,0 2.54688,-0.375 0.82812,-0.375 1.3125,-1.14063 0.5,-0.78125 0.5,-1.64062 0,-0.65625 -0.26563,-1.07813 -0.25,-0.4375 -0.73437,-0.625 -0.46875,-0.20312 -1.8125,-0.20312 l -3.48438,0 -1.0625,5.0625 z m 12.6467,7.0625 2.51563,-12.04688 -4.46875,0 0.32812,-1.54687 10.70313,0 -0.3125,1.54687 -4.4375,0 -2.51563,12.04688 -1.8125,0 z m 11.66162,0 2.14063,-10.26563 q -1.39063,1.09375 -3.90625,1.75 l 0.3125,-1.51562 q 1.25,-0.51563 2.46875,-1.3125 1.21875,-0.8125 1.84375,-1.40625 0.35937,-0.375 0.70312,-0.90625 l 0.96875,0 -2.84375,13.65625 -1.6875,0 z m 8.54755,-7.95313 0.39062,-1.90625 1.89063,0 -0.39063,1.90625 -1.89062,0 z m -1.67188,7.95313 0.40625,-1.90625 1.90625,0 -0.40625,1.90625 -1.90625,0 z m 10.17914,0 2.84375,-13.59375 5.70313,0 q 1.70312,0 2.5625,0.28125 0.875,0.28125 1.375,1.0625 0.5,0.78125 0.5,1.96875 0,1.65625 -1.09375,2.75 -1.07813,1.09375 -3.5,1.42187 0.73437,0.54688 1.125,1.07813 0.84375,1.1875 1.35937,2.46875 l 1.04688,2.5625 -2.03125,0 -0.96875,-2.53125 q -0.53125,-1.375 -1.21875,-2.375 -0.45313,-0.70313 -0.9375,-0.92188 -0.48438,-0.21875 -1.5625,-0.21875 l -2.125,0 -1.26563,6.04688 -1.8125,0 z m 3.39063,-7.51563 2.51562,0 q 1.73438,0 2.26563,-0.0469 1.03125,-0.0937 1.6875,-0.45313 0.65625,-0.375 1.01562,-0.98437 0.375,-0.60938 0.375,-1.3125 0,-0.59375 -0.28125,-1.03125 -0.26562,-0.45313 -0.70312,-0.60938 -0.4375,-0.15625 -1.48438,-0.15625 l -4.4375,0 -0.95312,4.59375 z m 17.06671,4.17188 1.625,0.15625 q -0.35938,1.21875 -1.625,2.3125 -1.26563,1.09375 -3.01563,1.09375 -1.09375,0 -2.01562,-0.5 -0.90625,-0.5 -1.39063,-1.46875 -0.46875,-0.96875 -0.46875,-2.20313 0,-1.60937 0.75,-3.125 0.75,-1.51562 1.9375,-2.25 1.1875,-0.75 2.5625,-0.75 1.76563,0 2.8125,1.09375 1.0625,1.09375 1.0625,2.98438 0,0.73437 -0.14062,1.48437 l -7.25,0 q -0.0312,0.29688 -0.0312,0.53125 0,1.375 0.625,2.10938 0.64062,0.71875 1.5625,0.71875 0.85937,0 1.6875,-0.5625 0.84375,-0.5625 1.3125,-1.625 z m -4.89063,-2.45313 5.53125,0 q 0.0156,-0.25 0.0156,-0.35937 0,-1.26563 -0.64063,-1.9375 -0.625,-0.67188 -1.625,-0.67188 -1.0625,0 -1.95312,0.75 -0.89063,0.73438 -1.32813,2.21875 z m 14.67255,4.57813 q -0.875,0.75 -1.6875,1.09375 -0.8125,0.34375 -1.71875,0.34375 -1.375,0 -2.21875,-0.79688 -0.82813,-0.79687 -0.82813,-2.0625 0,-0.8125 0.375,-1.45312 0.39063,-0.64063 1,-1.01563 0.625,-0.39062 1.53125,-0.5625 0.5625,-0.10937 2.14063,-0.17187 1.57812,-0.0625 2.26562,-0.32813 0.20313,-0.6875 0.20313,-1.14062 0,-0.59375 -0.4375,-0.92188 -0.57813,-0.46875 -1.70313,-0.46875 -1.04687,0 -1.73437,0.46875 -0.67188,0.46875 -0.96875,1.32813 l -1.70313,-0.14063 q 0.51563,-1.46875 1.64063,-2.25 1.14062,-0.78125 2.85937,-0.78125 1.82813,0 2.89063,0.875 0.8125,0.65625 0.8125,1.6875 0,0.79688 -0.23438,1.82813 l -0.54687,2.45312 q -0.25,1.17188 -0.25,1.89063 0,0.46875 0.20312,1.34375 l -1.70312,0 q -0.14063,-0.48438 -0.1875,-1.21875 z m 0.60937,-3.76563 q -0.34375,0.125 -0.75,0.20313 -0.40625,0.0781 -1.34375,0.15625 -1.46875,0.14062 -2.07812,0.34375 -0.59375,0.1875 -0.90625,0.625 -0.3125,0.4375 -0.3125,0.96875 0,0.70312 0.48437,1.15625 0.5,0.45312 1.39063,0.45312 0.84375,0 1.60937,-0.4375 0.76563,-0.4375 1.20313,-1.21875 0.45312,-0.79687 0.70312,-2.25 z m 3.26636,1.60938 1.6875,-0.0937 q 0,0.71875 0.21875,1.23437 0.21875,0.51563 0.8125,0.84375 0.60937,0.3125 1.40625,0.3125 1.10937,0 1.67187,-0.4375 0.5625,-0.45312 0.5625,-1.04687 0,-0.4375 -0.34375,-0.82813 -0.34375,-0.39062 -1.67187,-0.95312 -1.32813,-0.57813 -1.70313,-0.8125 -0.625,-0.375 -0.9375,-0.89063 -0.3125,-0.51562 -0.3125,-1.1875 0,-1.17187 0.92188,-2 0.9375,-0.84375 2.60937,-0.84375 1.84375,0 2.8125,0.85938 0.96875,0.85937 1.01563,2.26562 l -1.64063,0.10938 q -0.0469,-0.89063 -0.64062,-1.40625 -0.59375,-0.53125 -1.67188,-0.53125 -0.875,0 -1.35937,0.40625 -0.48438,0.39062 -0.48438,0.85937 0,0.46875 0.42188,0.8125 0.28125,0.25 1.4375,0.75 1.9375,0.82813 2.4375,1.3125 0.79687,0.76563 0.79687,1.875 0,0.73438 -0.45312,1.4375 -0.45313,0.70313 -1.375,1.125 -0.92188,0.42188 -2.17188,0.42188 -1.70312,0 -2.90625,-0.84375 -1.20312,-0.84375 -1.14062,-2.75 z m 9.46875,-0.35938 q 0,-2.89062 1.70312,-4.78125 1.40625,-1.5625 3.67188,-1.5625 1.78125,0 2.875,1.125 1.09375,1.10938 1.09375,3 0,1.6875 -0.6875,3.15625 -0.6875,1.45313 -1.95313,2.23438 -1.26562,0.78125 -2.67187,0.78125 -1.15625,0 -2.09375,-0.48438 -0.9375,-0.5 -1.4375,-1.39062 -0.5,-0.90625 -0.5,-2.07813 z m 1.6875,-0.17187 q 0,1.39062 0.65625,2.10937 0.67187,0.71875 1.70312,0.71875 0.54688,0 1.0625,-0.21875 0.53125,-0.21875 0.98438,-0.65625 0.46875,-0.45312 0.78125,-1.01562 0.32812,-0.57813 0.51562,-1.23438 0.28125,-0.92187 0.28125,-1.76562 0,-1.32813 -0.67187,-2.0625 -0.67188,-0.75 -1.6875,-0.75 -0.78125,0 -1.4375,0.375 -0.65625,0.375 -1.1875,1.10937 -0.51563,0.71875 -0.76563,1.6875 -0.23437,0.95313 -0.23437,1.70313 z m 8.39136,3.90625 2.0625,-9.85938 1.53125,0 -0.375,1.71875 q 1,-1 1.85937,-1.46875 0.85938,-0.46875 1.76563,-0.46875 1.20312,0 1.875,0.65625 0.6875,0.64063 0.6875,1.73438 0,0.54687 -0.25,1.71875 l -1.25,5.96875 -1.67188,0 1.3125,-6.25 q 0.1875,-0.90625 0.1875,-1.34375 0,-0.48438 -0.34375,-0.78125 -0.32812,-0.3125 -0.96875,-0.3125 -1.29687,0 -2.3125,0.92187 -1,0.92188 -1.46875,3.1875 l -0.95312,4.57813 -1.6875,0 z m 19.51214,0 2.14063,-10.26563 q -1.39063,1.09375 -3.90625,1.75 l 0.3125,-1.51562 q 1.25,-0.51563 2.46875,-1.3125 1.21875,-0.8125 1.84375,-1.40625 0.35937,-0.375 0.70312,-0.90625 l 0.96875,0 -2.84375,13.65625 -1.6875,0 z"
       id="path3267"
       inkscape:connector-curvature="0"
       style="fill:#000000;fill-rule:nonzero" />
    <path
       d="m 460.66754,311.7069 2.84375,-13.59375 5.70312,0 q 1.70313,0 2.5625,0.28125 0.875,0.28125 1.375,1.0625 0.5,0.78125 0.5,1.96875 0,1.65625 -1.09375,2.75 -1.07812,1.09375 -3.5,1.42188 0.73438,0.54687 1.125,1.07812 0.84375,1.1875 1.35938,2.46875 l 1.04687,2.5625 -2.03125,0 -0.96875,-2.53125 q -0.53125,-1.375 -1.21875,-2.375 -0.45312,-0.70312 -0.9375,-0.92187 -0.48437,-0.21875 -1.5625,-0.21875 l -2.125,0 -1.26562,6.04687 -1.8125,0 z m 3.39062,-7.51562 2.51563,0 q 1.73437,0 2.26562,-0.0469 1.03125,-0.0937 1.6875,-0.45312 0.65625,-0.375 1.01563,-0.98438 0.375,-0.60937 0.375,-1.3125 0,-0.59375 -0.28125,-1.03125 -0.26563,-0.45312 -0.70313,-0.60937 -0.4375,-0.15625 -1.48437,-0.15625 l -4.4375,0 -0.95313,4.59375 z m 20.64481,2.73437 1.79688,0.25 q -0.84375,2.34375 -2.48438,3.5625 -1.625,1.20313 -3.65625,1.20313 -2.48437,0 -3.9375,-1.51563 -1.45312,-1.51562 -1.45312,-4.32812 0,-3.67188 2.21875,-6.07813 1.96875,-2.14062 4.89062,-2.14062 2.15625,0 3.5,1.15625 1.34375,1.15625 1.54688,3.10937 l -1.6875,0.17188 q -0.28125,-1.48438 -1.125,-2.20313 -0.82813,-0.73437 -2.15625,-0.73437 -2.5,0 -4.03125,2.21875 -1.34375,1.90625 -1.34375,4.53125 0,2.09375 1.03125,3.20312 1.03125,1.10938 2.6875,1.10938 1.40625,0 2.54687,-0.92188 1.14063,-0.92187 1.65625,-2.59375 z m 2.83234,4.78125 2.85937,-13.59375 5.67188,0 q 1.46875,0 2.20312,0.34375 0.75,0.32813 1.21875,1.15625 0.48438,0.8125 0.48438,1.82813 0,0.84375 -0.34375,1.71875 -0.32813,0.875 -0.85938,1.4375 -0.53125,0.5625 -1.0625,0.85937 -0.53125,0.28125 -1.15625,0.42188 -1.29687,0.3125 -2.64062,0.3125 l -3.40625,0 -1.14063,5.51562 -1.82812,0 z m 3.29687,-7.0625 3,0 q 1.73438,0 2.54688,-0.375 0.82812,-0.375 1.3125,-1.14062 0.5,-0.78125 0.5,-1.64063 0,-0.65625 -0.26563,-1.07812 -0.25,-0.4375 -0.73437,-0.625 -0.46875,-0.20313 -1.8125,-0.20313 l -3.48438,0 -1.0625,5.0625 z m 12.6467,7.0625 2.51563,-12.04687 -4.46875,0 0.32812,-1.54688 10.70313,0 -0.3125,1.54688 -4.4375,0 -2.51563,12.04687 -1.8125,0 z m 8.19284,0 q 0.26563,-1.21875 0.71878,-2.03125 0.46875,-0.82812 1.21875,-1.5625 0.76563,-0.73437 2.9375,-2.46875 1.3125,-1.04687 1.79688,-1.54687 0.70312,-0.73438 1.01562,-1.42188 0.21875,-0.48437 0.21875,-1.03125 0,-0.9375 -0.67187,-1.59375 -0.65625,-0.65625 -1.625,-0.65625 -0.95313,0 -1.67188,0.67188 -0.71875,0.65625 -1.01562,2.125 l -1.64063,-0.25 q 0.23438,-1.79688 1.39063,-2.84375 1.17187,-1.04688 2.90625,-1.04688 1.15625,0 2.09375,0.48438 0.95312,0.48437 1.42187,1.35937 0.46875,0.85938 0.46875,1.79688 0,1.34375 -0.95312,2.60937 -0.59375,0.76563 -3.5,3.0625 -1.23438,0.98438 -1.84375,1.625 -0.60938,0.625 -0.92188,1.17188 l 6.09375,0 -0.32812,1.54687 -8.10941,0 z m 12.01633,-7.95312 0.39062,-1.90625 1.89063,0 -0.39063,1.90625 -1.89062,0 z m -1.67188,7.95312 0.40625,-1.90625 1.90625,0 -0.40625,1.90625 -1.90625,0 z m 10.17914,0 2.84375,-13.59375 5.70313,0 q 1.70312,0 2.5625,0.28125 0.875,0.28125 1.375,1.0625 0.5,0.78125 0.5,1.96875 0,1.65625 -1.09375,2.75 -1.07813,1.09375 -3.5,1.42188 0.73437,0.54687 1.125,1.07812 0.84375,1.1875 1.35937,2.46875 l 1.04688,2.5625 -2.03125,0 -0.96875,-2.53125 q -0.53125,-1.375 -1.21875,-2.375 -0.45313,-0.70312 -0.9375,-0.92187 -0.48438,-0.21875 -1.5625,-0.21875 l -2.125,0 -1.26563,6.04687 -1.8125,0 z m 3.39063,-7.51562 2.51562,0 q 1.73438,0 2.26563,-0.0469 1.03125,-0.0937 1.6875,-0.45312 0.65625,-0.375 1.01562,-0.98438 0.375,-0.60937 0.375,-1.3125 0,-0.59375 -0.28125,-1.03125 -0.26562,-0.45312 -0.70312,-0.60937 -0.4375,-0.15625 -1.48438,-0.15625 l -4.4375,0 -0.95312,4.59375 z m 17.06671,4.17187 1.625,0.15625 q -0.35938,1.21875 -1.625,2.3125 -1.26563,1.09375 -3.01563,1.09375 -1.09375,0 -2.01562,-0.5 -0.90625,-0.5 -1.39063,-1.46875 -0.46875,-0.96875 -0.46875,-2.20312 0,-1.60938 0.75,-3.125 0.75,-1.51563 1.9375,-2.25 1.1875,-0.75 2.5625,-0.75 1.76563,0 2.8125,1.09375 1.0625,1.09375 1.0625,2.98437 0,0.73438 -0.14062,1.48438 l -7.25,0 q -0.0312,0.29687 -0.0312,0.53125 0,1.375 0.625,2.10937 0.64062,0.71875 1.5625,0.71875 0.85937,0 1.6875,-0.5625 0.84375,-0.5625 1.3125,-1.625 z m -4.89063,-2.45312 5.53125,0 q 0.0156,-0.25 0.0156,-0.35938 0,-1.26562 -0.64063,-1.9375 -0.625,-0.67187 -1.625,-0.67187 -1.0625,0 -1.95312,0.75 -0.89063,0.73437 -1.32813,2.21875 z m 14.67255,4.57812 q -0.875,0.75 -1.6875,1.09375 -0.8125,0.34375 -1.71875,0.34375 -1.375,0 -2.21875,-0.79687 -0.82813,-0.79688 -0.82813,-2.0625 0,-0.8125 0.375,-1.45313 0.39063,-0.64062 1,-1.01562 0.625,-0.39063 1.53125,-0.5625 0.5625,-0.10938 2.14063,-0.17188 1.57812,-0.0625 2.26562,-0.32812 0.20313,-0.6875 0.20313,-1.14063 0,-0.59375 -0.4375,-0.92187 -0.57813,-0.46875 -1.70313,-0.46875 -1.04687,0 -1.73437,0.46875 -0.67188,0.46875 -0.96875,1.32812 l -1.70313,-0.14062 q 0.51563,-1.46875 1.64063,-2.25 1.14062,-0.78125 2.85937,-0.78125 1.82813,0 2.89063,0.875 0.8125,0.65625 0.8125,1.6875 0,0.79687 -0.23438,1.82812 l -0.54687,2.45313 q -0.25,1.17187 -0.25,1.89062 0,0.46875 0.20312,1.34375 l -1.70312,0 q -0.14063,-0.48437 -0.1875,-1.21875 z m 0.60937,-3.76562 q -0.34375,0.125 -0.75,0.20312 -0.40625,0.0781 -1.34375,0.15625 -1.46875,0.14063 -2.07812,0.34375 -0.59375,0.1875 -0.90625,0.625 -0.3125,0.4375 -0.3125,0.96875 0,0.70313 0.48437,1.15625 0.5,0.45313 1.39063,0.45313 0.84375,0 1.60937,-0.4375 0.76563,-0.4375 1.20313,-1.21875 0.45312,-0.79688 0.70312,-2.25 z m 3.26636,1.60937 1.6875,-0.0937 q 0,0.71875 0.21875,1.23438 0.21875,0.51562 0.8125,0.84375 0.60938,0.3125 1.40625,0.3125 1.10938,0 1.67188,-0.4375 0.5625,-0.45313 0.5625,-1.04688 0,-0.4375 -0.34375,-0.82812 -0.34375,-0.39063 -1.67188,-0.95313 -1.32812,-0.57812 -1.70312,-0.8125 -0.625,-0.375 -0.9375,-0.89062 -0.3125,-0.51563 -0.3125,-1.1875 0,-1.17188 0.92187,-2 0.9375,-0.84375 2.60938,-0.84375 1.84375,0 2.8125,0.85937 0.96875,0.85938 1.01562,2.26563 l -1.64062,0.10937 q -0.0469,-0.89062 -0.64063,-1.40625 -0.59375,-0.53125 -1.67187,-0.53125 -0.875,0 -1.35938,0.40625 -0.48437,0.39063 -0.48437,0.85938 0,0.46875 0.42187,0.8125 0.28125,0.25 1.4375,0.75 1.9375,0.82812 2.4375,1.3125 0.79688,0.76562 0.79688,1.875 0,0.73437 -0.45313,1.4375 -0.45312,0.70312 -1.375,1.125 -0.92187,0.42187 -2.17187,0.42187 -1.70313,0 -2.90625,-0.84375 -1.20313,-0.84375 -1.14063,-2.75 z m 9.46875,-0.35937 q 0,-2.89063 1.70313,-4.78125 1.40625,-1.5625 3.67187,-1.5625 1.78125,0 2.875,1.125 1.09375,1.10937 1.09375,3 0,1.6875 -0.6875,3.15625 -0.6875,1.45312 -1.95312,2.23437 -1.26563,0.78125 -2.67188,0.78125 -1.15625,0 -2.09375,-0.48437 -0.9375,-0.5 -1.4375,-1.39063 -0.5,-0.90625 -0.5,-2.07812 z m 1.6875,-0.17188 q 0,1.39063 0.65625,2.10938 0.67188,0.71875 1.70313,0.71875 0.54687,0 1.0625,-0.21875 0.53125,-0.21875 0.98437,-0.65625 0.46875,-0.45313 0.78125,-1.01563 0.32813,-0.57812 0.51563,-1.23437 0.28125,-0.92188 0.28125,-1.76563 0,-1.32812 -0.67188,-2.0625 -0.67187,-0.75 -1.6875,-0.75 -0.78125,0 -1.4375,0.375 -0.65625,0.375 -1.1875,1.10938 -0.51562,0.71875 -0.76562,1.6875 -0.23438,0.95312 -0.23438,1.70312 z m 8.39136,3.90625 2.0625,-9.85937 1.53125,0 -0.375,1.71875 q 1,-1 1.85937,-1.46875 0.85938,-0.46875 1.76563,-0.46875 1.20312,0 1.875,0.65625 0.6875,0.64062 0.6875,1.73437 0,0.54688 -0.25,1.71875 l -1.25,5.96875 -1.67188,0 1.3125,-6.25 q 0.1875,-0.90625 0.1875,-1.34375 0,-0.48437 -0.34375,-0.78125 -0.32812,-0.3125 -0.96875,-0.3125 -1.29687,0 -2.3125,0.92188 -1,0.92187 -1.46875,3.1875 l -0.95312,4.57812 -1.6875,0 z m 16.04339,0 q 0.26563,-1.21875 0.71875,-2.03125 0.46875,-0.82812 1.21875,-1.5625 0.76563,-0.73437 2.9375,-2.46875 1.3125,-1.04687 1.79688,-1.54687 0.70312,-0.73438 1.01562,-1.42188 0.21875,-0.48437 0.21875,-1.03125 0,-0.9375 -0.67187,-1.59375 -0.65625,-0.65625 -1.625,-0.65625 -0.95313,0 -1.67188,0.67188 -0.71875,0.65625 -1.01562,2.125 l -1.64063,-0.25 q 0.23438,-1.79688 1.39063,-2.84375 1.17187,-1.04688 2.90625,-1.04688 1.15625,0 2.09375,0.48438 0.95312,0.48437 1.42187,1.35937 0.46875,0.85938 0.46875,1.79688 0,1.34375 -0.95312,2.60937 -0.59375,0.76563 -3.5,3.0625 -1.23438,0.98438 -1.84375,1.625 -0.60938,0.625 -0.92188,1.17188 l 6.09375,0 -0.32812,1.54687 -8.10938,0 z"
       id="path3269"
       inkscape:connector-curvature="0"
       style="fill:#000000;fill-rule:nonzero" />
    <path
       d="m 460.60504,333.16003 2.84375,-13.59375 2.23437,0 1.375,8.8125 q 0.26563,1.73437 0.35938,3.32812 0.5625,-1.375 1.89062,-3.71875 l 4.76563,-8.42187 2.26562,0 -2.82812,13.59375 -1.79688,0 1.42188,-6.60938 q 0.48437,-2.29687 1.40625,-5.14062 -0.57813,1.32812 -1.4375,2.85937 l -5.07813,8.89063 -1.75,0 -1.35937,-8.71875 q -0.1875,-1.20313 -0.26563,-2.79688 -0.23437,1.79688 -0.45312,2.84375 l -1.8125,8.67188 -1.78125,0 z m 22.58768,-3.34375 1.625,0.15625 q -0.35938,1.21875 -1.625,2.3125 -1.26563,1.09375 -3.01563,1.09375 -1.09375,0 -2.01562,-0.5 -0.90625,-0.5 -1.39063,-1.46875 -0.46875,-0.96875 -0.46875,-2.20313 0,-1.60937 0.75,-3.125 0.75,-1.51562 1.9375,-2.25 1.1875,-0.75 2.5625,-0.75 1.76563,0 2.8125,1.09375 1.0625,1.09375 1.0625,2.98438 0,0.73437 -0.14062,1.48437 l -7.25,0 q -0.0312,0.29688 -0.0312,0.53125 0,1.375 0.625,2.10938 0.64062,0.71875 1.5625,0.71875 0.85937,0 1.6875,-0.5625 0.84375,-0.5625 1.3125,-1.625 z m -4.89063,-2.45313 5.53125,0 q 0.0156,-0.25 0.0156,-0.35937 0,-1.26563 -0.64063,-1.9375 -0.625,-0.67188 -1.625,-0.67188 -1.0625,0 -1.95312,0.75 -0.89063,0.73438 -1.32813,2.21875 z m 8.17258,2.42188 1.6875,-0.0937 q 0,0.71875 0.21875,1.23437 0.21875,0.51563 0.8125,0.84375 0.60937,0.3125 1.40625,0.3125 1.10937,0 1.67187,-0.4375 0.5625,-0.45312 0.5625,-1.04687 0,-0.4375 -0.34375,-0.82813 -0.34375,-0.39062 -1.67187,-0.95312 -1.32813,-0.57813 -1.70313,-0.8125 -0.625,-0.375 -0.9375,-0.89063 -0.3125,-0.51562 -0.3125,-1.1875 0,-1.17187 0.92188,-2 0.9375,-0.84375 2.60937,-0.84375 1.84375,0 2.8125,0.85938 0.96875,0.85937 1.01563,2.26562 l -1.64063,0.10938 q -0.0469,-0.89063 -0.64062,-1.40625 -0.59375,-0.53125 -1.67188,-0.53125 -0.875,0 -1.35937,0.40625 -0.48438,0.39062 -0.48438,0.85937 0,0.46875 0.42188,0.8125 0.28125,0.25 1.4375,0.75 1.9375,0.82813 2.4375,1.3125 0.79687,0.76563 0.79687,1.875 0,0.73438 -0.45312,1.4375 -0.45313,0.70313 -1.375,1.125 -0.92188,0.42188 -2.17188,0.42188 -1.70312,0 -2.90625,-0.84375 -1.20312,-0.84375 -1.14062,-2.75 z m 9.32812,0 1.6875,-0.0937 q 0,0.71875 0.21875,1.23437 0.21875,0.51563 0.8125,0.84375 0.60938,0.3125 1.40625,0.3125 1.10938,0 1.67188,-0.4375 0.5625,-0.45312 0.5625,-1.04687 0,-0.4375 -0.34375,-0.82813 -0.34375,-0.39062 -1.67188,-0.95312 -1.32812,-0.57813 -1.70312,-0.8125 -0.625,-0.375 -0.9375,-0.89063 -0.3125,-0.51562 -0.3125,-1.1875 0,-1.17187 0.92187,-2 0.9375,-0.84375 2.60938,-0.84375 1.84375,0 2.8125,0.85938 0.96875,0.85937 1.01562,2.26562 l -1.64062,0.10938 q -0.0469,-0.89063 -0.64063,-1.40625 -0.59375,-0.53125 -1.67187,-0.53125 -0.875,0 -1.35938,0.40625 -0.48437,0.39062 -0.48437,0.85937 0,0.46875 0.42187,0.8125 0.28125,0.25 1.4375,0.75 1.9375,0.82813 2.4375,1.3125 0.79688,0.76563 0.79688,1.875 0,0.73438 -0.45313,1.4375 -0.45312,0.70313 -1.375,1.125 -0.92187,0.42188 -2.17187,0.42188 -1.70313,0 -2.90625,-0.84375 -1.20313,-0.84375 -1.14063,-2.75 z m 15.82813,2.15625 q -0.875,0.75 -1.6875,1.09375 -0.8125,0.34375 -1.71875,0.34375 -1.375,0 -2.21875,-0.79688 -0.82813,-0.79687 -0.82813,-2.0625 0,-0.8125 0.375,-1.45312 0.39063,-0.64063 1,-1.01563 0.625,-0.39062 1.53125,-0.5625 0.5625,-0.10937 2.14063,-0.17187 1.57812,-0.0625 2.26562,-0.32813 0.20313,-0.6875 0.20313,-1.14062 0,-0.59375 -0.4375,-0.92188 -0.57813,-0.46875 -1.70313,-0.46875 -1.04687,0 -1.73437,0.46875 -0.67188,0.46875 -0.96875,1.32813 l -1.70313,-0.14063 q 0.51563,-1.46875 1.64063,-2.25 1.14062,-0.78125 2.85937,-0.78125 1.82813,0 2.89063,0.875 0.8125,0.65625 0.8125,1.6875 0,0.79688 -0.23438,1.82813 l -0.54687,2.45312 q -0.25,1.17188 -0.25,1.89063 0,0.46875 0.20312,1.34375 l -1.70312,0 q -0.14063,-0.48438 -0.1875,-1.21875 z m 0.60937,-3.76563 q -0.34375,0.125 -0.75,0.20313 -0.40625,0.0781 -1.34375,0.15625 -1.46875,0.14062 -2.07812,0.34375 -0.59375,0.1875 -0.90625,0.625 -0.3125,0.4375 -0.3125,0.96875 0,0.70312 0.48437,1.15625 0.5,0.45312 1.39063,0.45312 0.84375,0 1.60937,-0.4375 0.76563,-0.4375 1.20313,-1.21875 0.45312,-0.79687 0.70312,-2.25 z m 3.01636,5.875 1.70313,0.15625 q -0.0156,0.57813 0.14062,0.85938 0.15625,0.29687 0.5,0.45312 0.45313,0.20313 1.17188,0.20313 1.53125,0 2.20312,-0.79688 0.4375,-0.51562 0.79688,-2.29687 l 0.17187,-0.79688 q -1.3125,1.32813 -2.78125,1.32813 -1.5,0 -2.51562,-1.09375 -1,-1.10938 -1,-3.125 0,-1.65625 0.79687,-3.04688 0.79688,-1.39062 1.89063,-2.09375 1.09375,-0.71875 2.25,-0.71875 1.9375,0 2.98437,1.84375 l 0.34375,-1.625 1.53125,0 -1.98437,9.51563 q -0.3125,1.5625 -0.84375,2.4375 -0.53125,0.89062 -1.48438,1.35937 -0.9375,0.48438 -2.17187,0.48438 -1.1875,0 -2.04688,-0.3125 -0.84375,-0.29688 -1.28125,-0.89063 -0.42187,-0.57812 -0.42187,-1.34375 0,-0.23437 0.0469,-0.5 z m 2.10938,-5.25 q 0,1.01563 0.1875,1.51563 0.28125,0.71875 0.79687,1.09375 0.51563,0.375 1.14063,0.375 0.82812,0 1.64062,-0.57813 0.82813,-0.57812 1.32813,-1.79687 0.5,-1.21875 0.5,-2.3125 0,-1.21875 -0.67188,-1.9375 -0.67187,-0.71875 -1.65625,-0.71875 -0.625,0 -1.20312,0.32812 -0.5625,0.32813 -1.0625,1 -0.5,0.67188 -0.75,1.60938 -0.25,0.9375 -0.25,1.42187 z m 15.6101,1.01563 1.625,0.15625 q -0.35937,1.21875 -1.625,2.3125 -1.26562,1.09375 -3.01562,1.09375 -1.09375,0 -2.01563,-0.5 -0.90625,-0.5 -1.39062,-1.46875 -0.46875,-0.96875 -0.46875,-2.20313 0,-1.60937 0.75,-3.125 0.75,-1.51562 1.9375,-2.25 1.1875,-0.75 2.5625,-0.75 1.76562,0 2.8125,1.09375 1.0625,1.09375 1.0625,2.98438 0,0.73437 -0.14063,1.48437 l -7.25,0 q -0.0312,0.29688 -0.0312,0.53125 0,1.375 0.625,2.10938 0.64063,0.71875 1.5625,0.71875 0.85938,0 1.6875,-0.5625 0.84375,-0.5625 1.3125,-1.625 z m -4.89062,-2.45313 5.53125,0 q 0.0156,-0.25 0.0156,-0.35937 0,-1.26563 -0.64062,-1.9375 -0.625,-0.67188 -1.625,-0.67188 -1.0625,0 -1.95313,0.75 -0.89062,0.73438 -1.32812,2.21875 z m 12.19964,5.79688 7.70313,-13.59375 2.14062,0 2.25,13.59375 -1.76562,0 -0.65625,-3.92188 -5.5,0 -2.1875,3.92188 -1.98438,0 z m 4.95313,-5.3125 4.5,0 -0.53125,-3.42188 q -0.3125,-2.03125 -0.375,-3.375 -0.46875,1.15625 -1.35938,2.76563 l -2.23437,4.03125 z m 24.50183,0.53125 1.79688,0.25 q -0.84375,2.34375 -2.48438,3.5625 -1.625,1.20312 -3.65625,1.20312 -2.48437,0 -3.9375,-1.51562 -1.45312,-1.51563 -1.45312,-4.32813 0,-3.67187 2.21875,-6.07812 1.96875,-2.14063 4.89062,-2.14063 2.15625,0 3.5,1.15625 1.34375,1.15625 1.54688,3.10938 l -1.6875,0.17187 q -0.28125,-1.48437 -1.125,-2.20312 -0.82813,-0.73438 -2.15625,-0.73438 -2.5,0 -4.03125,2.21875 -1.34375,1.90625 -1.34375,4.53125 0,2.09375 1.03125,3.20313 1.03125,1.10937 2.6875,1.10937 1.40625,0 2.54687,-0.92187 1.14063,-0.92188 1.65625,-2.59375 z m 2.94171,1.04687 q 0,-2.89062 1.70313,-4.78125 1.40625,-1.5625 3.67187,-1.5625 1.78125,0 2.875,1.125 1.09375,1.10938 1.09375,3 0,1.6875 -0.6875,3.15625 -0.6875,1.45313 -1.95312,2.23438 -1.26563,0.78125 -2.67188,0.78125 -1.15625,0 -2.09375,-0.48438 -0.9375,-0.5 -1.4375,-1.39062 -0.5,-0.90625 -0.5,-2.07813 z m 1.6875,-0.17187 q 0,1.39062 0.65625,2.10937 0.67188,0.71875 1.70313,0.71875 0.54687,0 1.0625,-0.21875 0.53125,-0.21875 0.98437,-0.65625 0.46875,-0.45312 0.78125,-1.01562 0.32813,-0.57813 0.51563,-1.23438 0.28125,-0.92187 0.28125,-1.76562 0,-1.32813 -0.67188,-2.0625 -0.67187,-0.75 -1.6875,-0.75 -0.78125,0 -1.4375,0.375 -0.65625,0.375 -1.1875,1.10937 -0.51562,0.71875 -0.76562,1.6875 -0.23438,0.95313 -0.23438,1.70313 z m 8.39136,3.90625 2.0625,-9.85938 1.53125,0 -0.375,1.71875 q 1,-1 1.85937,-1.46875 0.85938,-0.46875 1.76563,-0.46875 1.20312,0 1.875,0.65625 0.6875,0.64063 0.6875,1.73438 0,0.54687 -0.25,1.71875 l -1.25,5.96875 -1.67188,0 1.3125,-6.25 q 0.1875,-0.90625 0.1875,-1.34375 0,-0.48438 -0.34375,-0.78125 -0.32812,-0.3125 -0.96875,-0.3125 -1.29687,0 -2.3125,0.92187 -1,0.92188 -1.46875,3.1875 l -0.95312,4.57813 -1.6875,0 z m 14.31323,-1.35938 -0.28125,1.375 q -0.60937,0.15625 -1.17187,0.15625 -1,0 -1.59375,-0.5 -0.45313,-0.375 -0.45313,-1.01562 0,-0.3125 0.25,-1.48438 l 1.1875,-5.71875 -1.32812,0 0.28125,-1.3125 1.32812,0 0.5,-2.42187 1.92188,-1.15625 -0.75,3.57812 1.65625,0 -0.28125,1.3125 -1.64063,0 -1.14062,5.4375 q -0.21875,1.04688 -0.21875,1.25 0,0.29688 0.17187,0.45313 0.17188,0.15625 0.5625,0.15625 0.5625,0 1,-0.10938 z m 8.49579,-1.98437 1.625,0.15625 q -0.35938,1.21875 -1.625,2.3125 -1.26563,1.09375 -3.01563,1.09375 -1.09375,0 -2.01562,-0.5 -0.90625,-0.5 -1.39063,-1.46875 -0.46875,-0.96875 -0.46875,-2.20313 0,-1.60937 0.75,-3.125 0.75,-1.51562 1.9375,-2.25 1.1875,-0.75 2.5625,-0.75 1.76563,0 2.8125,1.09375 1.0625,1.09375 1.0625,2.98438 0,0.73437 -0.14062,1.48437 l -7.25,0 q -0.0312,0.29688 -0.0312,0.53125 0,1.375 0.625,2.10938 0.64062,0.71875 1.5625,0.71875 0.85937,0 1.6875,-0.5625 0.84375,-0.5625 1.3125,-1.625 z m -4.89063,-2.45313 5.53125,0 q 0.0156,-0.25 0.0156,-0.35937 0,-1.26563 -0.64063,-1.9375 -0.625,-0.67188 -1.625,-0.67188 -1.0625,0 -1.95312,0.75 -0.89063,0.73438 -1.32813,2.21875 z m 8.01636,5.79688 2.0625,-9.85938 1.53125,0 -0.375,1.71875 q 1,-1 1.85938,-1.46875 0.85937,-0.46875 1.76562,-0.46875 1.20313,0 1.875,0.65625 0.6875,0.64063 0.6875,1.73438 0,0.54687 -0.25,1.71875 l -1.25,5.96875 -1.67187,0 1.3125,-6.25 q 0.1875,-0.90625 0.1875,-1.34375 0,-0.48438 -0.34375,-0.78125 -0.32813,-0.3125 -0.96875,-0.3125 -1.29688,0 -2.3125,0.92187 -1,0.92188 -1.46875,3.1875 l -0.95313,4.57813 -1.6875,0 z m 14.31317,-1.35938 -0.28125,1.375 q -0.60937,0.15625 -1.17187,0.15625 -1,0 -1.59375,-0.5 -0.45313,-0.375 -0.45313,-1.01562 0,-0.3125 0.25,-1.48438 l 1.1875,-5.71875 -1.32812,0 0.28125,-1.3125 1.32812,0 0.5,-2.42187 1.92188,-1.15625 -0.75,3.57812 1.65625,0 -0.28125,1.3125 -1.64063,0 -1.14062,5.4375 q -0.21875,1.04688 -0.21875,1.25 0,0.29688 0.17187,0.45313 0.17188,0.15625 0.5625,0.15625 0.5625,0 1,-0.10938 z"
       id="path3271"
       inkscape:connector-curvature="0"
       style="fill:#000000;fill-rule:nonzero" />
  </g>
  <g
     id="star1"
     inkscape:label="#g3416">
    <path
       d="m 305.3255,227.93608 16.18097,1.1e-4 5.00009,-15.42307 5.00009,15.42307 16.18097,-1.1e-4 -13.09076,9.53188 5.00031,15.423 -13.09061,-9.53204 -13.0906,9.53204 5.00027,-15.423 z"
       id="path3273"
       inkscape:connector-curvature="0"
       style="fill:#ffff00;fill-rule:nonzero" />
    <path
       d="m 305.3255,227.93608 16.18097,1.1e-4 5.00009,-15.42307 5.00009,15.42307 16.18097,-1.1e-4 -13.09076,9.53188 5.00031,15.423 -13.09061,-9.53204 -13.0906,9.53204 5.00027,-15.423 z"
       id="path3275"
       inkscape:connector-curvature="0"
       style="stroke:#000000;stroke-width:2;stroke-linecap:butt;stroke-linejoin:round" />
  </g>
  <g
     id="starB"
     inkscape:label="#g3424">
    <path
       d="m 661.7664,27.063385 16.18097,1.09e-4 5.00012,-15.423075 5.00006,15.423075 16.18097,-1.09e-4 -13.0907,9.531876 5.00031,15.423008 -13.09064,-9.532051 -13.09063,9.532051 5.0003,-15.423008 z"
       id="path3281"
       inkscape:connector-curvature="0"
       style="fill:#ffff00;fill-rule:nonzero" />
    <path
       d="m 661.7664,27.063385 16.18097,1.09e-4 5.00012,-15.423075 5.00006,15.423075 16.18097,-1.09e-4 -13.0907,9.531876 5.00031,15.423008 -13.09064,-9.532051 -13.09063,9.532051 5.0003,-15.423008 z"
       id="path3283"
       inkscape:connector-curvature="0"
       style="stroke:#000000;stroke-width:2;stroke-linecap:butt;stroke-linejoin:round" />
  </g>
  <g
     id="arrow1"
     inkscape:label="#g3392">
    <path
       d="m 180.52231,247.0971 50.81889,0 0,-8.46455 16.92914,16.92912 -16.92914,16.92914 0,-8.46457 -50.81889,0 z"
       id="path3227"
       inkscape:connector-curvature="0"
       style="fill:#ffff00;fill-rule:nonzero" />
    <path
       d="m 180.52231,247.0971 50.81889,0 0,-8.46455 16.92914,16.92912 -16.92914,16.92914 0,-8.46457 -50.81889,0 z"
       id="path3229"
       inkscape:connector-curvature="0"
       style="stroke:#000000;stroke-width:2;stroke-linecap:butt;stroke-linejoin:round" />
  </g>
  <g
     id="star2"
     inkscape:label="#g3420">
    <path
       d="m 305.3255,325.6093 16.18097,1.2e-4 5.00009,-15.42309 5.00009,15.42309 16.18097,-1.2e-4 -13.09076,9.53189 5.00031,15.423 -13.09061,-9.53204 -13.0906,9.53204 5.00027,-15.423 z"
       id="path3277"
       inkscape:connector-curvature="0"
       style="fill:#ffff00;fill-rule:nonzero" />
    <path
       d="m 305.3255,325.6093 16.18097,1.2e-4 5.00009,-15.42309 5.00009,15.42309 16.18097,-1.2e-4 -13.09076,9.53189 5.00031,15.423 -13.09061,-9.53204 -13.0906,9.53204 5.00027,-15.423 z"
       id="path3279"
       inkscape:connector-curvature="0"
       style="stroke:#000000;stroke-width:2;stroke-linecap:butt;stroke-linejoin:round" />
  </g>
  <g
     id="arrow2"
     inkscape:label="#g3396">
    <path
       d="m 180.52231,341.59317 50.81889,0 0,-8.46457 16.92914,16.92914 -16.92914,16.92914 0,-8.46457 -50.81889,0 z"
       id="path3231"
       inkscape:connector-curvature="0"
       style="fill:#ffff00;fill-rule:nonzero" />
    <path
       d="m 180.52231,341.59317 50.81889,0 0,-8.46457 16.92914,16.92914 -16.92914,16.92914 0,-8.46457 -50.81889,0 z"
       id="path3233"
       inkscape:connector-curvature="0"
       style="stroke:#000000;stroke-width:2;stroke-linecap:butt;stroke-linejoin:round" />
  </g>
  <g
     id="cross1"
     inkscape:label="#g3384">
    <path
       d="m 85.17651,230.7832 13.336349,-13.33635 14.166921,14.16693 14.16693,-14.16693 13.33635,13.33635 -14.16693,14.16693 14.16693,14.16693 -13.33635,13.33634 -14.16693,-14.16693 -14.16692,14.16693 -13.33635,-13.33634 14.166924,-14.16693 z"
       id="path3223"
       inkscape:connector-curvature="0"
       style="fill:#ff0000;fill-rule:nonzero" />
    <path
       d="m 85.17651,230.7832 13.336349,-13.33635 14.166921,14.16693 14.16693,-14.16693 13.33635,13.33635 -14.16693,14.16693 14.16693,14.16693 -13.33635,13.33634 -14.16693,-14.16693 -14.16692,14.16693 -13.33635,-13.33634 14.166924,-14.16693 z"
       id="path3225"
       inkscape:connector-curvature="0"
       style="stroke:#000000;stroke-width:2;stroke-linecap:butt;stroke-linejoin:round" />
  </g>
  <g
     id="cross2"
     inkscape:label="#g3388">
    <path
       d="m 85.17651,325.93018 13.336349,-13.33633 14.166921,14.16693 14.16693,-14.16693 13.33635,13.33633 -14.16693,14.16693 14.16693,14.16693 -13.33635,13.33634 -14.16693,-14.16691 -14.16692,14.16691 -13.33635,-13.33634 14.166924,-14.16693 z"
       id="path3219"
       inkscape:connector-curvature="0"
       style="fill:#ff0000;fill-rule:nonzero" />
    <path
       d="m 85.17651,325.93018 13.336349,-13.33633 14.166921,14.16693 14.16693,-14.16693 13.33635,13.33633 -14.16693,14.16693 14.16693,14.16693 -13.33635,13.33634 -14.16693,-14.16691 -14.16692,14.16691 -13.33635,-13.33634 14.166924,-14.16693 z"
       id="path3221"
       inkscape:connector-curvature="0"
       style="stroke:#000000;stroke-width:2;stroke-linecap:butt;stroke-linejoin:round" />
  </g>
</svg>
