<?xml version="1.0" encoding="UTF-8" standalone="no"?>
<svg
   xmlns:dc="http://purl.org/dc/elements/1.1/"
   xmlns:cc="http://creativecommons.org/ns#"
   xmlns:rdf="http://www.w3.org/1999/02/22-rdf-syntax-ns#"
   xmlns:svg="http://www.w3.org/2000/svg"
   xmlns="http://www.w3.org/2000/svg"
   xmlns:sodipodi="http://sodipodi.sourceforge.net/DTD/sodipodi-0.dtd"
   xmlns:inkscape="http://www.inkscape.org/namespaces/inkscape"
   version="1.1"
   viewBox="0.0 0.0 800.0 450.0"
   fill="none"
   stroke="none"
   stroke-linecap="square"
   stroke-miterlimit="10"
   id="svg4040"
   inkscape:version="0.48.2 r9819"
   width="100%"
   height="100%"
   sodipodi:docname="smtpd_enqueueing_3a.svg">
  <metadata
     id="metadata4145">
    <rdf:RDF>
      <cc:Work
         rdf:about="">
        <dc:format>image/svg+xml</dc:format>
        <dc:type
           rdf:resource="http://purl.org/dc/dcmitype/StillImage" />
        <dc:title />
      </cc:Work>
    </rdf:RDF>
  </metadata>
  <defs
     id="defs4143" />
  <sodipodi:namedview
     pagecolor="#ffffff"
     bordercolor="#666666"
     borderopacity="1"
     objecttolerance="10"
     gridtolerance="10"
     guidetolerance="10"
     inkscape:pageopacity="0"
     inkscape:pageshadow="2"
     inkscape:window-width="877"
     inkscape:window-height="571"
     id="namedview4141"
     showgrid="false"
     inkscape:zoom="0.86"
     inkscape:cx="400"
     inkscape:cy="225"
     inkscape:window-x="274"
     inkscape:window-y="116"
     inkscape:window-maximized="0"
     inkscape:current-layer="svg4040" />
  <clipPath
     id="p.0">
    <path
       d="m0 0l800.0 0l0 450.0l-800.0 0l0 -450.0z"
       clip-rule="nonzero"
       id="path4043" />
  </clipPath>
  <path
     style="fill:#000000;fill-opacity:0;fill-rule:nonzero"
     inkscape:connector-curvature="0"
     id="path4047"
     d="m 0,0 800.1627,0 0,450.02362 -800.1627,0 z" />
  <path
     style="fill:#cfe2f3;fill-rule:nonzero"
     inkscape:connector-curvature="0"
     id="path4049"
     d="m 153.92651,202.52519 0,0 c 0,-7.30595 5.92265,-13.22861 13.22861,-13.22861 l 134.36166,0 c 3.50845,0 6.8732,1.39373 9.35406,3.87458 2.48084,2.48085 3.87454,5.84559 3.87454,9.35403 l 0,52.91286 c 0,7.30597 -5.92263,13.2286 -13.2286,13.2286 l -134.36166,0 c -7.30596,0 -13.22861,-5.92263 -13.22861,-13.2286 z" />
  <path
     style="stroke:#000000;stroke-width:2;stroke-linecap:butt;stroke-linejoin:round"
     inkscape:connector-curvature="0"
     id="path4051"
     d="m 153.92651,202.52519 0,0 c 0,-7.30595 5.92265,-13.22861 13.22861,-13.22861 l 134.36166,0 c 3.50845,0 6.8732,1.39373 9.35406,3.87458 2.48084,2.48085 3.87454,5.84559 3.87454,9.35403 l 0,52.91286 c 0,7.30597 -5.92263,13.2286 -13.2286,13.2286 l -134.36166,0 c -7.30596,0 -13.22861,-5.92263 -13.22861,-13.2286 z" />
  <path
     style="fill:#000000;fill-rule:nonzero"
     inkscape:connector-curvature="0"
     id="path4053"
     d="m 209.28337,230.77069 1.6875,-0.14063 q 0.125,1.01563 0.5625,1.67188 0.4375,0.65625 1.35937,1.0625 0.9375,0.40625 2.09375,0.40625 1.03125,0 1.8125,-0.3125 0.79688,-0.3125 1.1875,-0.84375 0.39063,-0.53125 0.39063,-1.15625 0,-0.64063 -0.375,-1.10938 -0.375,-0.48437 -1.23438,-0.8125 -0.54687,-0.21875 -2.42187,-0.65625 -1.875,-0.45312 -2.625,-0.85937 -0.96875,-0.51563 -1.45313,-1.26563 -0.46875,-0.75 -0.46875,-1.6875 0,-1.03125 0.57813,-1.92187 0.59375,-0.90625 1.70312,-1.35938 1.125,-0.46875 2.5,-0.46875 1.51563,0 2.67188,0.48438 1.15625,0.48437 1.76562,1.4375 0.625,0.9375 0.67188,2.14062 l -1.71875,0.125 q -0.14063,-1.28125 -0.95313,-1.9375 -0.79687,-0.67187 -2.35937,-0.67187 -1.625,0 -2.375,0.60937 -0.75,0.59375 -0.75,1.4375 0,0.73438 0.53125,1.20313 0.51562,0.46875 2.70312,0.96875 2.20313,0.5 3.01563,0.875 1.1875,0.54687 1.75,1.39062 0.57812,0.82813 0.57812,1.92188 0,1.09375 -0.625,2.0625 -0.625,0.95312 -1.79687,1.48437 -1.15625,0.53125 -2.60938,0.53125 -1.84375,0 -3.09375,-0.53125 -1.25,-0.54687 -1.96875,-1.625 -0.70312,-1.07812 -0.73437,-2.45312 z m 12.99045,4.375 0,-13.59375 2.71875,0 3.21875,9.625 q 0.4375,1.34375 0.64062,2.01562 0.23438,-0.75 0.73438,-2.1875 l 3.25,-9.45312 2.42187,0 0,13.59375 -1.73437,0 0,-11.39063 -3.95313,11.39063 -1.625,0 -3.9375,-11.57813 0,11.57813 -1.73437,0 z m 19.05642,0 0,-12 -4.46875,0 0,-1.59375 10.76563,0 0,1.59375 -4.5,0 0,12 -1.79688,0 z m 7.94286,0 0,-13.59375 5.125,0 q 1.35938,0 2.07813,0.125 1,0.17187 1.67187,0.64062 0.67188,0.46875 1.07813,1.3125 0.42187,0.84375 0.42187,1.84375 0,1.73438 -1.10937,2.9375 -1.09375,1.20313 -3.98438,1.20313 l -3.48437,0 0,5.53125 -1.79688,0 z m 1.79688,-7.14063 3.51562,0 q 1.75,0 2.46875,-0.64062 0.73438,-0.65625 0.73438,-1.82813 0,-0.85937 -0.4375,-1.46875 -0.42188,-0.60937 -1.125,-0.79687 -0.45313,-0.125 -1.67188,-0.125 l -3.48437,0 0,4.85937 z" />
  <path
     style="fill:#cfe2f3;fill-rule:nonzero"
     inkscape:connector-curvature="0"
     id="path4055"
     d="m 394.81104,114.18137 0,0 c 0,-7.30597 5.92264,-13.22861 13.22861,-13.22861 l 134.36166,0 c 3.50842,0 6.87317,1.39372 9.35406,3.87456 2.48084,2.48085 3.87457,5.8456 3.87457,9.35405 l 0,52.91285 c 0,7.30596 -5.92266,13.22861 -13.22863,13.22861 l -134.36166,0 c -7.30597,0 -13.22861,-5.92265 -13.22861,-13.22861 z" />
  <path
     style="stroke:#000000;stroke-width:2;stroke-linecap:butt;stroke-linejoin:round"
     inkscape:connector-curvature="0"
     id="path4057"
     d="m 394.81104,114.18137 0,0 c 0,-7.30597 5.92264,-13.22861 13.22861,-13.22861 l 134.36166,0 c 3.50842,0 6.87317,1.39372 9.35406,3.87456 2.48084,2.48085 3.87457,5.8456 3.87457,9.35405 l 0,52.91285 c 0,7.30596 -5.92266,13.22861 -13.22863,13.22861 l -134.36166,0 c -7.30597,0 -13.22861,-5.92265 -13.22861,-13.22861 z" />
  <path
     style="fill:#000000;fill-rule:nonzero"
     inkscape:connector-curvature="0"
     id="path4059"
     d="m 453.81387,145.34872 q 1.26562,0.85937 2.3125,1.26562 l -0.53125,1.25 q -1.45313,-0.53125 -2.92188,-1.67187 -1.5,0.84375 -3.32812,0.84375 -1.84375,0 -3.35938,-0.89063 -1.5,-0.89062 -2.3125,-2.5 -0.8125,-1.625 -0.8125,-3.64062 0,-2.01563 0.8125,-3.65625 0.82813,-1.65625 2.32813,-2.51563 1.51562,-0.875 3.375,-0.875 1.89062,0 3.39062,0.90625 1.51563,0.89063 2.3125,2.5 0.79688,1.60938 0.79688,3.625 0,1.6875 -0.51563,3.03125 -0.51562,1.32813 -1.54687,2.32813 z m -3.95313,-2.29688 q 1.5625,0.42188 2.5625,1.29688 1.59375,-1.45313 1.59375,-4.35938 0,-1.65625 -0.5625,-2.875 -0.5625,-1.23437 -1.64062,-1.92187 -1.07813,-0.6875 -2.42188,-0.6875 -2.01562,0 -3.34375,1.39062 -1.32812,1.375 -1.32812,4.10938 0,2.65625 1.3125,4.07812 1.3125,1.40625 3.35937,1.40625 0.95313,0 1.8125,-0.35937 -0.84375,-0.54688 -1.78125,-0.78125 l 0.4375,-1.29688 z m 17.08954,-9.84375 1.79688,0 0,7.84375 q 0,2.0625 -0.46875,3.26563 -0.45313,1.20312 -1.67188,1.96875 -1.20312,0.75 -3.17187,0.75 -1.90625,0 -3.125,-0.65625 -1.21875,-0.65625 -1.73438,-1.90625 -0.51562,-1.25 -0.51562,-3.42188 l 0,-7.84375 1.79687,0 0,7.84375 q 0,1.76563 0.32813,2.60938 0.32812,0.84375 1.125,1.29687 0.8125,0.45313 1.96875,0.45313 1.98437,0 2.82812,-0.89063 0.84375,-0.90625 0.84375,-3.46875 l 0,-7.84375 z m 4.58234,13.59375 0,-13.59375 9.84375,0 0,1.59375 -8.04687,0 0,4.17188 7.53125,0 0,1.59375 -7.53125,0 0,4.625 8.35937,0 0,1.60937 -10.15625,0 z m 21.3342,-13.59375 1.79687,0 0,7.84375 q 0,2.0625 -0.46875,3.26563 -0.45312,1.20312 -1.67187,1.96875 -1.20313,0.75 -3.17188,0.75 -1.90625,0 -3.125,-0.65625 -1.21875,-0.65625 -1.73437,-1.90625 -0.51563,-1.25 -0.51563,-3.42188 l 0,-7.84375 1.79688,0 0,7.84375 q 0,1.76563 0.32812,2.60938 0.32813,0.84375 1.125,1.29687 0.8125,0.45313 1.96875,0.45313 1.98438,0 2.82813,-0.89063 0.84375,-0.90625 0.84375,-3.46875 l 0,-7.84375 z m 4.5823,13.59375 0,-13.59375 9.84375,0 0,1.59375 -8.04687,0 0,4.17188 7.53125,0 0,1.59375 -7.53125,0 0,4.625 8.35937,0 0,1.60937 -10.15625,0 z" />
  <path
     style="fill:#cfe2f3;fill-rule:nonzero"
     inkscape:connector-curvature="0"
     id="path4061"
     d="m 615.35956,202.52519 0,0 c 0,-7.30595 5.92267,-13.22861 13.22864,-13.22861 l 134.3617,0 c 3.50842,0 6.87317,1.39373 9.354,3.87458 2.48084,2.48085 3.87457,5.84559 3.87457,9.35403 l 0,52.91286 c 0,7.30597 -5.92266,13.2286 -13.22857,13.2286 l -134.3617,0 c -7.30597,0 -13.22864,-5.92263 -13.22864,-13.2286 z" />
  <path
     style="stroke:#000000;stroke-width:2;stroke-linecap:butt;stroke-linejoin:round"
     inkscape:connector-curvature="0"
     id="path4063"
     d="m 615.35956,202.52519 0,0 c 0,-7.30595 5.92267,-13.22861 13.22864,-13.22861 l 134.3617,0 c 3.50842,0 6.87317,1.39373 9.354,3.87458 2.48084,2.48085 3.87457,5.84559 3.87457,9.35403 l 0,52.91286 c 0,7.30597 -5.92266,13.2286 -13.22857,13.2286 l -134.3617,0 c -7.30597,0 -13.22864,-5.92263 -13.22864,-13.2286 z" />
  <path
     style="fill:#000000;fill-rule:nonzero"
     inkscape:connector-curvature="0"
     id="path4065"
     d="m 639.09283,230.77069 1.6875,-0.14063 q 0.125,1.01563 0.5625,1.67188 0.4375,0.65625 1.35938,1.0625 0.9375,0.40625 2.09375,0.40625 1.03125,0 1.8125,-0.3125 0.79687,-0.3125 1.1875,-0.84375 0.39062,-0.53125 0.39062,-1.15625 0,-0.64063 -0.375,-1.10938 -0.375,-0.48437 -1.23437,-0.8125 -0.54688,-0.21875 -2.42188,-0.65625 -1.875,-0.45312 -2.625,-0.85937 -0.96875,-0.51563 -1.45312,-1.26563 -0.46875,-0.75 -0.46875,-1.6875 0,-1.03125 0.57812,-1.92187 0.59375,-0.90625 1.70313,-1.35938 1.125,-0.46875 2.5,-0.46875 1.51562,0 2.67187,0.48438 1.15625,0.48437 1.76563,1.4375 0.625,0.9375 0.67187,2.14062 l -1.71875,0.125 q -0.14062,-1.28125 -0.95312,-1.9375 -0.79688,-0.67187 -2.35938,-0.67187 -1.625,0 -2.375,0.60937 -0.75,0.59375 -0.75,1.4375 0,0.73438 0.53125,1.20313 0.51563,0.46875 2.70313,0.96875 2.20312,0.5 3.01562,0.875 1.1875,0.54687 1.75,1.39062 0.57813,0.82813 0.57813,1.92188 0,1.09375 -0.625,2.0625 -0.625,0.95312 -1.79688,1.48437 -1.15625,0.53125 -2.60937,0.53125 -1.84375,0 -3.09375,-0.53125 -1.25,-0.54687 -1.96875,-1.625 -0.70313,-1.07812 -0.73438,-2.45312 z m 22.75604,-0.39063 1.79688,0.45313 q -0.5625,2.21875 -2.03125,3.39062 -1.46875,1.15625 -3.59375,1.15625 -2.20313,0 -3.57813,-0.89062 -1.375,-0.90625 -2.09375,-2.59375 -0.71875,-1.70313 -0.71875,-3.65625 0,-2.125 0.79688,-3.70313 0.8125,-1.57812 2.3125,-2.39062 1.5,-0.82813 3.29687,-0.82813 2.04688,0 3.4375,1.04688 1.39063,1.03125 1.9375,2.90625 l -1.76562,0.42187 q -0.46875,-1.48437 -1.375,-2.15625 -0.90625,-0.6875 -2.26563,-0.6875 -1.5625,0 -2.625,0.75 -1.04687,0.75 -1.48437,2.03125 -0.42188,1.26563 -0.42188,2.60938 0,1.73437 0.5,3.03125 0.51563,1.28125 1.57813,1.92187 1.07812,0.64063 2.3125,0.64063 1.51562,0 2.5625,-0.85938 1.04687,-0.875 1.42187,-2.59375 z m 3.81671,4.76563 0,-13.59375 1.8125,0 0,5.57812 7.0625,0 0,-5.57812 1.79688,0 0,13.59375 -1.79688,0 0,-6.40625 -7.0625,0 0,6.40625 -1.8125,0 z m 13.45734,0 0,-13.59375 9.84375,0 0,1.59375 -8.04688,0 0,4.17187 7.53125,0 0,1.59375 -7.53125,0 0,4.625 8.35938,0 0,1.60938 -10.15625,0 z m 12.41229,0 0,-13.59375 4.6875,0 q 1.57813,0 2.42188,0.1875 1.15625,0.26562 1.98437,0.96875 1.07813,0.92187 1.60938,2.34375 0.53125,1.40625 0.53125,3.21875 0,1.54687 -0.35938,2.75 -0.35937,1.1875 -0.92187,1.98437 -0.5625,0.78125 -1.23438,1.23438 -0.67187,0.4375 -1.625,0.67187 -0.95312,0.23438 -2.1875,0.23438 l -4.90625,0 z m 1.79688,-1.60938 2.90625,0 q 1.34375,0 2.10937,-0.25 0.76563,-0.25 1.21875,-0.70312 0.64063,-0.64063 1,-1.71875 0.35938,-1.07813 0.35938,-2.625 0,-2.125 -0.70313,-3.26563 -0.70312,-1.15625 -1.70312,-1.54687 -0.71875,-0.28125 -2.32813,-0.28125 l -2.85937,0 0,10.39062 z m 20.59796,-11.98437 1.79687,0 0,7.84375 q 0,2.0625 -0.46875,3.26562 -0.45312,1.20313 -1.67187,1.96875 -1.20313,0.75 -3.17188,0.75 -1.90625,0 -3.125,-0.65625 -1.21875,-0.65625 -1.73437,-1.90625 -0.51563,-1.25 -0.51563,-3.42187 l 0,-7.84375 1.79688,0 0,7.84375 q 0,1.76562 0.32812,2.60937 0.32813,0.84375 1.125,1.29688 0.8125,0.45312 1.96875,0.45312 1.98438,0 2.82813,-0.89062 0.84375,-0.90625 0.84375,-3.46875 l 0,-7.84375 z m 4.47296,13.59375 0,-13.59375 1.79687,0 0,11.98437 6.70313,0 0,1.60938 -8.5,0 z m 10.48505,0 0,-13.59375 9.84375,0 0,1.59375 -8.04688,0 0,4.17187 7.53125,0 0,1.59375 -7.53125,0 0,4.625 8.35938,0 0,1.60938 -10.15625,0 z m 12.4436,0 0,-13.59375 6.03125,0 q 1.8125,0 2.75,0.35937 0.95312,0.35938 1.51562,1.29688 0.5625,0.92187 0.5625,2.04687 0,1.45313 -0.9375,2.45313 -0.92187,0.98437 -2.89062,1.25 0.71875,0.34375 1.09375,0.67187 0.78125,0.73438 1.48437,1.8125 l 2.375,3.70313 -2.26562,0 -1.79688,-2.82813 q -0.79687,-1.21875 -1.3125,-1.875 -0.5,-0.65625 -0.90625,-0.90625 -0.40625,-0.26562 -0.8125,-0.35937 -0.3125,-0.0781 -1.01562,-0.0781 l -2.07813,0 0,6.04688 -1.79687,0 z m 1.79687,-7.59375 3.85938,0 q 1.23437,0 1.92187,-0.25 0.70313,-0.26563 1.0625,-0.82813 0.375,-0.5625 0.375,-1.21875 0,-0.96875 -0.70312,-1.57812 -0.70313,-0.625 -2.21875,-0.625 l -4.29688,0 0,4.5 z" />
  <path
     style="fill:#cfe2f3;fill-rule:nonzero"
     inkscape:connector-curvature="0"
     id="path4067"
     d="m 394.81104,289.48584 0,0 c 0,-7.30597 5.92264,-13.22861 13.22861,-13.22861 l 134.36166,0 c 3.50842,0 6.87317,1.39371 9.35406,3.87455 2.48084,2.48086 3.87457,5.84561 3.87457,9.35406 l 0,52.91284 c 0,7.30597 -5.92266,13.22861 -13.22863,13.22861 l -134.36166,0 c -7.30597,0 -13.22861,-5.92264 -13.22861,-13.22861 z" />
  <path
     style="stroke:#000000;stroke-width:2;stroke-linecap:butt;stroke-linejoin:round"
     inkscape:connector-curvature="0"
     id="path4069"
     d="m 394.81104,289.48584 0,0 c 0,-7.30597 5.92264,-13.22861 13.22861,-13.22861 l 134.36166,0 c 3.50842,0 6.87317,1.39371 9.35406,3.87455 2.48084,2.48086 3.87457,5.84561 3.87457,9.35406 l 0,52.91284 c 0,7.30597 -5.92266,13.22861 -13.22863,13.22861 l -134.36166,0 c -7.30597,0 -13.22861,-5.92264 -13.22861,-13.22861 z" />
  <path
     style="fill:#000000;fill-rule:nonzero"
     inkscape:connector-curvature="0"
     id="path4071"
     d="m 437.73175,322.10632 0,-13.59375 1.79687,0 0,11.98437 6.70313,0 0,1.60938 -8.5,0 z m 9.90698,-6.625 q 0,-3.39063 1.8125,-5.29688 1.82813,-1.92187 4.70313,-1.92187 1.875,0 3.39062,0.90625 1.51563,0.89062 2.29688,2.5 0.79687,1.60937 0.79687,3.65625 0,2.0625 -0.84375,3.70312 -0.82812,1.625 -2.35937,2.46875 -1.53125,0.84375 -3.29688,0.84375 -1.92187,0 -3.4375,-0.92187 -1.5,-0.9375 -2.28125,-2.53125 -0.78125,-1.60938 -0.78125,-3.40625 z m 1.85938,0.0312 q 0,2.45312 1.3125,3.875 1.32812,1.40625 3.3125,1.40625 2.03125,0 3.34375,-1.42188 1.3125,-1.4375 1.3125,-4.0625 0,-1.65625 -0.5625,-2.89062 -0.54688,-1.23438 -1.64063,-1.92188 -1.07812,-0.6875 -2.42187,-0.6875 -1.90625,0 -3.28125,1.3125 -1.375,1.3125 -1.375,4.39063 z m 12.65204,-0.0312 q 0,-3.39063 1.8125,-5.29688 1.82812,-1.92187 4.70312,-1.92187 1.875,0 3.39063,0.90625 1.51562,0.89062 2.29687,2.5 0.79688,1.60937 0.79688,3.65625 0,2.0625 -0.84375,3.70312 -0.82813,1.625 -2.35938,2.46875 -1.53125,0.84375 -3.29687,0.84375 -1.92188,0 -3.4375,-0.92187 -1.5,-0.9375 -2.28125,-2.53125 -0.78125,-1.60938 -0.78125,-3.40625 z m 1.85937,0.0312 q 0,2.45312 1.3125,3.875 1.32813,1.40625 3.3125,1.40625 2.03125,0 3.34375,-1.42188 1.3125,-1.4375 1.3125,-4.0625 0,-1.65625 -0.5625,-2.89062 -0.54687,-1.23438 -1.64062,-1.92188 -1.07813,-0.6875 -2.42188,-0.6875 -1.90625,0 -3.28125,1.3125 -1.375,1.3125 -1.375,4.39063 z m 13.12082,6.59375 0,-13.59375 1.79687,0 0,6.73437 6.76563,-6.73437 2.4375,0 -5.70313,5.5 5.95313,8.09375 -2.375,0 -4.84375,-6.89063 -2.23438,2.17188 0,4.71875 -1.79687,0 z m 21.44357,-13.59375 1.79688,0 0,7.84375 q 0,2.0625 -0.46875,3.26562 -0.45313,1.20313 -1.67188,1.96875 -1.20312,0.75 -3.17187,0.75 -1.90625,0 -3.125,-0.65625 -1.21875,-0.65625 -1.73438,-1.90625 -0.51562,-1.25 -0.51562,-3.42187 l 0,-7.84375 1.79687,0 0,7.84375 q 0,1.76562 0.32813,2.60937 0.32812,0.84375 1.125,1.29688 0.8125,0.45312 1.96875,0.45312 1.98437,0 2.82812,-0.89062 0.84375,-0.90625 0.84375,-3.46875 l 0,-7.84375 z m 4.55106,13.59375 0,-13.59375 5.125,0 q 1.35937,0 2.07812,0.125 1,0.17187 1.67188,0.64062 0.6719,0.46875 1.07815,1.3125 0.42188,0.84375 0.42188,1.84375 0,1.73438 -1.10938,2.9375 -1.09378,1.20313 -3.9844,1.20313 l -3.48438,0 0,5.53125 -1.79687,0 z m 1.79687,-7.14063 3.51563,0 q 1.75,0 2.46875,-0.64062 0.73437,-0.65625 0.73437,-1.82813 0,-0.85937 -0.4375,-1.46875 -0.42187,-0.60937 -1.125,-0.79687 -0.45312,-0.125 -1.67187,-0.125 l -3.48438,0 0,4.85937 z" />
  <g
     id="phase0"
     inkscape:label="#g4194">
    <path
       d="M 22.078741,216.48557 141.29133,215.98163"
       id="path4073"
       inkscape:connector-curvature="0"
       style="fill:#000000;fill-opacity:0;fill-rule:nonzero" />
    <path
       d="m 22.078741,216.48557 107.212719,-0.4532"
       id="path4075"
       inkscape:connector-curvature="0"
       style="stroke:#000000;stroke-width:2;stroke-linecap:butt;stroke-linejoin:round" />
    <path
       d="m 129.3054,219.33578 9.06215,-3.3418 -9.09007,-3.26507 z"
       id="path4077"
       inkscape:connector-curvature="0"
       style="fill:#000000;fill-rule:evenodd;stroke:#000000;stroke-width:2;stroke-linecap:butt" />
    <path
       d="m 13.559055,180.32283 136.251965,0 0,31.46457 -136.251965,0 z"
       id="path4091"
       inkscape:connector-curvature="0"
       style="fill:#000000;fill-opacity:0;fill-rule:nonzero" />
    <path
       d="m 80.18713,202.21918 0.40625,-1.90625 1.890625,0 -0.40625,1.90625 -1.890625,0 z"
       id="path4093"
       inkscape:connector-curvature="0"
       style="fill:#000000;fill-rule:nonzero" />
  </g>
  <path
     style="fill:#cfe2f3;fill-rule:nonzero"
     inkscape:connector-curvature="0"
     id="path4095"
     d="m 519.7454,80.11286 53.82678,0 0,32.44094 -53.82678,0 z" />
  <path
     style="stroke:#000000;stroke-width:2;stroke-linecap:butt;stroke-linejoin:round"
     inkscape:connector-curvature="0"
     id="path4097"
     d="m 519.7454,80.11286 53.82678,0 0,32.44094 -53.82678,0 z" />
  <path
     style="fill:#000000;fill-opacity:0;fill-rule:nonzero"
     inkscape:connector-curvature="0"
     id="path4099"
     d="M 521,80.65223 548,95.153542 573.50134,80.65223" />
  <path
     style="stroke:#000000;stroke-width:2;stroke-linecap:butt;stroke-linejoin:round"
     inkscape:connector-curvature="0"
     id="path4101"
     d="M 521,80.65223 548,95.153542 573.50134,80.65223" />
  <g
     id="phase1b"
     inkscape:label="#g5023">
    <path
       d="m 502.26776,83.62831 11.27252,7.6e-5 3.48334,-10.70713 3.48334,10.70713 11.27252,-7.6e-5 -9.11969,6.617294 3.48346,10.707076 -9.11963,-6.617415 -9.11963,6.617415 3.48349,-10.707076 z"
       id="path4103"
       inkscape:connector-curvature="0"
       style="fill:#ffff00;fill-rule:nonzero" />
    <path
       d="m 502.26776,83.62831 11.27252,7.6e-5 3.48334,-10.70713 3.48334,10.70713 11.27252,-7.6e-5 -9.11969,6.617294 3.48346,10.707076 -9.11963,-6.617415 -9.11963,6.617415 3.48349,-10.707076 z"
       id="path4105"
       inkscape:connector-curvature="0"
       style="stroke:#000000;stroke-width:2;stroke-linecap:butt;stroke-linejoin:round" />
  </g>
  <g
     id="phase3"
     inkscape:label="#g4217">
    <path
       d="m 137.59055,244.79265 -111.81102,0"
       id="path4085"
       inkscape:connector-curvature="0"
       style="fill:#000000;fill-opacity:0;fill-rule:nonzero" />
    <path
       d="m 137.59055,244.79265 -99.81102,0"
       id="path4087"
       inkscape:connector-curvature="0"
       style="stroke:#000000;stroke-width:2;stroke-linecap:butt;stroke-linejoin:round" />
    <path
       d="m 37.779526,241.48918 -9.076193,3.30347 9.076193,3.30346 z"
       id="path4089"
       inkscape:connector-curvature="0"
       style="fill:#000000;fill-rule:evenodd;stroke:#000000;stroke-width:2;stroke-linecap:butt" />
    <path
       d="m 2,258.5958 157.29134,0 0,31.46457 -157.29134,0 z"
       id="path4107"
       inkscape:connector-curvature="0"
       style="fill:#000000;fill-opacity:0;fill-rule:nonzero" />
    <path
       d="m 12.263245,269.7656 q 0.265625,-1.21875 0.71875,-2.03125 0.46875,-0.82813 1.21875,-1.5625 0.765625,-0.73438 2.9375,-2.46875 1.3125,-1.04688 1.796875,-1.54688 0.703125,-0.73437 1.015625,-1.42187 0.21875,-0.48438 0.21875,-1.03125 0,-0.9375 -0.671875,-1.59375 -0.65625,-0.65625 -1.625,-0.65625 -0.953125,0 -1.671875,0.67187 -0.71875,0.65625 -1.015625,2.125 l -1.640625,-0.25 q 0.234375,-1.79687 1.390625,-2.84375 1.171875,-1.04687 2.90625,-1.04687 1.15625,0 2.09375,0.48437 0.953125,0.48438 1.421875,1.35938 0.46875,0.85937 0.46875,1.79687 0,1.34375 -0.953125,2.60938 -0.59375,0.76562 -3.5,3.0625 -1.234375,0.98437 -1.84375,1.625 -0.609375,0.625 -0.921875,1.17187 l 6.09375,0 -0.328125,1.54688 -8.109375,0 z m 10.594467,-3.89063 1.703125,-0.15625 q -0.01563,0.35938 -0.01563,0.42188 0,0.625 0.3125,1.25 0.3125,0.60937 0.84375,0.9375 0.53125,0.32812 1.125,0.32812 0.78125,0 1.578125,-0.53125 0.8125,-0.54687 1.3125,-1.5625 0.5,-1.03125 0.5,-2.04687 0,-1.14063 -0.671875,-1.82813 -0.671875,-0.6875 -1.765625,-0.6875 -0.734375,0 -1.390625,0.35938 -0.640625,0.34375 -1.21875,1.04687 l -1.453125,-0.0937 2.046875,-6.96875 6.640625,0 -0.328125,1.54688 -5.171875,0 -1.015625,3.45312 q 0.578125,-0.40625 1.1875,-0.60937 0.609375,-0.21875 1.25,-0.21875 1.546875,0 2.546875,1.03125 1.015625,1.03125 1.015625,2.8125 0,1.57812 -0.6875,2.90625 -0.6875,1.3125 -1.890625,2.03125 -1.203125,0.70312 -2.59375,0.70312 -1.171875,0 -2.078125,-0.53125 -0.890625,-0.53125 -1.34375,-1.45312 -0.453125,-0.9375 -0.453125,-1.85938 0,-0.0937 0.01563,-0.28125 z m 10.391342,-0.57812 q 0,-1.71875 0.515625,-3.5 0.515625,-1.78125 1.140625,-2.84375 0.640625,-1.07813 1.3125,-1.67188 0.671875,-0.60937 1.328125,-0.89062 0.65625,-0.28125 1.453125,-0.28125 1.5625,0 2.609375,1.15625 1.046875,1.15625 1.046875,3.35937 0,2.25 -0.734375,4.45313 -0.84375,2.625 -2.375,3.92187 -1.171875,1 -2.65625,1 -1.53125,0 -2.59375,-1.20312 -1.046875,-1.20313 -1.046875,-3.5 z m 1.625,0.4375 q 0,1.25 0.421875,1.95312 0.5625,0.96875 1.671875,0.96875 0.984375,0 1.78125,-0.875 1.140625,-1.25 1.71875,-3.64062 0.578125,-2.40625 0.578125,-3.92188 0,-1.46875 -0.5625,-2.10937 -0.546875,-0.65625 -1.46875,-0.65625 -0.671875,0 -1.25,0.34375 -0.578125,0.34375 -1.109375,1.17187 -0.75,1.1875 -1.3125,3.53125 -0.46875,2 -0.46875,3.23438 z m 12.215271,4.03125 7.703125,-13.59375 2.140625,0 2.25,13.59375 -1.765625,0 -0.65625,-3.92188 -5.5,0 -2.1875,3.92188 -1.984375,0 z m 4.953125,-5.3125 4.5,0 -0.53125,-3.42188 q -0.3125,-2.03125 -0.375,-3.375 -0.46875,1.15625 -1.359375,2.76563 l -2.234375,4.03125 z m 15.302948,1.71875 1.671875,0.17187 q -0.625,1.85938 -1.796875,2.75 -1.15625,0.89063 -2.640625,0.89063 -1.609375,0 -2.609375,-1.03125 -1,-1.04688 -1,-2.90625 0,-1.60938 0.640625,-3.17188 0.640625,-1.5625 1.828125,-2.375 1.203125,-0.8125 2.734375,-0.8125 1.578125,0 2.5,0.90625 0.9375,0.89063 0.9375,2.35938 l -1.65625,0.10937 q 0,-0.9375 -0.53125,-1.45312 -0.53125,-0.53125 -1.40625,-0.53125 -1.015625,0 -1.765625,0.64062 -0.734375,0.64063 -1.15625,1.9375 -0.421875,1.29688 -0.421875,2.51563 0,1.25 0.546875,1.89062 0.5625,0.625 1.375,0.625 0.828125,0 1.5625,-0.60937 0.75,-0.625 1.1875,-1.90625 z m 9.328125,0 1.671875,0.17187 q -0.625,1.85938 -1.796875,2.75 -1.15625,0.89063 -2.640625,0.89063 -1.609375,0 -2.609375,-1.03125 -1,-1.04688 -1,-2.90625 0,-1.60938 0.640625,-3.17188 0.640625,-1.5625 1.828125,-2.375 1.203125,-0.8125 2.734375,-0.8125 1.578125,0 2.5,0.90625 0.9375,0.89063 0.9375,2.35938 l -1.65625,0.10937 q 0,-0.9375 -0.53125,-1.45312 -0.53125,-0.53125 -1.40625,-0.53125 -1.015625,0 -1.765625,0.64062 -0.734375,0.64063 -1.15625,1.9375 -0.421875,1.29688 -0.421875,2.51563 0,1.25 0.546875,1.89062 0.5625,0.625 1.375,0.625 0.828125,0 1.5625,-0.60937 0.75,-0.625 1.1875,-1.90625 z m 9.765625,0.25 1.625,0.15625 q -0.359375,1.21875 -1.625,2.3125 -1.265625,1.09375 -3.015625,1.09375 -1.09375,0 -2.015625,-0.5 -0.90625,-0.5 -1.390625,-1.46875 -0.46875,-0.96875 -0.46875,-2.20313 0,-1.60937 0.75,-3.125 0.75,-1.51562 1.9375,-2.25 1.1875,-0.75 2.5625,-0.75 1.765625,0 2.8125,1.09375 1.0625,1.09375 1.0625,2.98438 0,0.73437 -0.140625,1.48437 l -7.25,0 q -0.03125,0.29688 -0.03125,0.53125 0,1.375 0.625,2.10938 0.640625,0.71875 1.5625,0.71875 0.859375,0 1.6875,-0.5625 0.84375,-0.5625 1.3125,-1.625 z m -4.890625,-2.45313 5.53125,0 q 0.01563,-0.25 0.01563,-0.35937 0,-1.26563 -0.640625,-1.9375 -0.625,-0.67188 -1.625,-0.67188 -1.0625,0 -1.953125,0.75 -0.890625,0.73438 -1.328125,2.21875 z m 7.203842,9.57813 2.84375,-13.64063 1.546875,0 -0.28125,1.375 q 0.859375,-0.89062 1.53125,-1.23437 0.6875,-0.35938 1.453125,-0.35938 1.40625,0 2.328125,1.03125 0.9375,1.01563 0.9375,2.9375 0,1.53125 -0.515625,2.79688 -0.515625,1.26562 -1.265625,2.04687 -0.734375,0.76563 -1.5,1.125 -0.75,0.35938 -1.546875,0.35938 -1.765625,0 -2.75,-1.79688 l -1.109375,5.35938 -1.671875,0 z m 3.3125,-7.8125 q 0,1.10937 0.15625,1.53125 0.234375,0.60937 0.765625,0.98437 0.53125,0.35938 1.21875,0.35938 1.453125,0 2.34375,-1.625 0.890625,-1.625 0.890625,-3.32813 0,-1.25 -0.609375,-1.92187 -0.59375,-0.6875 -1.484375,-0.6875 -0.640625,0 -1.1875,0.34375 -0.546875,0.32812 -1.015625,1 -0.46875,0.67187 -0.78125,1.65625 -0.296875,0.96875 -0.296875,1.6875 z m 11.813215,2.67187 -0.28125,1.375 q -0.60937,0.15625 -1.17187,0.15625 -1,0 -1.59375,-0.5 -0.45313,-0.375 -0.45313,-1.01562 0,-0.3125 0.25,-1.48438 l 1.1875,-5.71875 -1.32812,0 0.28125,-1.3125 1.32812,0 0.5,-2.42187 1.92188,-1.15625 -0.75,3.57812 1.65625,0 -0.28125,1.3125 -1.64063,0 -1.14062,5.4375 q -0.21875,1.04688 -0.21875,1.25 0,0.29688 0.17187,0.45313 0.17188,0.15625 0.5625,0.15625 0.5625,0 1,-0.10938 z m 8.49581,-1.98437 1.625,0.15625 q -0.35938,1.21875 -1.625,2.3125 -1.26563,1.09375 -3.01563,1.09375 -1.09375,0 -2.01562,-0.5 -0.90625,-0.5 -1.39063,-1.46875 -0.46875,-0.96875 -0.46875,-2.20313 0,-1.60937 0.75,-3.125 0.75,-1.51562 1.9375,-2.25 1.1875,-0.75 2.5625,-0.75 1.76563,0 2.8125,1.09375 1.0625,1.09375 1.0625,2.98438 0,0.73437 -0.14062,1.48437 l -7.25,0 q -0.0312,0.29688 -0.0312,0.53125 0,1.375 0.625,2.10938 0.64062,0.71875 1.5625,0.71875 0.85937,0 1.6875,-0.5625 0.84375,-0.5625 1.3125,-1.625 z m -4.89063,-2.45313 5.53125,0 q 0.0156,-0.25 0.0156,-0.35937 0,-1.26563 -0.64063,-1.9375 -0.625,-0.67188 -1.625,-0.67188 -1.0625,0 -1.95312,0.75 -0.89063,0.73438 -1.32813,2.21875 z m 14.67259,4.375 q -1.45312,1.64063 -3.01562,1.64063 -1.40625,0 -2.34375,-1.03125 -0.92188,-1.03125 -0.92188,-3 0,-1.79688 0.73438,-3.28125 0.75,-1.5 1.84375,-2.23438 1.10937,-0.75 2.23437,-0.75 1.82813,0 2.76563,1.78125 l 1.10937,-5.29687 1.67188,0 -2.82813,13.59375 -1.54687,0 0.29687,-1.42188 z m -4.60937,-2.70312 q 0,1.03125 0.20312,1.625 0.20313,0.59375 0.6875,0.98437 0.5,0.39063 1.1875,0.39063 1.14063,0 2.0625,-1.1875 1.25,-1.57813 1.25,-3.89063 0,-1.17187 -0.60937,-1.82812 -0.60938,-0.65625 -1.54688,-0.65625 -0.59375,0 -1.09375,0.26562 -0.5,0.26563 -0.98437,0.92188 -0.48438,0.64062 -0.82813,1.64062 -0.32812,0.98438 -0.32812,1.73438 z m 20.16839,2.90625 q -0.875,0.75 -1.6875,1.09375 -0.8125,0.34375 -1.71875,0.34375 -1.375,0 -2.21875,-0.79688 -0.82812,-0.79687 -0.82812,-2.0625 0,-0.8125 0.375,-1.45312 0.39062,-0.64063 1,-1.01563 0.625,-0.39062 1.53125,-0.5625 0.5625,-0.10937 2.14062,-0.17187 1.57813,-0.0625 2.26563,-0.32813 0.20312,-0.6875 0.20312,-1.14062 0,-0.59375 -0.4375,-0.92188 -0.57812,-0.46875 -1.70312,-0.46875 -1.04688,0 -1.73438,0.46875 -0.67187,0.46875 -0.96875,1.32813 l -1.70312,-0.14063 q 0.51562,-1.46875 1.64062,-2.25 1.14063,-0.78125 2.85938,-0.78125 1.82812,0 2.89062,0.875 0.8125,0.65625 0.8125,1.6875 0,0.79688 -0.23437,1.82813 l -0.54688,2.45312 q -0.25,1.17188 -0.25,1.89063 0,0.46875 0.20313,1.34375 l -1.70313,0 q -0.14062,-0.48438 -0.1875,-1.21875 z m 0.60938,-3.76563 q -0.34375,0.125 -0.75,0.20313 -0.40625,0.0781 -1.34375,0.15625 -1.46875,0.14062 -2.07813,0.34375 -0.59375,0.1875 -0.90625,0.625 -0.3125,0.4375 -0.3125,0.96875 0,0.70312 0.48438,1.15625 0.5,0.45312 1.39062,0.45312 0.84375,0 1.60938,-0.4375 0.76562,-0.4375 1.20312,-1.21875 0.45313,-0.79687 0.70313,-2.25 z m 3.26634,1.60938 1.6875,-0.0937 q 0,0.71875 0.21875,1.23437 0.21875,0.51563 0.8125,0.84375 0.60938,0.3125 1.40625,0.3125 1.10938,0 1.67188,-0.4375 0.5625,-0.45312 0.5625,-1.04687 0,-0.4375 -0.34375,-0.82813 -0.34375,-0.39062 -1.67188,-0.95312 -1.32812,-0.57813 -1.70312,-0.8125 -0.625,-0.375 -0.9375,-0.89063 -0.3125,-0.51562 -0.3125,-1.1875 0,-1.17187 0.92187,-2 0.9375,-0.84375 2.60938,-0.84375 1.84375,0 2.8125,0.85938 0.96875,0.85937 1.01562,2.26562 l -1.64062,0.10938 q -0.0469,-0.89063 -0.64063,-1.40625 -0.59375,-0.53125 -1.67187,-0.53125 -0.875,0 -1.35938,0.40625 -0.48437,0.39062 -0.48437,0.85937 0,0.46875 0.42187,0.8125 0.28125,0.25 1.4375,0.75 1.9375,0.82813 2.4375,1.3125 0.79688,0.76563 0.79688,1.875 0,0.73438 -0.45313,1.4375 -0.45312,0.70313 -1.375,1.125 -0.92187,0.42188 -2.17187,0.42188 -1.70313,0 -2.90625,-0.84375 -1.20313,-0.84375 -1.14063,-2.75 z"
       id="path4109"
       inkscape:connector-curvature="0"
       style="fill:#000000;fill-rule:nonzero" />
    <path
       d="m 54.79397,291.34372 q -1.359375,-0.28125 -2.265625,-1.375 -0.890625,-1.09375 -0.984375,-2.6875 l 1.6875,-0.0937 q 0.09375,1.10938 0.578125,1.8125 0.5,0.6875 1.265625,0.95313 l 1.078125,-5.125 q -1.09375,-0.46875 -1.59375,-0.875 -0.6875,-0.54688 -1.046875,-1.28125 -0.359375,-0.75 -0.359375,-1.53125 0,-1.46875 1.1875,-2.59375 1.203125,-1.125 2.984375,-1.125 0.04687,0 0.359375,0.0156 l 0.15625,-0.73437 0.921875,0 -0.171875,0.84375 q 1.265625,0.32812 1.984375,1.15625 0.71875,0.82812 0.875,2.20312 l -1.59375,0.0781 q -0.140625,-0.82813 -0.5,-1.3125 -0.359375,-0.5 -1.046875,-0.73438 l -0.984375,4.67188 q 1.875,0.76562 2.578125,1.67187 0.703125,0.90625 0.703125,2.01563 0,1.0625 -0.625,2.125 -0.625,1.04687 -1.65625,1.54687 -1.03125,0.48438 -2.375,0.48438 -0.09375,0 -0.265625,0 l -0.328125,1.57812 -0.921875,0 0.359375,-1.6875 z m 1.6875,-8.10937 0.9375,-4.45313 q -0.71875,-0.0312 -1.328125,0.25 -0.609375,0.28125 -0.953125,0.82813 -0.328125,0.53125 -0.328125,1.17187 0,0.70313 0.34375,1.21875 0.34375,0.5 1.328125,0.98438 z m 0.515625,1.95312 -1.03125,4.92188 q 1.25,0.0469 2.09375,-0.73438 0.859375,-0.79687 0.859375,-1.89062 0,-0.73438 -0.390625,-1.25 -0.375,-0.53125 -1.53125,-1.04688 z m 4.578842,6.03125 2.0625,-9.85937 1.671875,0 -0.34375,1.625 q 0.9375,-1.04688 1.671875,-1.4375 0.734375,-0.40625 1.609375,-0.40625 0.90625,0 1.515625,0.5 0.625,0.48437 0.828125,1.34375 0.75,-0.92188 1.578125,-1.375 0.828125,-0.46875 1.75,-0.46875 1.234375,0 1.84375,0.59375 0.625,0.57812 0.625,1.64062 0,0.45313 -0.21875,1.5 l -1.328125,6.34375 -1.671875,0 1.359375,-6.51562 q 0.171875,-0.79688 0.171875,-1.14063 0,-0.48437 -0.3125,-0.75 -0.296875,-0.28125 -0.859375,-0.28125 -0.75,0 -1.53125,0.45313 -0.78125,0.45312 -1.21875,1.1875 -0.421875,0.73437 -0.75,2.26562 l -1,4.78125 -1.671875,0 1.390625,-6.65625 q 0.140625,-0.67187 0.140625,-0.95312 0,-0.48438 -0.296875,-0.78125 -0.296875,-0.29688 -0.78125,-0.29688 -0.71875,0 -1.5,0.45313 -0.78125,0.45312 -1.28125,1.26562 -0.484375,0.8125 -0.796875,2.3125 l -0.984375,4.65625 -1.671875,0 z m 15.697052,-3.375 1.6875,-0.0937 q 0,0.71875 0.21875,1.23438 0.21875,0.51562 0.8125,0.84375 0.609375,0.3125 1.40625,0.3125 1.109375,0 1.671875,-0.4375 0.5625,-0.45313 0.5625,-1.04688 0,-0.4375 -0.34375,-0.82812 -0.34375,-0.39063 -1.671875,-0.95313 -1.328125,-0.57812 -1.703125,-0.8125 -0.625,-0.375 -0.9375,-0.89062 -0.3125,-0.51563 -0.3125,-1.1875 0,-1.17188 0.921875,-2 0.9375,-0.84375 2.609375,-0.84375 1.84375,0 2.8125,0.85937 0.96875,0.85938 1.015625,2.26563 l -1.640625,0.10937 q -0.04687,-0.89062 -0.640625,-1.40625 -0.59375,-0.53125 -1.671875,-0.53125 -0.875,0 -1.359375,0.40625 -0.484375,0.39063 -0.484375,0.85938 0,0.46875 0.421875,0.8125 0.28125,0.25 1.4375,0.75 1.9375,0.82812 2.4375,1.3125 0.796875,0.76562 0.796875,1.875 0,0.73437 -0.453125,1.4375 -0.453125,0.70312 -1.375,1.125 -0.921875,0.42187 -2.171875,0.42187 -1.703125,0 -2.90625,-0.84375 -1.203125,-0.84375 -1.140625,-2.75 z m 9.078125,4.26563 1.703125,0.15625 q -0.01563,0.57812 0.140625,0.85937 0.15625,0.29688 0.5,0.45313 0.453125,0.20312 1.171875,0.20312 1.53125,0 2.203125,-0.79687 0.4375,-0.51563 0.796875,-2.29688 l 0.171875,-0.79687 q -1.3125,1.32812 -2.78125,1.32812 -1.5,0 -2.515625,-1.09375 -1,-1.10937 -1,-3.125 0,-1.65625 0.796875,-3.04687 0.796875,-1.39063 1.890625,-2.09375 1.09375,-0.71875 2.25,-0.71875 1.9375,0 2.984375,1.84375 l 0.34375,-1.625 1.53125,0 -1.984375,9.51562 q -0.3125,1.5625 -0.84375,2.4375 -0.53125,0.89063 -1.484375,1.35938 -0.9375,0.48437 -2.171875,0.48437 -1.1875,0 -2.046875,-0.3125 -0.84375,-0.29687 -1.28125,-0.89062 -0.421875,-0.57813 -0.421875,-1.34375 0,-0.23438 0.04687,-0.5 z m 2.109375,-5.25 q 0,1.01562 0.1875,1.51562 0.28125,0.71875 0.796875,1.09375 0.515625,0.375 1.140625,0.375 0.828125,0 1.640625,-0.57812 0.828125,-0.57813 1.328125,-1.79688 0.5,-1.21875 0.5,-2.3125 0,-1.21875 -0.671875,-1.9375 -0.671875,-0.71875 -1.65625,-0.71875 -0.625,0 -1.203125,0.32813 -0.5625,0.32812 -1.0625,1 -0.5,0.67187 -0.75,1.60937 -0.25,0.9375 -0.25,1.42188 z m 10.750717,-7.34375 0.40625,-1.89063 1.656254,0 -0.39063,1.89063 -1.671874,0 z m -2.453125,11.70312 2.0625,-9.85937 1.687499,0 -2.062499,9.85937 -1.6875,0 z m 10.863569,-1.42187 q -1.45312,1.64062 -3.01562,1.64062 -1.40625,0 -2.34375,-1.03125 -0.92188,-1.03125 -0.92188,-3 0,-1.79687 0.73438,-3.28125 0.75,-1.5 1.84375,-2.23437 1.10937,-0.75 2.23437,-0.75 1.82813,0 2.76563,1.78125 l 1.10937,-5.29688 1.67188,0 -2.82813,13.59375 -1.54687,0 0.29687,-1.42187 z m -4.60937,-2.70313 q 0,1.03125 0.20312,1.625 0.20313,0.59375 0.6875,0.98438 0.5,0.39062 1.1875,0.39062 1.14063,0 2.0625,-1.1875 1.25,-1.57812 1.25,-3.89062 0,-1.17188 -0.60937,-1.82813 -0.60938,-0.65625 -1.54688,-0.65625 -0.59375,0 -1.09375,0.26563 -0.5,0.26562 -0.98437,0.92187 -0.48438,0.64063 -0.82813,1.64063 -0.32812,0.98437 -0.32812,1.73437 z"
       id="path4111"
       inkscape:connector-curvature="0"
       style="fill:#000000;fill-rule:nonzero" />
  </g>
  <path
     style="fill:#000000;fill-opacity:0;fill-rule:nonzero"
     inkscape:connector-curvature="0"
     id="path4113"
     d="m 523.49866,80.11286 76.69293,0 0,35.52756 -76.69293,0 z" />
  <path
     style="fill:#000000;fill-rule:nonzero"
     inkscape:connector-curvature="0"
     id="path4115"
     d="m 557.2823,104.0407 2.0625,-9.859375 1.53125,0 -0.375,1.71875 q 1,-1 1.85937,-1.46875 0.85938,-0.46875 1.76563,-0.46875 1.20312,0 1.875,0.65625 0.6875,0.640625 0.6875,1.734375 0,0.546875 -0.25,1.71875 l -1.25,5.96875 -1.67188,0 1.3125,-6.25 q 0.1875,-0.90625 0.1875,-1.34375 0,-0.484375 -0.34375,-0.78125 -0.32812,-0.3125 -0.96875,-0.3125 -1.29687,0 -2.3125,0.921875 -1,0.921875 -1.46875,3.1875 l -0.95312,4.578125 -1.6875,0 z" />
  <path
     style="fill:#000000;fill-opacity:0;fill-rule:nonzero"
     inkscape:connector-curvature="0"
     id="path4123"
     d="m 246.10236,124.04199 144,0 0,48 -144,0 z" />
  <g
     id="phase1"
     inkscape:label="#g4201">
    <path
       d="M 322.72964,189.29659 382.50918,154.8084"
       id="path4117"
       inkscape:connector-curvature="0"
       style="fill:#000000;fill-opacity:0;fill-rule:nonzero" />
    <path
       d="m 322.72964,189.29659 49.38531,-28.49152"
       id="path4119"
       inkscape:connector-curvature="0"
       style="stroke:#000000;stroke-width:2;stroke-linecap:butt;stroke-linejoin:round" />
    <path
       d="m 373.76578,163.66649 6.21085,-7.397 -9.51249,1.67416 z"
       id="path4121"
       inkscape:connector-curvature="0"
       style="fill:#000000;fill-rule:evenodd;stroke:#000000;stroke-width:2;stroke-linecap:butt" />
    <path
       d="m 295.48306,150.6123 1.67188,0.17187 q -0.625,1.85938 -1.79688,2.75 -1.15625,0.89063 -2.64062,0.89063 -1.60938,0 -2.60938,-1.03125 -1,-1.04688 -1,-2.90625 0,-1.60938 0.64063,-3.17188 0.64062,-1.5625 1.82812,-2.375 1.20313,-0.8125 2.73438,-0.8125 1.57812,0 2.5,0.90625 0.9375,0.89063 0.9375,2.35938 l -1.65625,0.10937 q 0,-0.9375 -0.53125,-1.45312 -0.53125,-0.53125 -1.40625,-0.53125 -1.01563,0 -1.76563,0.64062 -0.73437,0.64063 -1.15625,1.9375 -0.42187,1.29688 -0.42187,2.51563 0,1.25 0.54687,1.89062 0.5625,0.625 1.375,0.625 0.82813,0 1.5625,-0.60937 0.75,-0.625 1.1875,-1.90625 z m 2.8125,-0.14063 q 0,-2.89062 1.70313,-4.78125 1.40625,-1.5625 3.67187,-1.5625 1.78125,0 2.875,1.125 1.09375,1.10938 1.09375,3 0,1.6875 -0.6875,3.15625 -0.6875,1.45313 -1.95312,2.23438 -1.26563,0.78125 -2.67188,0.78125 -1.15625,0 -2.09375,-0.48438 -0.9375,-0.5 -1.4375,-1.39062 -0.5,-0.90625 -0.5,-2.07813 z m 1.6875,-0.17187 q 0,1.39062 0.65625,2.10937 0.67188,0.71875 1.70313,0.71875 0.54687,0 1.0625,-0.21875 0.53125,-0.21875 0.98437,-0.65625 0.46875,-0.45312 0.78125,-1.01562 0.32813,-0.57813 0.51563,-1.23438 0.28125,-0.92187 0.28125,-1.76562 0,-1.32813 -0.67188,-2.0625 -0.67187,-0.75 -1.6875,-0.75 -0.78125,0 -1.4375,0.375 -0.65625,0.375 -1.1875,1.10937 -0.51562,0.71875 -0.76562,1.6875 -0.23438,0.95313 -0.23438,1.70313 z m 8.39136,3.90625 2.0625,-9.85938 1.67187,0 -0.34375,1.625 q 0.9375,-1.04687 1.67188,-1.4375 0.73437,-0.40625 1.60937,-0.40625 0.90625,0 1.51563,0.5 0.625,0.48438 0.82812,1.34375 0.75,-0.92187 1.57813,-1.375 0.82812,-0.46875 1.75,-0.46875 1.23437,0 1.84375,0.59375 0.625,0.57813 0.625,1.64063 0,0.45312 -0.21875,1.5 l -1.32813,6.34375 -1.67187,0 1.35937,-6.51563 q 0.17188,-0.79687 0.17188,-1.14062 0,-0.48438 -0.3125,-0.75 -0.29688,-0.28125 -0.85938,-0.28125 -0.75,0 -1.53125,0.45312 -0.78125,0.45313 -1.21875,1.1875 -0.42187,0.73438 -0.75,2.26563 l -1,4.78125 -1.67187,0 1.39062,-6.65625 q 0.14063,-0.67188 0.14063,-0.95313 0,-0.48437 -0.29688,-0.78125 -0.29687,-0.29687 -0.78125,-0.29687 -0.71875,0 -1.5,0.45312 -0.78125,0.45313 -1.28125,1.26563 -0.48437,0.8125 -0.79687,2.3125 l -0.98438,4.65625 -1.67187,0 z m 15.5408,0 2.0625,-9.85938 1.67187,0 -0.34375,1.625 q 0.9375,-1.04687 1.67188,-1.4375 0.73437,-0.40625 1.60937,-0.40625 0.90625,0 1.51563,0.5 0.625,0.48438 0.82812,1.34375 0.75,-0.92187 1.57813,-1.375 0.82812,-0.46875 1.75,-0.46875 1.23437,0 1.84375,0.59375 0.625,0.57813 0.625,1.64063 0,0.45312 -0.21875,1.5 l -1.32813,6.34375 -1.67187,0 1.35937,-6.51563 q 0.17188,-0.79687 0.17188,-1.14062 0,-0.48438 -0.3125,-0.75 -0.29688,-0.28125 -0.85938,-0.28125 -0.75,0 -1.53125,0.45312 -0.78125,0.45313 -1.21875,1.1875 -0.42187,0.73438 -0.75,2.26563 l -1,4.78125 -1.67187,0 1.39062,-6.65625 q 0.14063,-0.67188 0.14063,-0.95313 0,-0.48437 -0.29688,-0.78125 -0.29687,-0.29687 -0.78125,-0.29687 -0.71875,0 -1.5,0.45312 -0.78125,0.45313 -1.28125,1.26563 -0.48437,0.8125 -0.79687,2.3125 l -0.98438,4.65625 -1.67187,0 z m 17.93143,-11.70313 0.40625,-1.89062 1.65625,0 -0.39063,1.89062 -1.67187,0 z m -2.45313,11.70313 2.0625,-9.85938 1.6875,0 -2.0625,9.85938 -1.6875,0 z m 8.14481,-1.35938 -0.28125,1.375 q -0.60938,0.15625 -1.17188,0.15625 -1,0 -1.59375,-0.5 -0.45312,-0.375 -0.45312,-1.01562 0,-0.3125 0.25,-1.48438 l 1.1875,-5.71875 -1.32813,0 0.28125,-1.3125 1.32813,0 0.5,-2.42187 1.92187,-1.15625 -0.75,3.57812 1.65625,0 -0.28125,1.3125 -1.64062,0 -1.14063,5.4375 q -0.21875,1.04688 -0.21875,1.25 0,0.29688 0.17188,0.45313 0.17187,0.15625 0.5625,0.15625 0.5625,0 1,-0.10938 z"
       id="path4125"
       inkscape:connector-curvature="0"
       style="fill:#000000;fill-rule:nonzero" />
  </g>
  <path
     style="fill:#000000;fill-opacity:0;fill-rule:nonzero"
     inkscape:connector-curvature="0"
     id="path4127"
     d="m 309.69028,184.86876 144,0 0,48 -144,0 z" />
  <path
     style="fill:#000000;fill-opacity:0;fill-rule:nonzero"
     inkscape:connector-curvature="0"
     id="path4137"
     d="m 551.16534,132.32283 144,0 0,48 -144,0 z" />
  <g
     id="phase2"
     inkscape:label="#g4207">
    <path
       d="m 382.5092,180.32283 -59.77954,34.48819"
       id="path4079"
       inkscape:connector-curvature="0"
       style="fill:#000000;fill-opacity:0;fill-rule:nonzero" />
    <path
       d="m 382.5092,180.32283 -49.38528,28.49152"
       id="path4081"
       inkscape:connector-curvature="0"
       style="stroke:#000000;stroke-width:2;stroke-linecap:butt;stroke-linejoin:round" />
    <path
       d="m 331.47308,205.95294 -6.21088,7.39699 9.51249,-1.67417 z"
       id="path4083"
       inkscape:connector-curvature="0"
       style="fill:#000000;fill-rule:evenodd;stroke:#000000;stroke-width:2;stroke-linecap:butt" />
    <path
       d="m 359.5051,215.03282 2.0625,-9.85938 1.48438,0 -0.42188,2.01563 q 0.76563,-1.14063 1.48438,-1.6875 0.73437,-0.54688 1.5,-0.54688 0.5,0 1.23437,0.35938 l -0.6875,1.5625 q -0.4375,-0.3125 -0.95312,-0.3125 -0.875,0 -1.8125,0.98437 -0.92188,0.98438 -1.45313,3.53125 l -0.82812,3.95313 -1.60938,0 z m 13.46268,-3.34375 1.625,0.15625 q -0.35938,1.21875 -1.625,2.3125 -1.26563,1.09375 -3.01563,1.09375 -1.09375,0 -2.01562,-0.5 -0.90625,-0.5 -1.39063,-1.46875 -0.46875,-0.96875 -0.46875,-2.20313 0,-1.60937 0.75,-3.125 0.75,-1.51562 1.9375,-2.25 1.1875,-0.75 2.5625,-0.75 1.76563,0 2.8125,1.09375 1.0625,1.09375 1.0625,2.98438 0,0.73437 -0.14062,1.48437 l -7.25,0 q -0.0312,0.29688 -0.0312,0.53125 0,1.375 0.625,2.10938 0.64062,0.71875 1.5625,0.71875 0.85937,0 1.6875,-0.5625 0.84375,-0.5625 1.3125,-1.625 z m -4.89063,-2.45313 5.53125,0 q 0.0156,-0.25 0.0156,-0.35937 0,-1.26563 -0.64063,-1.9375 -0.625,-0.67188 -1.625,-0.67188 -1.0625,0 -1.95312,0.75 -0.89063,0.73438 -1.32813,2.21875 z m 8.17261,2.42188 1.6875,-0.0937 q 0,0.71875 0.21875,1.23437 0.21875,0.51563 0.8125,0.84375 0.60937,0.3125 1.40625,0.3125 1.10937,0 1.67187,-0.4375 0.5625,-0.45312 0.5625,-1.04687 0,-0.4375 -0.34375,-0.82813 -0.34375,-0.39062 -1.67187,-0.95312 -1.32813,-0.57813 -1.70313,-0.8125 -0.625,-0.375 -0.9375,-0.89063 -0.3125,-0.51562 -0.3125,-1.1875 0,-1.17187 0.92188,-2 0.9375,-0.84375 2.60937,-0.84375 1.84375,0 2.8125,0.85938 0.96875,0.85937 1.01563,2.26562 l -1.64063,0.10938 q -0.0469,-0.89063 -0.64062,-1.40625 -0.59375,-0.53125 -1.67188,-0.53125 -0.875,0 -1.35937,0.40625 -0.48438,0.39062 -0.48438,0.85937 0,0.46875 0.42188,0.8125 0.28125,0.25 1.4375,0.75 1.9375,0.82813 2.4375,1.3125 0.79687,0.76563 0.79687,1.875 0,0.73438 -0.45312,1.4375 -0.45313,0.70313 -1.375,1.125 -0.92188,0.42188 -2.17188,0.42188 -1.70312,0 -2.90625,-0.84375 -1.20312,-0.84375 -1.14062,-2.75 z m 15.90625,1.59375 q -1.78125,2 -3.625,2 -1.14063,0 -1.84375,-0.64063 -0.70313,-0.65625 -0.70313,-1.60937 0,-0.625 0.3125,-2.14063 l 1.1875,-5.6875 1.6875,0 -1.32812,6.3125 q -0.15625,0.78125 -0.15625,1.21875 0,0.5625 0.32812,0.875 0.34375,0.29688 1,0.29688 0.70313,0 1.375,-0.34375 0.67188,-0.34375 1.15625,-0.92188 0.5,-0.57812 0.79688,-1.375 0.20312,-0.51562 0.48437,-1.79687 l 0.89063,-4.26563 1.67187,0 -2.0625,9.85938 -1.54687,0 0.375,-1.78125 z m 3.51633,1.78125 2.84375,-13.59375 1.67187,0 -2.82812,13.59375 -1.6875,0 z m 8.20733,-1.35938 -0.28125,1.375 q -0.60937,0.15625 -1.17187,0.15625 -1,0 -1.59375,-0.5 -0.45313,-0.375 -0.45313,-1.01562 0,-0.3125 0.25,-1.48438 l 1.1875,-5.71875 -1.32812,0 0.28125,-1.3125 1.32812,0 0.5,-2.42187 1.92188,-1.15625 -0.75,3.57812 1.65625,0 -0.28125,1.3125 -1.64063,0 -1.14062,5.4375 q -0.21875,1.04688 -0.21875,1.25 0,0.29688 0.17187,0.45313 0.17188,0.15625 0.5625,0.15625 0.5625,0 1,-0.10938 z"
       id="path4129"
       inkscape:connector-curvature="0"
       style="fill:#000000;fill-rule:nonzero" />
    <path
       d="m 564.9711,166.94751 43.81103,26.83464"
       id="path4131"
       inkscape:connector-curvature="0"
       style="fill:#000000;fill-opacity:0;fill-rule:nonzero" />
    <path
       d="m 564.9711,166.94751 33.578,20.56682"
       id="path4133"
       inkscape:connector-curvature="0"
       style="stroke:#000000;stroke-width:2;stroke-linecap:butt;stroke-linejoin:round" />
    <path
       d="m 596.82367,190.33138 9.46521,1.92363 -6.01428,-7.55769 z"
       id="path4135"
       inkscape:connector-curvature="0"
       style="fill:#000000;fill-rule:evenodd;stroke:#000000;stroke-width:2;stroke-linecap:butt" />
    <path
       d="m 600.5461,158.89314 1.67188,0.17187 q -0.625,1.85938 -1.79688,2.75 -1.15625,0.89063 -2.64062,0.89063 -1.60938,0 -2.60938,-1.03125 -1,-1.04688 -1,-2.90625 0,-1.60938 0.64063,-3.17188 0.64062,-1.5625 1.82812,-2.375 1.20313,-0.8125 2.73438,-0.8125 1.57812,0 2.5,0.90625 0.9375,0.89063 0.9375,2.35938 l -1.65625,0.10937 q 0,-0.9375 -0.53125,-1.45312 -0.53125,-0.53125 -1.40625,-0.53125 -1.01563,0 -1.76563,0.64062 -0.73437,0.64063 -1.15625,1.9375 -0.42187,1.29688 -0.42187,2.51563 0,1.25 0.54687,1.89062 0.5625,0.625 1.375,0.625 0.82813,0 1.5625,-0.60937 0.75,-0.625 1.1875,-1.90625 z m 2.8125,-0.14063 q 0,-2.89062 1.70313,-4.78125 1.40625,-1.5625 3.67187,-1.5625 1.78125,0 2.875,1.125 1.09375,1.10938 1.09375,3 0,1.6875 -0.6875,3.15625 -0.6875,1.45313 -1.95312,2.23438 -1.26563,0.78125 -2.67188,0.78125 -1.15625,0 -2.09375,-0.48438 -0.9375,-0.5 -1.4375,-1.39062 -0.5,-0.90625 -0.5,-2.07813 z m 1.6875,-0.17187 q 0,1.39062 0.65625,2.10937 0.67188,0.71875 1.70313,0.71875 0.54687,0 1.0625,-0.21875 0.53125,-0.21875 0.98437,-0.65625 0.46875,-0.45312 0.78125,-1.01562 0.32813,-0.57813 0.51563,-1.23438 0.28125,-0.92187 0.28125,-1.76562 0,-1.32813 -0.67188,-2.0625 -0.67187,-0.75 -1.6875,-0.75 -0.78125,0 -1.4375,0.375 -0.65625,0.375 -1.1875,1.10937 -0.51562,0.71875 -0.76562,1.6875 -0.23438,0.95313 -0.23438,1.70313 z m 8.39136,3.90625 2.0625,-9.85938 1.67187,0 -0.34375,1.625 q 0.9375,-1.04687 1.67188,-1.4375 0.73437,-0.40625 1.60937,-0.40625 0.90625,0 1.51563,0.5 0.625,0.48438 0.82812,1.34375 0.75,-0.92187 1.57813,-1.375 0.82812,-0.46875 1.75,-0.46875 1.23437,0 1.84375,0.59375 0.625,0.57813 0.625,1.64063 0,0.45312 -0.21875,1.5 l -1.32813,6.34375 -1.67187,0 1.35937,-6.51563 q 0.17188,-0.79687 0.17188,-1.14062 0,-0.48438 -0.3125,-0.75 -0.29688,-0.28125 -0.85938,-0.28125 -0.75,0 -1.53125,0.45312 -0.78125,0.45313 -1.21875,1.1875 -0.42187,0.73438 -0.75,2.26563 l -1,4.78125 -1.67187,0 1.39062,-6.65625 q 0.14063,-0.67188 0.14063,-0.95313 0,-0.48437 -0.29688,-0.78125 -0.29687,-0.29687 -0.78125,-0.29687 -0.71875,0 -1.5,0.45312 -0.78125,0.45313 -1.28125,1.26563 -0.48437,0.8125 -0.79687,2.3125 l -0.98438,4.65625 -1.67187,0 z m 15.54077,0 2.0625,-9.85938 1.67187,0 -0.34375,1.625 q 0.9375,-1.04687 1.67188,-1.4375 0.73437,-0.40625 1.60937,-0.40625 0.90625,0 1.51563,0.5 0.625,0.48438 0.82812,1.34375 0.75,-0.92187 1.57813,-1.375 0.82812,-0.46875 1.75,-0.46875 1.23437,0 1.84375,0.59375 0.625,0.57813 0.625,1.64063 0,0.45312 -0.21875,1.5 l -1.32813,6.34375 -1.67187,0 1.35937,-6.51563 q 0.17188,-0.79687 0.17188,-1.14062 0,-0.48438 -0.3125,-0.75 -0.29688,-0.28125 -0.85938,-0.28125 -0.75,0 -1.53125,0.45312 -0.78125,0.45313 -1.21875,1.1875 -0.42187,0.73438 -0.75,2.26563 l -1,4.78125 -1.67187,0 1.39062,-6.65625 q 0.14063,-0.67188 0.14063,-0.95313 0,-0.48437 -0.29688,-0.78125 -0.29687,-0.29687 -0.78125,-0.29687 -0.71875,0 -1.5,0.45312 -0.78125,0.45313 -1.28125,1.26563 -0.48437,0.8125 -0.79687,2.3125 l -0.98438,4.65625 -1.67187,0 z m 17.93146,-11.70313 0.40625,-1.89062 1.65625,0 -0.39063,1.89062 -1.67187,0 z m -2.45313,11.70313 2.0625,-9.85938 1.6875,0 -2.0625,9.85938 -1.6875,0 z m 8.14478,-1.35938 -0.28125,1.375 q -0.60938,0.15625 -1.17188,0.15625 -1,0 -1.59375,-0.5 -0.45312,-0.375 -0.45312,-1.01562 0,-0.3125 0.25,-1.48438 l 1.1875,-5.71875 -1.32813,0 0.28125,-1.3125 1.32813,0 0.5,-2.42187 1.92187,-1.15625 -0.75,3.57812 1.65625,0 -0.28125,1.3125 -1.64062,0 -1.14063,5.4375 q -0.21875,1.04688 -0.21875,1.25 0,0.29688 0.17188,0.45313 0.17187,0.15625 0.5625,0.15625 0.5625,0 1,-0.10938 z"
       id="path4139"
       inkscape:connector-curvature="0"
       style="fill:#000000;fill-rule:nonzero" />
  </g>
</svg>
