<?xml version="1.0" encoding="UTF-8" standalone="no"?>
<svg
   xmlns:dc="http://purl.org/dc/elements/1.1/"
   xmlns:cc="http://creativecommons.org/ns#"
   xmlns:rdf="http://www.w3.org/1999/02/22-rdf-syntax-ns#"
   xmlns:svg="http://www.w3.org/2000/svg"
   xmlns="http://www.w3.org/2000/svg"
   xmlns:sodipodi="http://sodipodi.sourceforge.net/DTD/sodipodi-0.dtd"
   xmlns:inkscape="http://www.inkscape.org/namespaces/inkscape"
   version="1.1"
   viewBox="0.0 0.0 800.0 450.0"
   fill="none"
   stroke="none"
   stroke-linecap="square"
   stroke-miterlimit="10"
   id="svg4649"
   inkscape:version="0.48.2 r9819"
   width="100%"
   height="100%"
   sodipodi:docname="smtp_general.svg">
  <metadata
     id="metadata4804">
    <rdf:RDF>
      <cc:Work
         rdf:about="">
        <dc:format>image/svg+xml</dc:format>
        <dc:type
           rdf:resource="http://purl.org/dc/dcmitype/StillImage" />
        <dc:title></dc:title>
      </cc:Work>
    </rdf:RDF>
  </metadata>
  <defs
     id="defs4802" />
  <sodipodi:namedview
     pagecolor="#ffffff"
     bordercolor="#666666"
     borderopacity="1"
     objecttolerance="10"
     gridtolerance="10"
     guidetolerance="10"
     inkscape:pageopacity="0"
     inkscape:pageshadow="2"
     inkscape:window-width="1219"
     inkscape:window-height="762"
     id="namedview4800"
     showgrid="false"
     inkscape:zoom="1.14"
     inkscape:cx="400"
     inkscape:cy="225"
     inkscape:window-x="305"
     inkscape:window-y="22"
     inkscape:window-maximized="0"
     inkscape:current-layer="svg4649" />
  <clipPath
     id="p.0">
    <path
       d="m0 0l800.0 0l0 450.0l-800.0 0l0 -450.0z"
       clip-rule="nonzero"
       id="path4652" />
  </clipPath>
  <path
     style="fill:#000000;fill-opacity:0;fill-rule:nonzero"
     inkscape:connector-curvature="0"
     id="path4656"
     d="m 0,0 800.1627,0 0,450.02362 -800.1627,0 z" />
  <path
     style="fill:#000000;fill-opacity:0;fill-rule:evenodd"
     inkscape:connector-curvature="0"
     id="path4658"
     d="m 276.71915,16.236221 c -8.57971,2.146904 -18.79486,13.114876 -15.69028,21.396324 3.194,8.519955 11.31562,16.808414 9.27036,25.674541 -3.67017,15.909939 -25.29665,20.81187 -36.37271,32.8084 -11.23053,12.163814 -13.45966,31.735454 -26.38846,42.076124 -12.44824,9.95629 -29.80038,16.0249 -45.64304,14.26509 -12.19769,-1.35494 -21.9779,-12.9054 -34.2336,-13.55118 -16.01165,-0.84371 -30.524506,10.30379 -46.356956,12.83726 -20.151394,3.22458 -40.41982,-5.66998 -60.622044,-8.55905" />
  <path
     style="stroke:#b7b7b7;stroke-width:2;stroke-linecap:butt;stroke-linejoin:round"
     inkscape:connector-curvature="0"
     id="path4660"
     d="m 276.71915,16.236221 c -8.57971,2.146904 -18.79486,13.114876 -15.69028,21.396324 3.194,8.519955 11.31562,16.808414 9.27036,25.674541 -3.67017,15.909939 -25.29665,20.81187 -36.37271,32.8084 -11.23053,12.163814 -13.45966,31.735454 -26.38846,42.076124 -12.44824,9.95629 -29.80038,16.0249 -45.64304,14.26509 -12.19769,-1.35494 -21.9779,-12.9054 -34.2336,-13.55118 -16.01165,-0.84371 -30.524506,10.30379 -46.356956,12.83726 -20.151394,3.22458 -40.41982,-5.66998 -60.622044,-8.55905" />
  <path
     style="fill:#000000;fill-opacity:0;fill-rule:evenodd"
     inkscape:connector-curvature="0"
     id="path4662"
     d="m 377.99176,58.002625 c -10.96924,0 -27.6853,5.467335 -28.52756,16.404198 -0.77975,10.125443 19.86957,16.129608 16.40158,25.674547 -4.10754,11.3052 -15.72885,23.00763 -11.40945,34.23359 5.539,14.39567 36.11392,7.36545 40.65094,22.10762 5.56305,18.07615 -1.02997,43.79139 14.26508,54.916 16.81564,12.23059 41.7958,10.22343 57.76904,23.53543 21.44235,17.86996 36.21918,42.87867 57.76639,60.62205 20.19116,16.62674 45.52777,26.80387 70.60632,34.23358 35.78918,10.60288 73.3305,-23.03582 101.27295,-47.78476 22.41235,-19.85086 50.20965,-37.81894 61.33593,-65.61418" />
  <path
     style="stroke:#b7b7b7;stroke-width:2;stroke-linecap:butt;stroke-linejoin:round"
     inkscape:connector-curvature="0"
     id="path4664"
     d="m 377.99176,58.002625 c -10.96924,0 -27.6853,5.467335 -28.52756,16.404198 -0.77975,10.125443 19.86957,16.129608 16.40158,25.674547 -4.10754,11.3052 -15.72885,23.00763 -11.40945,34.23359 5.539,14.39567 36.11392,7.36545 40.65094,22.10762 5.56305,18.07615 -1.02997,43.79139 14.26508,54.916 16.81564,12.23059 41.7958,10.22343 57.76904,23.53543 21.44235,17.86996 36.21918,42.87867 57.76639,60.62205 20.19116,16.62674 45.52777,26.80387 70.60632,34.23358 35.78918,10.60288 73.3305,-23.03582 101.27295,-47.78476 22.41235,-19.85086 50.20965,-37.81894 61.33593,-65.61418" />
  <path
     style="fill:#000000;fill-opacity:0;fill-rule:evenodd"
     inkscape:connector-curvature="0"
     id="path4666"
     d="m 35.658794,222.34908 c 9.742413,-8.52348 25.675842,-3.31804 38.511806,-4.99213 28.64463,-3.73585 55.27026,-20.6824 84.15748,-20.6824 12.86609,0 21.67383,15.03862 34.2336,17.82939 27.92656,6.20526 61.22017,-21.41283 85.58267,-6.41733 14.89126,9.1658 22.07159,28.73319 37.80053,36.37271 11.11899,5.40048 27.29041,4.03377 34.23096,14.26245 7.44632,10.97406 1.84503,28.04343 9.98688,38.51181 8.29852,10.66983 24.91198,12.39957 33.51968,22.82154 9.40558,11.388 -5.04373,29.61129 -2.85299,44.21786 2.30499,15.36847 12.58886,28.95752 22.8215,40.65354 7.3837,8.4396 2.85303,22.30606 2.85303,33.51968" />
  <path
     style="stroke:#b7b7b7;stroke-width:2;stroke-linecap:butt;stroke-linejoin:round"
     inkscape:connector-curvature="0"
     id="path4668"
     d="m 35.658794,222.34908 c 9.742413,-8.52348 25.675842,-3.31804 38.511806,-4.99213 28.64463,-3.73585 55.27026,-20.6824 84.15748,-20.6824 12.86609,0 21.67383,15.03862 34.2336,17.82939 27.92656,6.20526 61.22017,-21.41283 85.58267,-6.41733 14.89126,9.1658 22.07159,28.73319 37.80053,36.37271 11.11899,5.40048 27.29041,4.03377 34.23096,14.26245 7.44632,10.97406 1.84503,28.04343 9.98688,38.51181 8.29852,10.66983 24.91198,12.39957 33.51968,22.82154 9.40558,11.388 -5.04373,29.61129 -2.85299,44.21786 2.30499,15.36847 12.58886,28.95752 22.8215,40.65354 7.3837,8.4396 2.85303,22.30606 2.85303,33.51968" />
  <path
     style="fill:#cfe2f3;fill-rule:nonzero"
     inkscape:connector-curvature="0"
     id="path4670"
     d="m 488.53543,267.4726 0,0 c 0,-4.26761 3.45959,-7.7272 7.7272,-7.7272 l 43.72669,0 c 2.04938,0 4.01483,0.81411 5.46399,2.26324 1.44909,1.44913 2.26324,3.41458 2.26324,5.46396 l 0,30.90784 c 0,4.26761 -3.45959,7.72717 -7.72723,7.72717 l -43.72669,0 0,0 c -4.26761,0 -7.7272,-3.45956 -7.7272,-7.72717 z" />
  <path
     style="stroke:#000000;stroke-width:2;stroke-linecap:butt;stroke-linejoin:round"
     inkscape:connector-curvature="0"
     id="path4672"
     d="m 488.53543,267.4726 0,0 c 0,-4.26761 3.45959,-7.7272 7.7272,-7.7272 l 43.72669,0 c 2.04938,0 4.01483,0.81411 5.46399,2.26324 1.44909,1.44913 2.26324,3.41458 2.26324,5.46396 l 0,30.90784 c 0,4.26761 -3.45959,7.72717 -7.72723,7.72717 l -43.72669,0 0,0 c -4.26761,0 -7.7272,-3.45956 -7.7272,-7.72717 z" />
  <path
     style="fill:#000000;fill-rule:nonzero"
     inkscape:connector-curvature="0"
     id="path4674"
     d="m 505.54004,289.09058 0,-13.59375 2.71875,0 3.21875,9.625 q 0.4375,1.34375 0.64062,2.01562 0.23438,-0.75 0.73438,-2.1875 l 3.25,-9.45312 2.42187,0 0,13.59375 -1.73437,0 0,-11.39063 -3.95313,11.39063 -1.625,0 -3.9375,-11.57813 0,11.57813 -1.73437,0 z m 14.21271,0 5.26562,-7.09375 -4.64062,-6.5 2.14062,0 2.46875,3.48437 q 0.78125,1.07813 1.09375,1.67188 0.45313,-0.75 1.07813,-1.54688 l 2.73437,-3.60937 1.96875,0 -4.78125,6.40625 5.14063,7.1875 -2.21875,0 -3.42188,-4.85938 q -0.29687,-0.40625 -0.59375,-0.90625 -0.45312,0.75 -0.65625,1.03125 l -3.40625,4.73438 -2.17187,0 z" />
  <path
     style="fill:#cfe2f3;fill-rule:nonzero"
     inkscape:connector-curvature="0"
     id="path4676"
     d="m 370.4908,175.46997 0,0 c 0,-4.26761 3.45959,-7.72719 7.72717,-7.72719 l 43.72675,0 c 2.04938,0 4.0148,0.81412 5.46393,2.26325 1.44915,1.44912 2.26324,3.41456 2.26324,5.46394 l 0,30.90782 c 0,4.26761 -3.45956,7.72719 -7.72717,7.72719 l -43.72675,0 0,0 c -4.26758,0 -7.72717,-3.45958 -7.72717,-7.72719 z" />
  <path
     style="stroke:#000000;stroke-width:2;stroke-linecap:butt;stroke-linejoin:round"
     inkscape:connector-curvature="0"
     id="path4678"
     d="m 370.4908,175.46997 0,0 c 0,-4.26761 3.45959,-7.72719 7.72717,-7.72719 l 43.72675,0 c 2.04938,0 4.0148,0.81412 5.46393,2.26325 1.44915,1.44912 2.26324,3.41456 2.26324,5.46394 l 0,30.90782 c 0,4.26761 -3.45956,7.72719 -7.72717,7.72719 l -43.72675,0 0,0 c -4.26758,0 -7.72717,-3.45958 -7.72717,-7.72719 z" />
  <path
     style="fill:#000000;fill-rule:nonzero"
     inkscape:connector-curvature="0"
     id="path4680"
     d="m 387.49542,197.08795 0,-13.59375 2.71875,0 3.21875,9.625 q 0.4375,1.34375 0.64063,2.01562 0.23437,-0.75 0.73437,-2.1875 l 3.25,-9.45312 2.42188,0 0,13.59375 -1.73438,0 0,-11.39063 -3.95312,11.39063 -1.625,0 -3.9375,-11.57813 0,11.57813 -1.73438,0 z m 14.21268,0 5.26562,-7.09375 -4.64062,-6.5 2.14062,0 2.46875,3.48437 q 0.78125,1.07813 1.09375,1.67188 0.45313,-0.75 1.07813,-1.54688 l 2.73437,-3.60937 1.96875,0 -4.78125,6.40625 5.14063,7.1875 -2.21875,0 -3.42188,-4.85938 q -0.29687,-0.40625 -0.59375,-0.90625 -0.45312,0.75 -0.65625,1.03125 l -3.40625,4.73438 -2.17187,0 z" />
  <path
     style="fill:#cfe2f3;fill-rule:nonzero"
     inkscape:connector-curvature="0"
     id="path4682"
     d="m 493.5455,120.95291 0,0 c 0,-4.26761 3.45956,-7.72719 7.72717,-7.72719 l 59.69522,0 c 2.04938,0 4.01483,0.81411 5.46399,2.26324 1.4491,1.44913 2.26325,3.41457 2.26325,5.46395 l 0,30.90782 c 0,4.26761 -3.4596,7.72719 -7.72724,7.72719 l -59.69522,0 c -4.26761,0 -7.72717,-3.45958 -7.72717,-7.72719 z" />
  <path
     style="stroke:#000000;stroke-width:2;stroke-linecap:butt;stroke-linejoin:round"
     inkscape:connector-curvature="0"
     id="path4684"
     d="m 493.5455,120.95291 0,0 c 0,-4.26761 3.45956,-7.72719 7.72717,-7.72719 l 59.69522,0 c 2.04938,0 4.01483,0.81411 5.46399,2.26324 1.4491,1.44913 2.26325,3.41457 2.26325,5.46395 l 0,30.90782 c 0,4.26761 -3.4596,7.72719 -7.72724,7.72719 l -59.69522,0 c -4.26761,0 -7.72717,-3.45958 -7.72717,-7.72719 z" />
  <path
     style="fill:#000000;fill-rule:nonzero"
     inkscape:connector-curvature="0"
     id="path4686"
     d="m 512.13617,142.57089 0,-9.85938 1.5,0 0,1.5 q 0.57812,-1.04687 1.0625,-1.375 0.48437,-0.34375 1.07812,-0.34375 0.84375,0 1.71875,0.54688 l -0.57812,1.54687 q -0.60938,-0.35937 -1.23438,-0.35937 -0.54687,0 -0.98437,0.32812 -0.42188,0.32813 -0.60938,0.90625 -0.28125,0.89063 -0.28125,1.95313 l 0,5.15625 -1.67187,0 z m 12.97827,-3.17188 1.71875,0.21875 q -0.40625,1.5 -1.51562,2.34375 -1.09375,0.82813 -2.8125,0.82813 -2.15625,0 -3.42188,-1.32813 -1.26562,-1.32812 -1.26562,-3.73437 0,-2.48438 1.26562,-3.85938 1.28125,-1.375 3.32813,-1.375 1.98437,0 3.23437,1.34375 1.25,1.34375 1.25,3.79688 0,0.14062 -0.0156,0.4375 l -7.34375,0 q 0.0937,1.625 0.92187,2.48437 0.82813,0.85938 2.0625,0.85938 0.90625,0 1.54688,-0.46875 0.65625,-0.48438 1.04687,-1.54688 z m -5.48437,-2.70312 5.5,0 q -0.10938,-1.23438 -0.625,-1.85938 -0.79688,-0.96875 -2.07813,-0.96875 -1.14062,0 -1.9375,0.78125 -0.78125,0.76563 -0.85937,2.04688 z m 9.07885,5.875 0,-13.59375 1.67188,0 0,13.59375 -1.67188,0 z m 10.61359,-1.21875 q -0.9375,0.79687 -1.79688,1.125 -0.85937,0.3125 -1.84375,0.3125 -1.60937,0 -2.48437,-0.78125 -0.875,-0.79688 -0.875,-2.03125 0,-0.73438 0.32812,-1.32813 0.32813,-0.59375 0.85938,-0.95312 0.53125,-0.35938 1.20312,-0.54688 0.5,-0.14062 1.48438,-0.25 2.03125,-0.25 2.98437,-0.57812 0,-0.34375 0,-0.4375 0,-1.01563 -0.46875,-1.4375 -0.64062,-0.5625 -1.90625,-0.5625 -1.17187,0 -1.73437,0.40625 -0.5625,0.40625 -0.82813,1.46875 l -1.64062,-0.23438 q 0.23437,-1.04687 0.73437,-1.6875 0.51563,-0.64062 1.46875,-0.98437 0.96875,-0.35938 2.25,-0.35938 1.26563,0 2.04688,0.29688 0.78125,0.29687 1.15625,0.75 0.375,0.45312 0.51562,1.14062 0.0937,0.42188 0.0937,1.53125 l 0,2.23438 q 0,2.32812 0.0937,2.95312 0.10938,0.60938 0.4375,1.17188 l -1.75,0 q -0.26562,-0.51563 -0.32812,-1.21875 z m -0.14063,-3.71875 q -0.90625,0.35937 -2.73437,0.625 -1.03125,0.14062 -1.45313,0.32812 -0.42187,0.1875 -0.65625,0.54688 -0.23437,0.35937 -0.23437,0.79687 0,0.67188 0.5,1.125 0.51562,0.4375 1.48437,0.4375 0.96875,0 1.71875,-0.42187 0.75,-0.4375 1.10938,-1.15625 0.26562,-0.57813 0.26562,-1.67188 l 0,-0.60937 z m 4.00068,8.73437 -0.17188,-1.5625 q 0.54688,0.14063 0.95313,0.14063 0.54687,0 0.875,-0.1875 0.34375,-0.1875 0.5625,-0.51563 0.15625,-0.25 0.5,-1.25 0.0469,-0.14062 0.15625,-0.40625 l -3.73438,-9.875 1.79688,0 2.04687,5.71875 q 0.40625,1.07813 0.71875,2.28125 0.28125,-1.15625 0.6875,-2.25 l 2.09375,-5.75 1.67188,0 -3.75,10.03125 q -0.59375,1.625 -0.9375,2.23438 -0.4375,0.82812 -1.01563,1.20312 -0.57812,0.39063 -1.375,0.39063 -0.48437,0 -1.07812,-0.20313 z" />
  <path
     style="fill:#cfe2f3;fill-rule:nonzero"
     inkscape:connector-curvature="0"
     id="path4688"
     d="m 223.86053,192.8873 0,0 c 0,-4.26761 3.45958,-7.72719 7.72719,-7.72719 l 43.72673,0 c 2.04938,0 4.0148,0.8141 5.46393,2.26323 1.44915,1.44914 2.26324,3.41458 2.26324,5.46396 l 0,30.90782 c 0,4.26761 -3.45956,7.72719 -7.72717,7.72719 l -43.72673,0 0,0 c -4.26761,0 -7.72719,-3.45958 -7.72719,-7.72719 z" />
  <path
     style="stroke:#000000;stroke-width:2;stroke-linecap:butt;stroke-linejoin:round"
     inkscape:connector-curvature="0"
     id="path4690"
     d="m 223.86053,192.8873 0,0 c 0,-4.26761 3.45958,-7.72719 7.72719,-7.72719 l 43.72673,0 c 2.04938,0 4.0148,0.8141 5.46393,2.26323 1.44915,1.44914 2.26324,3.41458 2.26324,5.46396 l 0,30.90782 c 0,4.26761 -3.45956,7.72719 -7.72717,7.72719 l -43.72673,0 0,0 c -4.26761,0 -7.72719,-3.45958 -7.72719,-7.72719 z" />
  <path
     style="fill:#000000;fill-rule:nonzero"
     inkscape:connector-curvature="0"
     id="path4692"
     d="m 240.86514,214.50526 0,-13.59375 2.71875,0 3.21875,9.625 q 0.4375,1.34375 0.64062,2.01562 0.23438,-0.75 0.73438,-2.1875 l 3.25,-9.45312 2.42187,0 0,13.59375 -1.73437,0 0,-11.39063 -3.95313,11.39063 -1.625,0 -3.9375,-11.57813 0,11.57813 -1.73437,0 z m 14.21268,0 5.26562,-7.09375 -4.64062,-6.5 2.14062,0 2.46875,3.48437 q 0.78125,1.07813 1.09375,1.67188 0.45313,-0.75 1.07813,-1.54688 l 2.73437,-3.60937 1.96875,0 -4.78125,6.40625 5.14063,7.1875 -2.21875,0 -3.42188,-4.85938 q -0.29687,-0.40625 -0.59375,-0.90625 -0.45312,0.75 -0.65625,1.03125 l -3.40625,4.73438 -2.17187,0 z" />
  <path
     style="fill:#cfe2f3;fill-rule:nonzero"
     inkscape:connector-curvature="0"
     id="path4694"
     d="m 288.84253,337.1865 0,0 c 0,-4.26761 3.45956,-7.72717 7.72717,-7.72717 l 54.65586,0 c 2.04937,0 4.01483,0.81411 5.46395,2.26324 1.44913,1.44913 2.26325,3.41455 2.26325,5.46393 l 0,30.90784 c 0,4.26761 -3.4596,7.7272 -7.7272,7.7272 l -54.65586,0 c -4.26761,0 -7.72717,-3.45959 -7.72717,-7.7272 z" />
  <path
     style="stroke:#000000;stroke-width:2;stroke-linecap:butt;stroke-linejoin:round"
     inkscape:connector-curvature="0"
     id="path4696"
     d="m 288.84253,337.1865 0,0 c 0,-4.26761 3.45956,-7.72717 7.72717,-7.72717 l 54.65586,0 c 2.04937,0 4.01483,0.81411 5.46395,2.26324 1.44913,1.44913 2.26325,3.41455 2.26325,5.46393 l 0,30.90784 c 0,4.26761 -3.4596,7.7272 -7.7272,7.7272 l -54.65586,0 c -4.26761,0 -7.72717,-3.45959 -7.72717,-7.7272 z" />
  <path
     style="fill:#000000;fill-rule:nonzero"
     inkscape:connector-curvature="0"
     id="path4698"
     d="m 304.91348,358.80447 0,-9.85938 1.5,0 0,1.5 q 0.57812,-1.04687 1.0625,-1.375 0.48437,-0.34375 1.07812,-0.34375 0.84375,0 1.71875,0.54688 l -0.57812,1.54687 q -0.60938,-0.35937 -1.23438,-0.35937 -0.54687,0 -0.98437,0.32812 -0.42188,0.32813 -0.60938,0.90625 -0.28125,0.89063 -0.28125,1.95313 l 0,5.15625 -1.67187,0 z m 12.9783,-3.17188 1.71875,0.21875 q -0.40625,1.5 -1.51562,2.34375 -1.09375,0.82813 -2.8125,0.82813 -2.15625,0 -3.42188,-1.32813 -1.26562,-1.32812 -1.26562,-3.73437 0,-2.48438 1.26562,-3.85938 1.28125,-1.375 3.32813,-1.375 1.98437,0 3.23437,1.34375 1.25,1.34375 1.25,3.79688 0,0.14062 -0.0156,0.4375 l -7.34375,0 q 0.0937,1.625 0.92187,2.48437 0.82813,0.85938 2.0625,0.85938 0.90625,0 1.54688,-0.46875 0.65625,-0.48438 1.04687,-1.54688 z m -5.48437,-2.70312 5.5,0 q -0.10938,-1.23438 -0.625,-1.85938 -0.79688,-0.96875 -2.07813,-0.96875 -1.14062,0 -1.9375,0.78125 -0.78125,0.76563 -0.85937,2.04688 z m 9.07885,5.875 0,-13.59375 1.67188,0 0,13.59375 -1.67188,0 z m 10.61356,-1.21875 q -0.9375,0.79687 -1.79687,1.125 -0.85938,0.3125 -1.84375,0.3125 -1.60938,0 -2.48438,-0.78125 -0.875,-0.79688 -0.875,-2.03125 0,-0.73438 0.32813,-1.32813 0.32812,-0.59375 0.85937,-0.95312 0.53125,-0.35938 1.20313,-0.54688 0.5,-0.14062 1.48437,-0.25 2.03125,-0.25 2.98438,-0.57812 0,-0.34375 0,-0.4375 0,-1.01563 -0.46875,-1.4375 -0.64063,-0.5625 -1.90625,-0.5625 -1.17188,0 -1.73438,0.40625 -0.5625,0.40625 -0.82812,1.46875 l -1.64063,-0.23438 q 0.23438,-1.04687 0.73438,-1.6875 0.51562,-0.64062 1.46875,-0.98437 0.96875,-0.35938 2.25,-0.35938 1.26562,0 2.04687,0.29688 0.78125,0.29687 1.15625,0.75 0.375,0.45312 0.51563,1.14062 0.0937,0.42188 0.0937,1.53125 l 0,2.23438 q 0,2.32812 0.0937,2.95312 0.10937,0.60938 0.4375,1.17188 l -1.75,0 q -0.26563,-0.51563 -0.32813,-1.21875 z m -0.14062,-3.71875 q -0.90625,0.35937 -2.73438,0.625 -1.03125,0.14062 -1.45312,0.32812 -0.42188,0.1875 -0.65625,0.54688 -0.23438,0.35937 -0.23438,0.79687 0,0.67188 0.5,1.125 0.51563,0.4375 1.48438,0.4375 0.96875,0 1.71875,-0.42187 0.75,-0.4375 1.10937,-1.15625 0.26563,-0.57813 0.26563,-1.67188 l 0,-0.60937 z m 4.00073,8.73437 -0.17188,-1.5625 q 0.54688,0.14063 0.95313,0.14063 0.54687,0 0.875,-0.1875 0.34375,-0.1875 0.5625,-0.51563 0.15625,-0.25 0.5,-1.25 0.0469,-0.14062 0.15625,-0.40625 l -3.73438,-9.875 1.79688,0 2.04687,5.71875 q 0.40625,1.07813 0.71875,2.28125 0.28125,-1.15625 0.6875,-2.25 l 2.09375,-5.75 1.67188,0 -3.75,10.03125 q -0.59375,1.625 -0.9375,2.23438 -0.4375,0.82812 -1.01563,1.20312 -0.57812,0.39063 -1.375,0.39063 -0.48437,0 -1.07812,-0.20313 z" />
  <path
     style="fill:#cfe2f3;fill-rule:nonzero"
     inkscape:connector-curvature="0"
     id="path4700"
     d="m 135.70341,313.8348 0,0 c 0,-4.26761 3.45958,-7.7272 7.72719,-7.7272 l 51.0968,0 c 2.04938,0 4.01481,0.81411 5.46394,2.26324 1.44913,1.44913 2.26325,3.41458 2.26325,5.46396 l 0,30.90781 c 0,4.2676 -3.45958,7.7272 -7.72719,7.7272 l -51.0968,0 c -4.26761,0 -7.72719,-3.4596 -7.72719,-7.7272 z" />
  <path
     style="stroke:#000000;stroke-width:2;stroke-linecap:butt;stroke-linejoin:round"
     inkscape:connector-curvature="0"
     id="path4702"
     d="m 135.70341,313.8348 0,0 c 0,-4.26761 3.45958,-7.7272 7.72719,-7.7272 l 51.0968,0 c 2.04938,0 4.01481,0.81411 5.46394,2.26324 1.44913,1.44913 2.26325,3.41458 2.26325,5.46396 l 0,30.90781 c 0,4.2676 -3.45958,7.7272 -7.72719,7.7272 l -51.0968,0 c -4.26761,0 -7.72719,-3.4596 -7.72719,-7.7272 z" />
  <path
     style="fill:#000000;fill-rule:nonzero"
     inkscape:connector-curvature="0"
     id="path4704"
     d="m 149.99484,335.4528 0,-9.85937 1.5,0 0,1.5 q 0.57812,-1.04688 1.0625,-1.375 0.48437,-0.34375 1.07812,-0.34375 0.84375,0 1.71875,0.54687 l -0.57812,1.54688 q -0.60938,-0.35938 -1.23438,-0.35938 -0.54687,0 -0.98437,0.32813 -0.42188,0.32812 -0.60938,0.90625 -0.28125,0.89062 -0.28125,1.95312 l 0,5.15625 -1.67187,0 z m 12.9783,-3.17187 1.71875,0.21875 q -0.40625,1.5 -1.51562,2.34375 -1.09375,0.82812 -2.8125,0.82812 -2.15625,0 -3.42188,-1.32812 -1.26562,-1.32813 -1.26562,-3.73438 0,-2.48437 1.26562,-3.85937 1.28125,-1.375 3.32813,-1.375 1.98437,0 3.23437,1.34375 1.25,1.34375 1.25,3.79687 0,0.14063 -0.0156,0.4375 l -7.34375,0 q 0.0937,1.625 0.92187,2.48438 0.82813,0.85937 2.0625,0.85937 0.90625,0 1.54688,-0.46875 0.65625,-0.48437 1.04687,-1.54687 z m -5.48437,-2.70313 5.5,0 q -0.10938,-1.23437 -0.625,-1.85937 -0.79688,-0.96875 -2.07813,-0.96875 -1.14062,0 -1.9375,0.78125 -0.78125,0.76562 -0.85937,2.04687 z m 9.07884,5.875 0,-13.59375 1.67187,0 0,13.59375 -1.67187,0 z m 10.61357,-1.21875 q -0.9375,0.79688 -1.79688,1.125 -0.85937,0.3125 -1.84375,0.3125 -1.60937,0 -2.48437,-0.78125 -0.875,-0.79687 -0.875,-2.03125 0,-0.73437 0.32812,-1.32812 0.32813,-0.59375 0.85938,-0.95313 0.53125,-0.35937 1.20312,-0.54687 0.5,-0.14063 1.48438,-0.25 2.03125,-0.25 2.98437,-0.57813 0,-0.34375 0,-0.4375 0,-1.01562 -0.46875,-1.4375 -0.64062,-0.5625 -1.90625,-0.5625 -1.17187,0 -1.73437,0.40625 -0.5625,0.40625 -0.82813,1.46875 l -1.64062,-0.23437 q 0.23437,-1.04688 0.73437,-1.6875 0.51563,-0.64063 1.46875,-0.98438 0.96875,-0.35937 2.25,-0.35937 1.26563,0 2.04688,0.29687 0.78125,0.29688 1.15625,0.75 0.375,0.45313 0.51562,1.14063 0.0937,0.42187 0.0937,1.53125 l 0,2.23437 q 0,2.32813 0.0937,2.95313 0.10938,0.60937 0.4375,1.17187 l -1.75,0 q -0.26562,-0.51562 -0.32812,-1.21875 z m -0.14063,-3.71875 q -0.90625,0.35938 -2.73437,0.625 -1.03125,0.14063 -1.45313,0.32813 -0.42187,0.1875 -0.65625,0.54687 -0.23437,0.35938 -0.23437,0.79688 0,0.67187 0.5,1.125 0.51562,0.4375 1.48437,0.4375 0.96875,0 1.71875,-0.42188 0.75,-0.4375 1.10938,-1.15625 0.26562,-0.57812 0.26562,-1.67187 l 0,-0.60938 z m 4.00072,8.73438 -0.17187,-1.5625 q 0.54687,0.14062 0.95312,0.14062 0.54688,0 0.875,-0.1875 0.34375,-0.1875 0.5625,-0.51562 0.15625,-0.25 0.5,-1.25 0.0469,-0.14063 0.15625,-0.40625 l -3.73437,-9.875 1.79687,0 2.04688,5.71875 q 0.40625,1.07812 0.71875,2.28125 0.28125,-1.15625 0.6875,-2.25 l 2.09375,-5.75 1.67187,0 -3.75,10.03125 q -0.59375,1.625 -0.9375,2.23437 -0.4375,0.82813 -1.01562,1.20313 -0.57813,0.39062 -1.375,0.39062 -0.48438,0 -1.07813,-0.20312 z" />
  <path
     style="fill:#000000;fill-opacity:0;fill-rule:nonzero"
     inkscape:connector-curvature="0"
     id="path4706"
     d="m 391.19684,21.942257 144,0 0,48.000004 -144,0 z" />
  <path
     style="fill:#000000;fill-rule:nonzero"
     inkscape:connector-curvature="0"
     id="path4708"
     d="m 421.49234,42.246944 2.42188,0 0,1.453125 q 0.46875,-0.734375 1.28125,-1.203125 0.8125,-0.46875 1.79687,-0.46875 1.70313,0 2.90625,1.34375 1.20313,1.34375 1.20313,3.75 0,2.46875 -1.21875,3.84375 -1.20313,1.359375 -2.92188,1.359375 -0.8125,0 -1.48437,-0.3125 -0.65625,-0.328125 -1.39063,-1.125 l 0,4.96875 -2.59375,0 0,-13.609375 z m 2.57813,4.765625 q 0,1.65625 0.65625,2.453125 0.65625,0.796875 1.59375,0.796875 0.92187,0 1.51562,-0.71875 0.60938,-0.734375 0.60938,-2.40625 0,-1.546875 -0.625,-2.296875 -0.625,-0.75 -1.53125,-0.75 -0.96875,0 -1.59375,0.734375 -0.625,0.734375 -0.625,2.1875 z m 8.28662,0.03125 q 0,-1.296875 0.64062,-2.515625 0.64063,-1.21875 1.8125,-1.859375 1.17188,-0.640625 2.60938,-0.640625 2.25,0 3.67187,1.453125 1.42188,1.453125 1.42188,3.671875 0,2.234375 -1.4375,3.703125 -1.4375,1.46875 -3.625,1.46875 -1.35938,0 -2.59375,-0.609375 -1.21875,-0.609375 -1.85938,-1.796875 -0.64062,-1.1875 -0.64062,-2.875 z m 2.67187,0.140625 q 0,1.46875 0.6875,2.25 0.70313,0.765625 1.71875,0.765625 1.01563,0 1.70313,-0.765625 0.70312,-0.78125 0.70312,-2.265625 0,-1.453125 -0.70312,-2.234375 -0.6875,-0.78125 -1.70313,-0.78125 -1.01562,0 -1.71875,0.78125 -0.6875,0.78125 -0.6875,2.25 z m 8.72409,-0.140625 q 0,-1.296875 0.64063,-2.515625 0.64062,-1.21875 1.8125,-1.859375 1.17187,-0.640625 2.60937,-0.640625 2.25,0 3.67188,1.453125 1.42187,1.453125 1.42187,3.671875 0,2.234375 -1.4375,3.703125 -1.4375,1.46875 -3.625,1.46875 -1.35937,0 -2.59375,-0.609375 -1.21875,-0.609375 -1.85937,-1.796875 -0.64063,-1.1875 -0.64063,-2.875 z m 2.67188,0.140625 q 0,1.46875 0.6875,2.25 0.70312,0.765625 1.71875,0.765625 1.01562,0 1.70312,-0.765625 0.70313,-0.78125 0.70313,-2.265625 0,-1.453125 -0.70313,-2.234375 -0.6875,-0.78125 -1.70312,-0.78125 -1.01563,0 -1.71875,0.78125 -0.6875,0.78125 -0.6875,2.25 z m 9.31787,4.921875 0,-13.59375 2.60937,0 0,13.59375 -2.60937,0 z m 5.12079,-9.859375 2.42187,0 0,1.453125 q 0.46875,-0.734375 1.28125,-1.203125 0.8125,-0.46875 1.79688,-0.46875 1.70312,0 2.90625,1.34375 1.20312,1.34375 1.20312,3.75 0,2.46875 -1.21875,3.84375 -1.20312,1.359375 -2.92187,1.359375 -0.8125,0 -1.48438,-0.3125 -0.65625,-0.328125 -1.39062,-1.125 l 0,4.96875 -2.59375,0 0,-13.609375 z m 2.57812,4.765625 q 0,1.65625 0.65625,2.453125 0.65625,0.796875 1.59375,0.796875 0.92188,0 1.51563,-0.71875 0.60937,-0.734375 0.60937,-2.40625 0,-1.546875 -0.625,-2.296875 -0.625,-0.75 -1.53125,-0.75 -0.96875,0 -1.59375,0.734375 -0.625,0.734375 -0.625,2.1875 z m 8.88037,5.09375 0,-2.609375 2.60938,0 0,2.609375 -2.60938,0 z m 4.58954,-5.0625 q 0,-1.296875 0.64063,-2.515625 0.64062,-1.21875 1.8125,-1.859375 1.17187,-0.640625 2.60937,-0.640625 2.25,0 3.67188,1.453125 1.42187,1.453125 1.42187,3.671875 0,2.234375 -1.4375,3.703125 -1.4375,1.46875 -3.625,1.46875 -1.35937,0 -2.59375,-0.609375 -1.21875,-0.609375 -1.85937,-1.796875 -0.64063,-1.1875 -0.64063,-2.875 z m 2.67188,0.140625 q 0,1.46875 0.6875,2.25 0.70312,0.765625 1.71875,0.765625 1.01562,0 1.70312,-0.765625 0.70313,-0.78125 0.70313,-2.265625 0,-1.453125 -0.70313,-2.234375 -0.6875,-0.78125 -1.70312,-0.78125 -1.01563,0 -1.71875,0.78125 -0.6875,0.78125 -0.6875,2.25 z m 11.81787,4.921875 -2.60938,0 0,-9.859375 2.42188,0 0,1.40625 q 0.625,-0.984375 1.10937,-1.296875 0.5,-0.328125 1.14063,-0.328125 0.89062,0 1.71875,0.5 l -0.8125,2.265625 q -0.65625,-0.421875 -1.21875,-0.421875 -0.54688,0 -0.9375,0.296875 -0.375,0.296875 -0.59375,1.09375 -0.21875,0.78125 -0.21875,3.296875 l 0,3.046875 z m 4.52588,0.65625 2.96875,0.359375 q 0.0781,0.515625 0.34375,0.703125 0.375,0.28125 1.17187,0.28125 1.03125,0 1.53125,-0.296875 0.34375,-0.203125 0.51563,-0.65625 0.125,-0.328125 0.125,-1.203125 l 0,-1.4375 q -1.17188,1.59375 -2.95313,1.59375 -1.98437,0 -3.14062,-1.671875 -0.90625,-1.328125 -0.90625,-3.3125 0,-2.46875 1.1875,-3.78125 1.1875,-1.3125 2.96875,-1.3125 1.82812,0 3.01562,1.609375 l 0,-1.390625 2.4375,0 0,8.84375 q 0,1.75 -0.29687,2.609375 -0.28125,0.859375 -0.79688,1.34375 -0.51562,0.5 -1.39062,0.78125 -0.85938,0.28125 -2.1875,0.28125 -2.51563,0 -3.5625,-0.859375 -1.04688,-0.859375 -1.04688,-2.171875 0,-0.140625 0.0156,-0.3125 z m 2.32812,-5.78125 q 0,1.5625 0.60938,2.296875 0.60937,0.71875 1.5,0.71875 0.95312,0 1.60937,-0.734375 0.65625,-0.75 0.65625,-2.21875 0,-1.53125 -0.64062,-2.265625 -0.625,-0.75 -1.57813,-0.75 -0.9375,0 -1.54687,0.734375 -0.60938,0.71875 -0.60938,2.21875 z" />
  <path
     style="fill:#000000;fill-opacity:0;fill-rule:nonzero"
     inkscape:connector-curvature="0"
     id="path4710"
     d="m 5.7375326,226.16536 143.9999974,0 0,47.99998 -143.9999974,0 z" />
  <path
     style="fill:#000000;fill-rule:nonzero"
     inkscape:connector-curvature="0"
     id="path4712"
     d="m 42.699852,256.3294 0,-13.59374 2.609375,0 0,4.89063 q 1.203125,-1.375 2.859375,-1.375 1.796875,0 2.96875,1.3125 1.1875,1.29687 1.1875,3.73437 0,2.53125 -1.203125,3.89063 -1.203125,1.35936 -2.921875,1.35936 -0.84375,0 -1.671875,-0.42188 -0.8125,-0.42186 -1.40625,-1.24998 l 0,1.45311 -2.421875,0 z m 2.59375,-5.14061 q 0,1.53125 0.484375,2.26563 0.671875,1.03125 1.796875,1.03125 0.859375,0 1.46875,-0.73438 0.609375,-0.73437 0.609375,-2.32812 0,-1.6875 -0.609375,-2.42188 -0.609375,-0.75 -1.578125,-0.75 -0.9375,0 -1.5625,0.73438 -0.609375,0.71875 -0.609375,2.20312 z m 10.864731,-1.70312 -2.359375,-0.4375 q 0.390625,-1.42188 1.359375,-2.10938 0.984375,-0.6875 2.90625,-0.6875 1.734375,0 2.59375,0.42188 0.859375,0.40625 1.203125,1.04687 0.34375,0.625 0.34375,2.32813 l -0.03125,3.04687 q 0,1.29688 0.125,1.92188 0.125,0.60937 0.46875,1.31248 l -2.578125,0 q -0.09375,-0.26562 -0.25,-0.76561 -0.0625,-0.23437 -0.09375,-0.3125 -0.65625,0.65625 -1.421875,0.98436 -0.765625,0.3125 -1.625,0.3125 -1.515625,0 -2.40625,-0.81248 -0.875,-0.82813 -0.875,-2.09375 0,-0.84375 0.390625,-1.48438 0.40625,-0.65625 1.125,-1 0.71875,-0.35937 2.078125,-0.625 1.828125,-0.32812 2.53125,-0.625 l 0,-0.26562 q 0,-0.75 -0.375,-1.0625 -0.359375,-0.32813 -1.390625,-0.32813 -0.703125,0 -1.09375,0.28125 -0.390625,0.26563 -0.625,0.95313 z m 3.484375,2.10937 q -0.5,0.17188 -1.59375,0.40625 -1.078125,0.23438 -1.40625,0.45313 -0.515625,0.35937 -0.515625,0.92187 0,0.54688 0.40625,0.95313 0.40625,0.39062 1.046875,0.39062 0.703125,0 1.34375,-0.46875 0.46875,-0.35937 0.625,-0.85937 0.09375,-0.34375 0.09375,-1.28125 l 0,-0.51563 z m 7.438217,4.73436 -2.609375,0 0,-9.85936 2.421875,0 0,1.40625 q 0.625,-0.98438 1.109375,-1.29688 0.5,-0.32812 1.140625,-0.32812 0.890625,0 1.71875,0.5 l -0.8125,2.26562 q -0.65625,-0.42187 -1.21875,-0.42187 -0.546875,0 -0.9375,0.29687 -0.375,0.29688 -0.59375,1.09375 -0.21875,0.78125 -0.21875,3.29688 l 0,3.04686 z m 4.760269,0 0,-2.60936 2.609375,0 0,2.60936 -2.609375,0 z m 13.777054,-6.93748 -2.5625,0.46875 q -0.140625,-0.78125 -0.59375,-1.17188 -0.453125,-0.39062 -1.1875,-0.39062 -0.984375,0 -1.5625,0.67187 -0.578125,0.67188 -0.578125,2.25 0,1.76563 0.578125,2.48438 0.59375,0.71875 1.59375,0.71875 0.75,0 1.21875,-0.42188 0.46875,-0.42187 0.671875,-1.45312 l 2.546875,0.4375 q -0.390625,1.76562 -1.53125,2.67187 -1.125,0.89061 -3.03125,0.89061 -2.15625,0 -3.453125,-1.35936 -1.28125,-1.35937 -1.28125,-3.78125 0,-2.4375 1.296875,-3.79687 1.296875,-1.35938 3.484375,-1.35938 1.796875,0 2.859375,0.78125 1.0625,0.76563 1.53125,2.35938 z m 1.188217,1.875 q 0,-1.29688 0.640625,-2.51563 0.640625,-1.21875 1.8125,-1.85937 1.171875,-0.64063 2.609375,-0.64063 2.25,0 3.671875,1.45313 1.421875,1.45312 1.421875,3.67187 0,2.23438 -1.4375,3.70313 -1.4375,1.46873 -3.625,1.46873 -1.359375,0 -2.59375,-0.60936 -1.21875,-0.60937 -1.859375,-1.79687 -0.640625,-1.1875 -0.640625,-2.875 z m 2.671875,0.14062 q 0,1.46875 0.6875,2.25 0.703125,0.76563 1.71875,0.76563 1.015625,0 1.703125,-0.76563 0.703125,-0.78125 0.703125,-2.26562 0,-1.45313 -0.703125,-2.23438 -0.6875,-0.78125 -1.703125,-0.78125 -1.015625,0 -1.71875,0.78125 -0.6875,0.78125 -0.6875,2.25 z m 9.130356,-4.9375 2.406254,0 0,1.35938 q 1.28125,-1.57813 3.0625,-1.57813 0.95312,0 1.64062,0.39063 0.70313,0.39062 1.14063,1.1875 0.65625,-0.79688 1.40625,-1.1875 0.75,-0.39063 1.60937,-0.39063 1.07813,0 1.82813,0.45313 0.75,0.4375 1.125,1.28125 0.26562,0.64062 0.26562,2.04687 l 0,6.29686 -2.60937,0 0,-5.62498 q 0,-1.46875 -0.26563,-1.90625 -0.35937,-0.54688 -1.10937,-0.54688 -0.54688,0 -1.03125,0.34375 -0.48438,0.32813 -0.70313,0.96875 -0.20312,0.64063 -0.20312,2.03125 l 0,4.73436 -2.60938,0 0,-5.40623 q 0,-1.4375 -0.14062,-1.84375 -0.14063,-0.42188 -0.4375,-0.625 -0.28125,-0.20313 -0.78125,-0.20313 -0.60938,0 -1.09375,0.32813 -0.48438,0.3125 -0.6875,0.9375 -0.20313,0.60937 -0.20313,2.03125 l 0,4.78123 -2.609374,0 0,-9.85936 z" />
  <path
     style="fill:#000000;fill-opacity:0;fill-rule:nonzero"
     inkscape:connector-curvature="0"
     id="path4744"
     d="m 20.682415,293.56036 143.999995,0 0,48 -143.999995,0 z" />
  <g
     id="phase0"
     inkscape:label="#g4878">
    <path
       d="m 76.31233,347.15747 48.37796,-13.5433"
       id="path4714"
       inkscape:connector-curvature="0"
       style="fill:#000000;fill-opacity:0;fill-rule:nonzero" />
    <path
       d="m 76.31233,347.15747 36.82224,-10.30829"
       id="path4716"
       inkscape:connector-curvature="0"
       style="stroke:#000000;stroke-width:2;stroke-linecap:butt;stroke-linejoin:round" />
    <path
       d="m 114.02512,340.03033 7.84961,-5.62796 -9.63073,-0.73437 z"
       id="path4718"
       inkscape:connector-curvature="0"
       style="fill:#000000;fill-rule:evenodd;stroke:#000000;stroke-width:2;stroke-linecap:butt" />
    <path
       d="m 73.24969,320.34943 1.6875,-0.0937 q 0,0.71875 0.21875,1.23437 0.21875,0.51563 0.8125,0.84375 0.609375,0.3125 1.40625,0.3125 1.109375,0 1.671875,-0.4375 0.5625,-0.45312 0.5625,-1.04687 0,-0.4375 -0.34375,-0.82813 -0.34375,-0.39062 -1.671875,-0.95312 -1.328125,-0.57813 -1.703125,-0.8125 -0.625,-0.375 -0.9375,-0.89063 -0.3125,-0.51562 -0.3125,-1.1875 0,-1.17187 0.921875,-2 0.9375,-0.84375 2.609375,-0.84375 1.84375,0 2.8125,0.85938 0.96875,0.85937 1.015625,2.26562 l -1.640625,0.10938 q -0.04687,-0.89063 -0.640625,-1.40625 -0.59375,-0.53125 -1.671875,-0.53125 -0.875,0 -1.359375,0.40625 -0.484375,0.39062 -0.484375,0.85937 0,0.46875 0.421875,0.8125 0.28125,0.25 1.4375,0.75 1.9375,0.82813 2.4375,1.3125 0.796875,0.76563 0.796875,1.875 0,0.73438 -0.453125,1.4375 -0.453125,0.70313 -1.375,1.125 -0.921875,0.42188 -2.171875,0.42188 -1.703125,0 -2.90625,-0.84375 -1.203125,-0.84375 -1.140625,-2.75 z m 9.171875,3.375 2.0625,-9.85938 1.671875,0 -0.34375,1.625 q 0.9375,-1.04687 1.671875,-1.4375 0.734375,-0.40625 1.609375,-0.40625 0.90625,0 1.515625,0.5 0.625,0.48438 0.828125,1.34375 0.75,-0.92187 1.578125,-1.375 0.828125,-0.46875 1.75,-0.46875 1.234375,0 1.84375,0.59375 0.625,0.57813 0.625,1.64063 0,0.45312 -0.21875,1.5 l -1.328125,6.34375 -1.671875,0 1.359375,-6.51563 q 0.171875,-0.79687 0.171875,-1.14062 0,-0.48438 -0.3125,-0.75 -0.296875,-0.28125 -0.859375,-0.28125 -0.75,0 -1.53125,0.45312 -0.78125,0.45313 -1.21875,1.1875 -0.421875,0.73438 -0.75,2.26563 l -1,4.78125 -1.671875,0 1.390625,-6.65625 q 0.140625,-0.67188 0.140625,-0.95313 0,-0.48437 -0.296875,-0.78125 -0.296875,-0.29687 -0.78125,-0.29687 -0.71875,0 -1.5,0.45312 -0.78125,0.45313 -1.28125,1.26563 -0.484375,0.8125 -0.796875,2.3125 l -0.984375,4.65625 -1.671875,0 z m 19.478305,-1.35938 -0.28125,1.375 q -0.60938,0.15625 -1.17188,0.15625 -0.999998,0 -1.593748,-0.5 -0.453125,-0.375 -0.453125,-1.01562 0,-0.3125 0.25,-1.48438 l 1.1875,-5.71875 -1.328125,0 0.28125,-1.3125 1.328128,0 0.5,-2.42187 1.92187,-1.15625 -0.75,3.57812 1.65625,0 -0.28125,1.3125 -1.64062,0 -1.14063,5.4375 q -0.21875,1.04688 -0.21875,1.25 0,0.29688 0.17188,0.45313 0.17187,0.15625 0.5625,0.15625 0.5625,0 1,-0.10938 z m 0.4333,5.14063 2.84375,-13.64063 1.54688,0 -0.28125,1.375 q 0.85937,-0.89062 1.53125,-1.23437 0.6875,-0.35938 1.45312,-0.35938 1.40625,0 2.32813,1.03125 0.9375,1.01563 0.9375,2.9375 0,1.53125 -0.51563,2.79688 -0.51562,1.26562 -1.26562,2.04687 -0.73438,0.76563 -1.5,1.125 -0.75,0.35938 -1.54688,0.35938 -1.76562,0 -2.75,-1.79688 l -1.10937,5.35938 -1.67188,0 z m 3.3125,-7.8125 q 0,1.10937 0.15625,1.53125 0.23438,0.60937 0.76563,0.98437 0.53125,0.35938 1.21875,0.35938 1.45312,0 2.34375,-1.625 0.89062,-1.625 0.89062,-3.32813 0,-1.25 -0.60937,-1.92187 -0.59375,-0.6875 -1.48438,-0.6875 -0.64062,0 -1.1875,0.34375 -0.54687,0.32812 -1.01562,1 -0.46875,0.67187 -0.78125,1.65625 -0.29688,0.96875 -0.29688,1.6875 z"
       id="path4746"
       inkscape:connector-curvature="0"
       style="fill:#000000;fill-rule:nonzero" />
  </g>
  <path
     style="fill:#000000;fill-opacity:0;fill-rule:nonzero"
     inkscape:connector-curvature="0"
     id="path4748"
     d="m 184.08136,293.56036 144,0 0,48 -144,0 z" />
  <g
     id="phase1"
     inkscape:label="#g4884">
    <path
       d="m 210.39108,330.042 68.34644,19.96851"
       id="path4720"
       inkscape:connector-curvature="0"
       style="fill:#000000;fill-opacity:0;fill-rule:nonzero" />
    <path
       d="m 210.39108,330.042 56.828,16.60324"
       id="path4722"
       inkscape:connector-curvature="0"
       style="stroke:#000000;stroke-width:2;stroke-linecap:butt;stroke-linejoin:round" />
    <path
       d="m 266.29266,349.8161 9.6384,-0.62555 -7.78556,-5.71625 z"
       id="path4724"
       inkscape:connector-curvature="0"
       style="fill:#000000;fill-rule:evenodd;stroke:#000000;stroke-width:2;stroke-linecap:butt" />
    <path
       d="m 236.64864,320.34943 1.6875,-0.0937 q 0,0.71875 0.21875,1.23437 0.21875,0.51563 0.8125,0.84375 0.60937,0.3125 1.40625,0.3125 1.10937,0 1.67187,-0.4375 0.5625,-0.45312 0.5625,-1.04687 0,-0.4375 -0.34375,-0.82813 -0.34375,-0.39062 -1.67187,-0.95312 -1.32813,-0.57813 -1.70313,-0.8125 -0.625,-0.375 -0.9375,-0.89063 -0.3125,-0.51562 -0.3125,-1.1875 0,-1.17187 0.92188,-2 0.9375,-0.84375 2.60937,-0.84375 1.84375,0 2.8125,0.85938 0.96875,0.85937 1.01563,2.26562 l -1.64063,0.10938 q -0.0469,-0.89063 -0.64062,-1.40625 -0.59375,-0.53125 -1.67188,-0.53125 -0.875,0 -1.35937,0.40625 -0.48438,0.39062 -0.48438,0.85937 0,0.46875 0.42188,0.8125 0.28125,0.25 1.4375,0.75 1.9375,0.82813 2.4375,1.3125 0.79687,0.76563 0.79687,1.875 0,0.73438 -0.45312,1.4375 -0.45313,0.70313 -1.375,1.125 -0.92188,0.42188 -2.17188,0.42188 -1.70312,0 -2.90625,-0.84375 -1.20312,-0.84375 -1.14062,-2.75 z m 9.17187,3.375 2.0625,-9.85938 1.67188,0 -0.34375,1.625 q 0.9375,-1.04687 1.67187,-1.4375 0.73438,-0.40625 1.60938,-0.40625 0.90625,0 1.51562,0.5 0.625,0.48438 0.82813,1.34375 0.75,-0.92187 1.57814,-1.375 0.82813,-0.46875 1.75,-0.46875 1.23438,0 1.84375,0.59375 0.625,0.57813 0.625,1.64063 0,0.45312 -0.21875,1.5 l -1.32812,6.34375 -1.67188,0 1.35938,-6.51563 q 0.17187,-0.79687 0.17187,-1.14062 0,-0.48438 -0.3125,-0.75 -0.29687,-0.28125 -0.85937,-0.28125 -0.75,0 -1.53125,0.45312 -0.78127,0.45313 -1.21877,1.1875 -0.42188,0.73438 -0.75,2.26563 l -1,4.78125 -1.67188,0 1.39063,-6.65625 q 0.14062,-0.67188 0.14062,-0.95313 0,-0.48437 -0.29687,-0.78125 -0.29688,-0.29687 -0.78125,-0.29687 -0.71875,0 -1.5,0.45312 -0.78125,0.45313 -1.28125,1.26563 -0.48438,0.8125 -0.79688,2.3125 l -0.98437,4.65625 -1.67188,0 z m 19.47832,-1.35938 -0.28125,1.375 q -0.60937,0.15625 -1.17187,0.15625 -1,0 -1.59375,-0.5 -0.45313,-0.375 -0.45313,-1.01562 0,-0.3125 0.25,-1.48438 l 1.1875,-5.71875 -1.32812,0 0.28125,-1.3125 1.32812,0 0.5,-2.42187 1.92188,-1.15625 -0.75,3.57812 1.65625,0 -0.28125,1.3125 -1.64063,0 -1.14062,5.4375 q -0.21875,1.04688 -0.21875,1.25 0,0.29688 0.17187,0.45313 0.17188,0.15625 0.5625,0.15625 0.5625,0 1,-0.10938 z m 0.43329,5.14063 2.84375,-13.64063 1.54688,0 -0.28125,1.375 q 0.85937,-0.89062 1.53125,-1.23437 0.6875,-0.35938 1.45312,-0.35938 1.40625,0 2.32813,1.03125 0.9375,1.01563 0.9375,2.9375 0,1.53125 -0.51563,2.79688 -0.51562,1.26562 -1.26562,2.04687 -0.73438,0.76563 -1.5,1.125 -0.75,0.35938 -1.54688,0.35938 -1.76562,0 -2.75,-1.79688 l -1.10937,5.35938 -1.67188,0 z m 3.3125,-7.8125 q 0,1.10937 0.15625,1.53125 0.23438,0.60937 0.76563,0.98437 0.53125,0.35938 1.21875,0.35938 1.45312,0 2.34375,-1.625 0.89062,-1.625 0.89062,-3.32813 0,-1.25 -0.60937,-1.92187 -0.59375,-0.6875 -1.48438,-0.6875 -0.64062,0 -1.1875,0.34375 -0.54687,0.32812 -1.01562,1 -0.46875,0.67187 -0.78125,1.65625 -0.29688,0.96875 -0.29688,1.6875 z"
       id="path4750"
       inkscape:connector-curvature="0"
       style="fill:#000000;fill-rule:nonzero" />
  </g>
  <path
     style="fill:#000000;fill-opacity:0;fill-rule:nonzero"
     inkscape:connector-curvature="0"
     id="path4752"
     d="m 337.74506,274.16534 144,0 0,48 -144,0 z" />
  <g
     id="phase2"
     inkscape:label="#g4890">
    <path
       d="M 367.87665,347.15747 477.82941,286.52756"
       id="path4726"
       inkscape:connector-curvature="0"
       style="fill:#000000;fill-opacity:0;fill-rule:nonzero" />
    <path
       d="m 367.87665,347.15747 99.44446,-54.83545"
       id="path4728"
       inkscape:connector-curvature="0"
       style="stroke:#000000;stroke-width:2;stroke-linecap:butt;stroke-linejoin:round" />
    <path
       d="m 468.91626,295.21484 6.35278,-7.27545 -9.54309,1.48981 z"
       id="path4730"
       inkscape:connector-curvature="0"
       style="fill:#000000;fill-rule:evenodd;stroke:#000000;stroke-width:2;stroke-linecap:butt" />
    <path
       d="m 390.31232,300.9544 1.6875,-0.0937 q 0,0.71875 0.21875,1.23438 0.21875,0.51562 0.8125,0.84375 0.60937,0.3125 1.40625,0.3125 1.10937,0 1.67187,-0.4375 0.5625,-0.45313 0.5625,-1.04688 0,-0.4375 -0.34375,-0.82812 -0.34375,-0.39063 -1.67187,-0.95313 -1.32813,-0.57812 -1.70313,-0.8125 -0.625,-0.375 -0.9375,-0.89062 -0.3125,-0.51563 -0.3125,-1.1875 0,-1.17188 0.92188,-2 0.9375,-0.84375 2.60937,-0.84375 1.84375,0 2.8125,0.85937 0.96875,0.85938 1.01563,2.26563 l -1.64063,0.10937 q -0.0469,-0.89062 -0.64062,-1.40625 -0.59375,-0.53125 -1.67188,-0.53125 -0.875,0 -1.35937,0.40625 -0.48438,0.39063 -0.48438,0.85938 0,0.46875 0.42188,0.8125 0.28125,0.25 1.4375,0.75 1.9375,0.82812 2.4375,1.3125 0.79687,0.76562 0.79687,1.875 0,0.73437 -0.45312,1.4375 -0.45313,0.70312 -1.375,1.125 -0.92188,0.42187 -2.17188,0.42187 -1.70312,0 -2.90625,-0.84375 -1.20312,-0.84375 -1.14062,-2.75 z m 9.17187,3.375 2.0625,-9.85937 1.67188,0 -0.34375,1.625 q 0.9375,-1.04688 1.67187,-1.4375 0.73438,-0.40625 1.60938,-0.40625 0.90625,0 1.51562,0.5 0.625,0.48437 0.82813,1.34375 0.75,-0.92188 1.57812,-1.375 0.82813,-0.46875 1.75,-0.46875 1.23438,0 1.84375,0.59375 0.625,0.57812 0.625,1.64062 0,0.45313 -0.21875,1.5 l -1.32812,6.34375 -1.67188,0 1.35938,-6.51562 q 0.17187,-0.79688 0.17187,-1.14063 0,-0.48437 -0.3125,-0.75 -0.29687,-0.28125 -0.85937,-0.28125 -0.75,0 -1.53125,0.45313 -0.78125,0.45312 -1.21875,1.1875 -0.42188,0.73437 -0.75,2.26562 l -1,4.78125 -1.67188,0 1.39063,-6.65625 q 0.14062,-0.67187 0.14062,-0.95312 0,-0.48438 -0.29687,-0.78125 -0.29688,-0.29688 -0.78125,-0.29688 -0.71875,0 -1.5,0.45313 -0.78125,0.45312 -1.28125,1.26562 -0.48438,0.8125 -0.79688,2.3125 l -0.98437,4.65625 -1.67188,0 z m 19.47831,-1.35937 -0.28125,1.375 q -0.60938,0.15625 -1.17188,0.15625 -1,0 -1.59375,-0.5 -0.45312,-0.375 -0.45312,-1.01563 0,-0.3125 0.25,-1.48437 l 1.1875,-5.71875 -1.32813,0 0.28125,-1.3125 1.32813,0 0.5,-2.42188 1.92187,-1.15625 -0.75,3.57813 1.65625,0 -0.28125,1.3125 -1.64062,0 -1.14063,5.4375 q -0.21875,1.04687 -0.21875,1.25 0,0.29687 0.17188,0.45312 0.17187,0.15625 0.5625,0.15625 0.5625,0 1,-0.10937 z m 0.43332,5.14062 2.84375,-13.64062 1.54687,0 -0.28125,1.375 q 0.85938,-0.89063 1.53125,-1.23438 0.6875,-0.35937 1.45313,-0.35937 1.40625,0 2.32812,1.03125 0.9375,1.01562 0.9375,2.9375 0,1.53125 -0.51562,2.79687 -0.51563,1.26563 -1.26563,2.04688 -0.73437,0.76562 -1.5,1.125 -0.75,0.35937 -1.54687,0.35937 -1.76563,0 -2.75,-1.79687 l -1.10938,5.35937 -1.67187,0 z m 3.3125,-7.8125 q 0,1.10938 0.15625,1.53125 0.23437,0.60938 0.76562,0.98438 0.53125,0.35937 1.21875,0.35937 1.45313,0 2.34375,-1.625 0.89063,-1.625 0.89063,-3.32812 0,-1.25 -0.60938,-1.92188 -0.59375,-0.6875 -1.48437,-0.6875 -0.64063,0 -1.1875,0.34375 -0.54688,0.32813 -1.01563,1 -0.46875,0.67188 -0.78125,1.65625 -0.29687,0.96875 -0.29687,1.6875 z"
       id="path4754"
       inkscape:connector-curvature="0"
       style="fill:#000000;fill-rule:nonzero" />
  </g>
  <g
     id="phase3"
     inkscape:label="#g4896">
    <path
       d="m 523.4829,246.59842 6.42523,-72.03149"
       id="path4732"
       inkscape:connector-curvature="0"
       style="fill:#000000;fill-opacity:0;fill-rule:nonzero" />
    <path
       d="m 523.4829,246.59842 5.35907,-60.07893"
       id="path4734"
       inkscape:connector-curvature="0"
       style="stroke:#000000;stroke-width:2;stroke-linecap:butt;stroke-linejoin:round" />
    <path
       d="m 532.1324,186.81297 -2.48401,-9.3338 -4.0968,8.74679 z"
       id="path4736"
       inkscape:connector-curvature="0"
       style="fill:#000000;fill-rule:evenodd;stroke:#000000;stroke-width:2;stroke-linecap:butt" />
    <path
       d="m 481.74506,193 144,0 0,48 -144,0 z"
       id="path4756"
       inkscape:connector-curvature="0"
       style="fill:#000000;fill-opacity:0;fill-rule:nonzero" />
    <path
       d="m 534.3123,219.78906 1.6875,-0.0937 q 0,0.71875 0.21875,1.23437 0.21875,0.51563 0.8125,0.84375 0.60938,0.3125 1.40625,0.3125 1.10938,0 1.67188,-0.4375 0.5625,-0.45312 0.5625,-1.04687 0,-0.4375 -0.34375,-0.82813 -0.34375,-0.39062 -1.67188,-0.95312 -1.32812,-0.57813 -1.70312,-0.8125 -0.625,-0.375 -0.9375,-0.89063 -0.3125,-0.51562 -0.3125,-1.1875 0,-1.17187 0.92187,-2 0.9375,-0.84375 2.60938,-0.84375 1.84375,0 2.8125,0.85938 0.96875,0.85937 1.01562,2.26562 l -1.64062,0.10938 q -0.0469,-0.89063 -0.64063,-1.40625 -0.59375,-0.53125 -1.67187,-0.53125 -0.875,0 -1.35938,0.40625 -0.48437,0.39062 -0.48437,0.85937 0,0.46875 0.42187,0.8125 0.28125,0.25 1.4375,0.75 1.9375,0.82813 2.4375,1.3125 0.79688,0.76563 0.79688,1.875 0,0.73438 -0.45313,1.4375 -0.45312,0.70313 -1.375,1.125 -0.92187,0.42188 -2.17187,0.42188 -1.70313,0 -2.90625,-0.84375 -1.20313,-0.84375 -1.14063,-2.75 z m 9.17188,3.375 2.0625,-9.85938 1.67187,0 -0.34375,1.625 q 0.9375,-1.04687 1.67188,-1.4375 0.73437,-0.40625 1.60937,-0.40625 0.90625,0 1.51563,0.5 0.625,0.48438 0.82812,1.34375 0.75,-0.92187 1.57813,-1.375 0.82812,-0.46875 1.75,-0.46875 1.23437,0 1.84375,0.59375 0.625,0.57813 0.625,1.64063 0,0.45312 -0.21875,1.5 l -1.32813,6.34375 -1.67187,0 1.35937,-6.51563 q 0.17188,-0.79687 0.17188,-1.14062 0,-0.48438 -0.3125,-0.75 -0.29688,-0.28125 -0.85938,-0.28125 -0.75,0 -1.53125,0.45312 -0.78125,0.45313 -1.21875,1.1875 -0.42187,0.73438 -0.75,2.26563 l -1,4.78125 -1.67187,0 1.39062,-6.65625 q 0.14063,-0.67188 0.14063,-0.95313 0,-0.48437 -0.29688,-0.78125 -0.29687,-0.29687 -0.78125,-0.29687 -0.71875,0 -1.5,0.45312 -0.78125,0.45313 -1.28125,1.26563 -0.48437,0.8125 -0.79687,2.3125 l -0.98438,4.65625 -1.67187,0 z m 19.47833,-1.35938 -0.28125,1.375 q -0.60938,0.15625 -1.17188,0.15625 -1,0 -1.59375,-0.5 -0.45312,-0.375 -0.45312,-1.01562 0,-0.3125 0.25,-1.48438 l 1.1875,-5.71875 -1.32813,0 0.28125,-1.3125 1.32813,0 0.5,-2.42187 1.92187,-1.15625 -0.75,3.57812 1.65625,0 -0.28125,1.3125 -1.64062,0 -1.14063,5.4375 q -0.21875,1.04688 -0.21875,1.25 0,0.29688 0.17188,0.45313 0.17187,0.15625 0.5625,0.15625 0.5625,0 1,-0.10938 z m 0.43329,5.14063 2.84375,-13.64063 1.54687,0 -0.28125,1.375 q 0.85938,-0.89062 1.53125,-1.23437 0.6875,-0.35938 1.45313,-0.35938 1.40625,0 2.32812,1.03125 0.9375,1.01563 0.9375,2.9375 0,1.53125 -0.51562,2.79688 -0.51563,1.26562 -1.26563,2.04687 -0.73437,0.76563 -1.5,1.125 -0.75,0.35938 -1.54687,0.35938 -1.76563,0 -2.75,-1.79688 l -1.10938,5.35938 -1.67187,0 z m 3.3125,-7.8125 q 0,1.10937 0.15625,1.53125 0.23437,0.60937 0.76562,0.98437 0.53125,0.35938 1.21875,0.35938 1.45313,0 2.34375,-1.625 0.89063,-1.625 0.89063,-3.32813 0,-1.25 -0.60938,-1.92187 -0.59375,-0.6875 -1.48437,-0.6875 -0.64063,0 -1.1875,0.34375 -0.54688,0.32812 -1.01563,1 -0.46875,0.67187 -0.78125,1.65625 -0.29687,0.96875 -0.29687,1.6875 z"
       id="path4758"
       inkscape:connector-curvature="0"
       style="fill:#000000;fill-rule:nonzero" />
  </g>
  <path
     style="fill:#000000;fill-opacity:0;fill-rule:nonzero"
     inkscape:connector-curvature="0"
     id="path4760"
     d="m 550.7891,60.56693 144,0 0,48 -144,0 z" />
  <g
     id="phase4"
     inkscape:label="#g4903">
    <path
       d="M 691.7953,96.826775 580.39369,133.20473"
       id="path4738"
       inkscape:connector-curvature="0"
       style="fill:#000000;fill-opacity:0;fill-rule:nonzero" />
    <path
       d="M 691.7953,96.826775 591.80092,129.47972"
       id="path4740"
       inkscape:connector-curvature="0"
       style="stroke:#000000;stroke-width:2;stroke-linecap:butt;stroke-linejoin:round" />
    <path
       d="m 590.77545,126.33945 -7.60236,5.95769 9.65326,0.32286 z"
       id="path4742"
       inkscape:connector-curvature="0"
       style="fill:#000000;fill-rule:evenodd;stroke:#000000;stroke-width:2;stroke-linecap:butt" />
    <path
       d="m 579.6515,79.02787 0.40625,-1.890625 1.65625,0 -0.39062,1.890625 -1.67188,0 z m -2.45312,11.703125 2.0625,-9.859375 1.6875,0 -2.0625,9.859375 -1.6875,0 z m 4.20733,0 2.0625,-9.859375 1.67188,0 -0.34375,1.625 q 0.9375,-1.046875 1.67187,-1.4375 0.73438,-0.40625 1.60938,-0.40625 0.90625,0 1.51562,0.5 0.625,0.484375 0.82813,1.34375 0.75,-0.921875 1.57812,-1.375 0.82813,-0.46875 1.75,-0.46875 1.23438,0 1.84375,0.59375 0.625,0.578125 0.625,1.640625 0,0.453125 -0.21875,1.5 l -1.32812,6.34375 -1.67188,0 1.35938,-6.515625 q 0.17187,-0.796875 0.17187,-1.140625 0,-0.484375 -0.3125,-0.75 -0.29687,-0.28125 -0.85937,-0.28125 -0.75,0 -1.53125,0.453125 -0.78125,0.453125 -1.21875,1.1875 -0.42188,0.734375 -0.75,2.265625 l -1,4.78125 -1.67188,0 1.39063,-6.65625 q 0.14062,-0.671875 0.14062,-0.953125 0,-0.484375 -0.29687,-0.78125 -0.29688,-0.296875 -0.78125,-0.296875 -0.71875,0 -1.5,0.453125 -0.78125,0.453125 -1.28125,1.265625 -0.48438,0.8125 -0.79688,2.3125 l -0.98437,4.65625 -1.67188,0 z m 22.19702,-1.21875 q -0.875,0.75 -1.6875,1.09375 -0.8125,0.34375 -1.71875,0.34375 -1.375,0 -2.21875,-0.796875 -0.82812,-0.796875 -0.82812,-2.0625 0,-0.8125 0.375,-1.453125 0.39062,-0.640625 1,-1.015625 0.625,-0.390625 1.53125,-0.5625 0.5625,-0.109375 2.14062,-0.171875 1.57813,-0.0625 2.26563,-0.328125 0.20312,-0.6875 0.20312,-1.140625 0,-0.59375 -0.4375,-0.921875 -0.57812,-0.46875 -1.70312,-0.46875 -1.04688,0 -1.73438,0.46875 -0.67187,0.46875 -0.96875,1.328125 l -1.70312,-0.140625 q 0.51562,-1.46875 1.64062,-2.25 1.14063,-0.78125 2.85938,-0.78125 1.82812,0 2.89062,0.875 0.8125,0.65625 0.8125,1.6875 0,0.796875 -0.23437,1.828125 l -0.54688,2.453125 q -0.25,1.171875 -0.25,1.890625 0,0.46875 0.20313,1.34375 l -1.70313,0 q -0.14062,-0.484375 -0.1875,-1.21875 z m 0.60938,-3.765625 q -0.34375,0.125 -0.75,0.203125 -0.40625,0.07813 -1.34375,0.15625 -1.46875,0.140625 -2.07813,0.34375 -0.59375,0.1875 -0.90625,0.625 -0.3125,0.4375 -0.3125,0.96875 0,0.703125 0.48438,1.15625 0.5,0.453125 1.39062,0.453125 0.84375,0 1.60938,-0.4375 0.76562,-0.4375 1.20312,-1.21875 0.45313,-0.796875 0.70313,-2.25 z m 2.2976,8.765625 2.84375,-13.640625 1.54688,0 -0.28125,1.375 q 0.85937,-0.890625 1.53125,-1.234375 0.6875,-0.359375 1.45312,-0.359375 1.40625,0 2.32813,1.03125 0.9375,1.015625 0.9375,2.9375 0,1.53125 -0.51563,2.796875 -0.51562,1.265625 -1.26562,2.046875 -0.73438,0.765625 -1.5,1.125 -0.75,0.359375 -1.54688,0.359375 -1.76562,0 -2.75,-1.796875 l -1.10937,5.359375 -1.67188,0 z m 3.3125,-7.8125 q 0,1.109375 0.15625,1.53125 0.23438,0.609375 0.76563,0.984375 0.53125,0.359375 1.21875,0.359375 1.45312,0 2.34375,-1.625 0.89062,-1.625 0.89062,-3.328125 0,-1.25 -0.60937,-1.921875 -0.59375,-0.6875 -1.48438,-0.6875 -0.64062,0 -1.1875,0.34375 -0.54687,0.328125 -1.01562,1 -0.46875,0.671875 -0.78125,1.65625 -0.29688,0.96875 -0.29688,1.6875 z m 8.28199,4.03125 0.39062,-1.90625 1.92188,0 -0.34375,1.671875 q -0.3125,1.484375 -0.98438,2.171875 -0.65625,0.703125 -1.5625,0.8125 l 0.15625,-0.734375 q 1.10938,-0.3125 1.45313,-2.015625 l -1.03125,0 z m 9.14782,3.78125 2.84375,-13.640625 1.54688,0 -0.28125,1.375 q 0.85937,-0.890625 1.53125,-1.234375 0.6875,-0.359375 1.45312,-0.359375 1.40625,0 2.32813,1.03125 0.9375,1.015625 0.9375,2.9375 0,1.53125 -0.51563,2.796875 -0.51562,1.265625 -1.26562,2.046875 -0.73438,0.765625 -1.5,1.125 -0.75,0.359375 -1.54688,0.359375 -1.76562,0 -2.75,-1.796875 l -1.10937,5.359375 -1.67188,0 z m 3.3125,-7.8125 q 0,1.109375 0.15625,1.53125 0.23438,0.609375 0.76563,0.984375 0.53125,0.359375 1.21875,0.359375 1.45312,0 2.34375,-1.625 0.89062,-1.625 0.89062,-3.328125 0,-1.25 -0.60937,-1.921875 -0.59375,-0.6875 -1.48438,-0.6875 -0.64062,0 -1.1875,0.34375 -0.54687,0.328125 -1.01562,1 -0.46875,0.671875 -0.78125,1.65625 -0.29688,0.96875 -0.29688,1.6875 z m 8.17261,0.296875 q 0,-2.890625 1.70313,-4.78125 1.40625,-1.5625 3.67187,-1.5625 1.78125,0 2.875,1.125 1.09375,1.109375 1.09375,3 0,1.6875 -0.6875,3.15625 -0.6875,1.453125 -1.95312,2.234375 -1.26563,0.78125 -2.67188,0.78125 -1.15625,0 -2.09375,-0.484375 -0.9375,-0.5 -1.4375,-1.390625 -0.5,-0.90625 -0.5,-2.078125 z m 1.6875,-0.171875 q 0,1.390625 0.65625,2.109375 0.67188,0.71875 1.70313,0.71875 0.54687,0 1.0625,-0.21875 0.53125,-0.21875 0.98437,-0.65625 0.46875,-0.453125 0.78125,-1.015625 0.32813,-0.578125 0.51563,-1.234375 0.28125,-0.921875 0.28125,-1.765625 0,-1.328125 -0.67188,-2.0625 -0.67187,-0.75 -1.6875,-0.75 -0.78125,0 -1.4375,0.375 -0.65625,0.375 -1.1875,1.109375 -0.51562,0.71875 -0.76562,1.6875 -0.23438,0.953125 -0.23438,1.703125 z m 7.57886,7.6875 2.84375,-13.640625 1.54687,0 -0.28125,1.375 q 0.85938,-0.890625 1.53125,-1.234375 0.6875,-0.359375 1.45313,-0.359375 1.40625,0 2.32812,1.03125 0.9375,1.015625 0.9375,2.9375 0,1.53125 -0.51562,2.796875 -0.51563,1.265625 -1.26563,2.046875 -0.73437,0.765625 -1.5,1.125 -0.75,0.359375 -1.54687,0.359375 -1.76563,0 -2.75,-1.796875 l -1.10938,5.359375 -1.67187,0 z m 3.3125,-7.8125 q 0,1.109375 0.15625,1.53125 0.23437,0.609375 0.76562,0.984375 0.53125,0.359375 1.21875,0.359375 1.45313,0 2.34375,-1.625 0.89063,-1.625 0.89063,-3.328125 0,-1.25 -0.60938,-1.921875 -0.59375,-0.6875 -1.48437,-0.6875 -0.64063,0 -1.1875,0.34375 -0.54688,0.328125 -1.01563,1 -0.46875,0.671875 -0.78125,1.65625 -0.29687,0.96875 -0.29687,1.6875 z m 8.29754,0.46875 1.625,-0.203125 q 0.1875,1.421875 0.8125,2.046875 0.64063,0.609375 1.67188,0.609375 1.25,0 2.14062,-0.890625 0.90625,-0.890625 0.90625,-2.03125 0,-1 -0.67187,-1.65625 -0.67188,-0.65625 -1.8125,-0.65625 -0.14063,0 -0.54688,0.03125 l 0.29688,-1.390625 q 0.23437,0.03125 0.45312,0.03125 1.4375,0 2.21875,-0.703125 0.78125,-0.703125 0.78125,-1.71875 0,-0.9375 -0.64062,-1.578125 -0.64063,-0.640625 -1.5625,-0.640625 -0.89063,0 -1.60938,0.65625 -0.71875,0.65625 -0.92187,1.84375 l -1.65625,-0.328125 q 0.40625,-1.671875 1.5625,-2.59375 1.17187,-0.921875 2.75,-0.921875 1.67187,0 2.70312,1.015625 1.03125,1 1.03125,2.484375 0,1.078125 -0.5625,1.875 -0.54687,0.796875 -1.67187,1.328125 0.79687,0.484375 1.1875,1.15625 0.39062,0.65625 0.39062,1.515625 0,1.828125 -1.375,3.171875 -1.35937,1.34375 -3.26562,1.34375 -1.84375,0 -2.98438,-1.03125 -1.125,-1.046875 -1.25,-2.765625 z"
       id="path4762"
       inkscape:connector-curvature="0"
       style="fill:#000000;fill-rule:nonzero" />
  </g>
  <path
     style="fill:#000000;fill-opacity:0;fill-rule:nonzero"
     inkscape:connector-curvature="0"
     id="path4764"
     d="m -26.800882,378.14435 144.000002,0 0,48 -144.000002,0 z" />
  <path
     style="fill:#000000;fill-rule:nonzero"
     inkscape:connector-curvature="0"
     id="path4766"
     d="m 24.418676,408.3084 0,-8.54688 -1.484375,0 0,-1.3125 1.484375,0 0,-1.04687 q 0,-0.98438 0.171875,-1.46875 0.234375,-0.65625 0.84375,-1.04688 0.609375,-0.40625 1.703125,-0.40625 0.703125,0 1.5625,0.15625 l -0.25,1.46875 q -0.515625,-0.0937 -0.984375,-0.0937 -0.765625,0 -1.078125,0.32813 -0.3125,0.3125 -0.3125,1.20312 l 0,0.90625 1.921875,0 0,1.3125 -1.921875,0 0,8.54688 -1.65625,0 z m 4.152054,-4.92188 q 0,-2.73437 1.53125,-4.0625 1.265625,-1.09375 3.093748,-1.09375 2.03125,0 3.3125,1.34375 1.296875,1.32813 1.296875,3.67188 0,1.90625 -0.578125,3 -0.5625,1.07812 -1.65625,1.6875 -1.078125,0.59375 -2.375,0.59375 -2.062498,0 -3.343748,-1.32813 -1.28125,-1.32812 -1.28125,-3.8125 z m 1.71875,0 q 0,1.89063 0.828125,2.82813 0.828125,0.9375 2.078123,0.9375 1.25,0 2.0625,-0.9375 0.828125,-0.95313 0.828125,-2.89063 0,-1.82812 -0.828125,-2.76562 -0.828125,-0.9375 -2.0625,-0.9375 -1.249998,0 -2.078123,0.9375 -0.828125,0.9375 -0.828125,2.82812 z m 8.656965,0 q 0,-2.73437 1.53125,-4.0625 1.265625,-1.09375 3.09375,-1.09375 2.03125,0 3.3125,1.34375 1.296875,1.32813 1.296875,3.67188 0,1.90625 -0.578125,3 -0.5625,1.07812 -1.65625,1.6875 -1.078125,0.59375 -2.375,0.59375 -2.0625,0 -3.34375,-1.32813 -1.28125,-1.32812 -1.28125,-3.8125 z m 1.71875,0 q 0,1.89063 0.828125,2.82813 0.828125,0.9375 2.078125,0.9375 1.25,0 2.0625,-0.9375 0.828125,-0.95313 0.828125,-2.89063 0,-1.82812 -0.828125,-2.76562 -0.828125,-0.9375 -2.0625,-0.9375 -1.25,0 -2.078125,0.9375 -0.828125,0.9375 -0.828125,2.82812 z m 18.797592,3.40625 q -0.59375,0.70313 -1.34375,1.125 -0.75,0.42188 -1.5,0.42188 -0.828125,0 -1.609375,-0.48438 -0.78125,-0.48437 -1.265625,-1.48437 -0.484375,-1 -0.484375,-2.20313 0,-1.46875 0.75,-2.95312 0.765625,-1.48438 1.890625,-2.21875 1.125,-0.75 2.171875,-0.75 0.8125,0 1.546875,0.42187 0.734375,0.42188 1.265625,1.29688 l 0.3125,-1.4375 1.65625,0 -1.328125,6.21875 q -0.28125,1.29687 -0.28125,1.4375 0,0.25 0.1875,0.4375 0.1875,0.17187 0.453125,0.17187 0.5,0 1.296875,-0.5625 1.062504,-0.75 1.671879,-1.98437 0.625,-1.25 0.625,-2.57813 0,-1.54687 -0.796875,-2.89062 -0.796879,-1.34375 -2.375004,-2.15625 -1.5625,-0.8125 -3.46875,-0.8125 -2.171875,0 -3.96875,1.01562 -1.796875,1.01563 -2.78125,2.92188 -0.984375,1.89062 -0.984375,4.0625 0,2.26562 0.984375,3.92187 0.984375,1.64063 2.859375,2.42188 1.875,0.78125 4.140625,0.78125 2.4375,0 4.078125,-0.8125 1.640629,-0.8125 2.453129,-1.98438 l 1.671875,0 q -0.46875,0.96875 -1.625,1.98438 -1.140625,1.01562 -2.734379,1.59375 -1.578125,0.59375 -3.8125,0.59375 -2.0625,0 -3.8125,-0.53125 -1.734375,-0.53125 -2.953125,-1.59375 -1.21875,-1.0625 -1.84375,-2.4375 -0.78125,-1.75 -0.78125,-3.78125 0,-2.26563 0.921875,-4.32813 1.140625,-2.5 3.21875,-3.82812 2.078125,-1.34375 5.046875,-1.34375 2.3125,0 4.140625,0.9375 1.828129,0.9375 2.890629,2.79687 0.890625,1.60938 0.890625,3.5 0,2.6875 -1.890625,4.76563 -1.687504,1.875 -3.687504,1.875 -0.640625,0 -1.03125,-0.1875 -0.390625,-0.20313 -0.578125,-0.5625 -0.125,-0.23438 -0.1875,-0.79688 z m -4.484375,-2.51562 q 0,1.28125 0.59375,1.98437 0.609375,0.70313 1.390625,0.70313 0.515625,0 1.09375,-0.3125 0.578125,-0.3125 1.09375,-0.92188 0.53125,-0.60937 0.859375,-1.54687 0.34375,-0.95313 0.34375,-1.89063 0,-1.26562 -0.625,-1.95312 -0.625,-0.70313 -1.53125,-0.70313 -0.59375,0 -1.125,0.29688 -0.515625,0.29687 -1.015625,0.96875 -0.484375,0.67187 -0.78125,1.625 -0.296875,0.95312 -0.296875,1.75 z" />
  <path
     style="fill:#000000;fill-opacity:0;fill-rule:nonzero"
     inkscape:connector-curvature="0"
     id="path4768"
     d="m 648.2962,10.002625 172.50397,0 0,47.999999 -172.50397,0 z" />
  <path
     style="fill:#000000;fill-rule:nonzero"
     inkscape:connector-curvature="0"
     id="path4770"
     d="m 704.77496,40.979187 1.60937,0.25 q 0.10938,0.75 0.57813,1.09375 0.60937,0.453125 1.6875,0.453125 1.17187,0 1.79687,-0.46875 0.625,-0.453125 0.85938,-1.28125 0.125,-0.515625 0.10937,-2.15625 -1.09375,1.296875 -2.71875,1.296875 -2.03125,0 -3.15625,-1.46875 -1.10937,-1.46875 -1.10937,-3.515625 0,-1.40625 0.51562,-2.59375 0.51563,-1.203125 1.48438,-1.84375 0.96875,-0.65625 2.26562,-0.65625 1.75,0 2.875,1.40625 l 0,-1.1875 1.54688,0 0,8.515625 q 0,2.3125 -0.46875,3.265625 -0.46875,0.96875 -1.48438,1.515625 -1.01562,0.5625 -2.5,0.5625 -1.76562,0 -2.85937,-0.796875 -1.07813,-0.796875 -1.03125,-2.390625 z m 1.375,-5.921875 q 0,1.953125 0.76562,2.84375 0.78125,0.890625 1.9375,0.890625 1.14063,0 1.92188,-0.890625 0.78125,-0.890625 0.78125,-2.78125 0,-1.8125 -0.8125,-2.71875 -0.79688,-0.921875 -1.92188,-0.921875 -1.10937,0 -1.89062,0.90625 -0.78125,0.890625 -0.78125,2.671875 z m 9.31323,-6.578125 0,-1.90625 1.67188,0 0,1.90625 -1.67188,0 z m 0,11.6875 0,-9.859375 1.67188,0 0,9.859375 -1.67188,0 z m 4.09796,0 0,-13.59375 1.67188,0 0,13.59375 -1.67188,0 z m 4.14484,0 0,-13.59375 1.67187,0 0,13.59375 -1.67187,0 z m 10.92602,-3.171875 1.71875,0.21875 q -0.40625,1.5 -1.51562,2.34375 -1.09375,0.828125 -2.8125,0.828125 -2.15625,0 -3.42188,-1.328125 -1.26562,-1.328125 -1.26562,-3.734375 0,-2.484375 1.26562,-3.859375 1.28125,-1.375 3.32813,-1.375 1.98437,0 3.23437,1.34375 1.25,1.34375 1.25,3.796875 0,0.140625 -0.0156,0.4375 l -7.34375,0 q 0.0937,1.625 0.92187,2.484375 0.82813,0.859375 2.0625,0.859375 0.90625,0 1.54688,-0.46875 0.65625,-0.484375 1.04687,-1.546875 z m -5.48437,-2.703125 5.5,0 q -0.10938,-1.234375 -0.625,-1.859375 -0.79688,-0.96875 -2.07813,-0.96875 -1.14062,0 -1.9375,0.78125 -0.78125,0.765625 -0.85937,2.046875 z m 8.43823,2.9375 1.65625,-0.265625 q 0.14063,1 0.76563,1.53125 0.64062,0.515625 1.78125,0.515625 1.15625,0 1.70312,-0.46875 0.5625,-0.46875 0.5625,-1.09375 0,-0.5625 -0.48437,-0.890625 -0.34375,-0.21875 -1.70313,-0.5625 -1.84375,-0.46875 -2.5625,-0.796875 -0.70312,-0.34375 -1.07812,-0.9375 -0.35938,-0.609375 -0.35938,-1.328125 0,-0.65625 0.29688,-1.21875 0.3125,-0.5625 0.82812,-0.9375 0.39063,-0.28125 1.0625,-0.484375 0.67188,-0.203125 1.4375,-0.203125 1.17188,0 2.04688,0.34375 0.875,0.328125 1.28125,0.90625 0.42187,0.5625 0.57812,1.515625 l -1.625,0.21875 q -0.10937,-0.75 -0.65625,-1.171875 -0.53125,-0.4375 -1.5,-0.4375 -1.15625,0 -1.64062,0.390625 -0.48438,0.375 -0.48438,0.875 0,0.328125 0.20313,0.59375 0.20312,0.265625 0.64062,0.4375 0.25,0.09375 1.46875,0.4375 1.76563,0.46875 2.46875,0.765625 0.70313,0.296875 1.09375,0.875 0.40625,0.578125 0.40625,1.4375 0,0.828125 -0.48437,1.578125 -0.48438,0.734375 -1.40625,1.140625 -0.92188,0.390625 -2.07813,0.390625 -1.92187,0 -2.9375,-0.796875 -1,-0.796875 -1.28125,-2.359375 z m 19.51563,1.421875 q -0.59375,0.703125 -1.34375,1.125 -0.75,0.421875 -1.5,0.421875 -0.82813,0 -1.60938,-0.484375 -0.78125,-0.484375 -1.26562,-1.484375 -0.48438,-1 -0.48438,-2.203125 0,-1.46875 0.75,-2.953125 0.76563,-1.484375 1.89063,-2.21875 1.125,-0.75 2.17187,-0.75 0.8125,0 1.54688,0.421875 0.73437,0.421875 1.26562,1.296875 l 0.3125,-1.4375 1.65625,0 -1.32812,6.21875 q -0.28125,1.296875 -0.28125,1.4375 0,0.25 0.1875,0.4375 0.1875,0.171875 0.45312,0.171875 0.5,0 1.29688,-0.5625 1.0625,-0.75 1.67187,-1.984375 0.625,-1.25 0.625,-2.578125 0,-1.546875 -0.79687,-2.890625 -0.79688,-1.34375 -2.375,-2.15625 -1.5625,-0.8125 -3.46875,-0.8125 -2.17188,0 -3.96875,1.015625 -1.79688,1.015625 -2.78125,2.921875 -0.98438,1.890625 -0.98438,4.0625 0,2.265625 0.98438,3.921875 0.98437,1.640625 2.85937,2.421875 1.875,0.78125 4.14063,0.78125 2.4375,0 4.07812,-0.8125 1.64063,-0.8125 2.45313,-1.984375 l 1.67187,0 q -0.46875,0.96875 -1.625,1.984375 -1.14062,1.015625 -2.73437,1.59375 -1.57813,0.59375 -3.8125,0.59375 -2.0625,0 -3.8125,-0.53125 -1.73438,-0.53125 -2.95313,-1.59375 -1.21875,-1.0625 -1.84375,-2.4375 -0.78125,-1.75 -0.78125,-3.78125 0,-2.265625 0.92188,-4.328125 1.14062,-2.5 3.21875,-3.828125 2.07812,-1.34375 5.04687,-1.34375 2.3125,0 4.14063,0.9375 1.82812,0.9375 2.89062,2.796875 0.89063,1.609375 0.89063,3.5 0,2.6875 -1.89063,4.765625 -1.6875,1.875 -3.6875,1.875 -0.64062,0 -1.03125,-0.1875 -0.39062,-0.203125 -0.57812,-0.5625 -0.125,-0.234375 -0.1875,-0.796875 z m -4.48438,-2.515625 q 0,1.28125 0.59375,1.984375 0.60938,0.703125 1.39063,0.703125 0.51562,0 1.09375,-0.3125 0.57812,-0.3125 1.09375,-0.921875 0.53125,-0.609375 0.85937,-1.546875 0.34375,-0.953125 0.34375,-1.890625 0,-1.265625 -0.625,-1.953125 -0.625,-0.703125 -1.53125,-0.703125 -0.59375,0 -1.125,0.296875 -0.51562,0.296875 -1.01562,0.96875 -0.48438,0.671875 -0.78125,1.625 -0.29688,0.953125 -0.29688,1.75 z" />
  <path
     style="fill:#cfe2f3;fill-rule:nonzero"
     inkscape:connector-curvature="0"
     id="path4772"
     d="m 706.68994,84.56693 0,0 c 0,-12.480766 9.27863,-22.59843 20.72443,-22.59843 11.44574,0 20.72436,10.117664 20.72436,22.59843 0,12.480759 -9.27862,22.59842 -20.72436,22.59842 -11.44581,0 -20.72443,-10.11766 -20.72443,-22.59842 z" />
  <path
     style="fill:#a5b4c2;fill-rule:nonzero"
     inkscape:connector-curvature="0"
     id="path4774"
     d="m 718.6161,77.80833 c 0,-1.300079 0.96649,-2.354004 2.15875,-2.354004 1.19226,0 2.15882,1.053925 2.15882,2.354004 0,1.300079 -0.96656,2.354004 -2.15882,2.354004 -1.19226,0 -2.15875,-1.053925 -2.15875,-2.354004 m 13.27893,0 c 0,-1.300079 0.96655,-2.354004 2.15881,-2.354004 1.19227,0 2.15882,1.053925 2.15882,2.354004 0,1.300079 -0.96655,2.354004 -2.15882,2.354004 -1.19226,0 -2.15881,-1.053925 -2.15881,-2.354004" />
  <path
     style="stroke:#000000;stroke-width:2;stroke-linecap:butt;stroke-linejoin:round"
     inkscape:connector-curvature="0"
     id="path4776"
     d="m 718.6161,77.80833 c 0,-1.300079 0.96649,-2.354004 2.15875,-2.354004 1.19226,0 2.15882,1.053925 2.15882,2.354004 0,1.300079 -0.96656,2.354004 -2.15882,2.354004 -1.19226,0 -2.15875,-1.053925 -2.15875,-2.354004 m 13.27893,0 c 0,-1.300079 0.96655,-2.354004 2.15881,-2.354004 1.19227,0 2.15882,1.053925 2.15882,2.354004 0,1.300079 -0.96655,2.354004 -2.15882,2.354004 -1.19226,0 -2.15881,-1.053925 -2.15881,-2.354004" />
  <path
     style="fill:#000000;fill-opacity:0;fill-rule:nonzero"
     inkscape:connector-curvature="0"
     id="path4778"
     d="m 716.1816,94.42226 q 11.23279,8.41203 22.43927,0" />
  <path
     style="stroke:#000000;stroke-width:2;stroke-linecap:butt;stroke-linejoin:round"
     inkscape:connector-curvature="0"
     id="path4780"
     d="m 716.1816,94.42226 q 11.23279,8.41203 22.43927,0" />
  <path
     style="fill:#000000;fill-opacity:0;fill-rule:nonzero"
     inkscape:connector-curvature="0"
     id="path4782"
     d="m 706.68994,84.56693 0,0 c 0,-12.480766 9.27863,-22.59843 20.72443,-22.59843 11.44574,0 20.72436,10.117664 20.72436,22.59843 0,12.480759 -9.27862,22.59842 -20.72436,22.59842 -11.44581,0 -20.72443,-10.11766 -20.72443,-22.59842 z" />
  <path
     style="stroke:#000000;stroke-width:2;stroke-linecap:butt;stroke-linejoin:round"
     inkscape:connector-curvature="0"
     id="path4784"
     d="m 706.68994,84.56693 0,0 c 0,-12.480766 9.27863,-22.59843 20.72443,-22.59843 11.44574,0 20.72436,10.117664 20.72436,22.59843 0,12.480759 -9.27862,22.59842 -20.72436,22.59842 -11.44581,0 -20.72443,-10.11766 -20.72443,-22.59842 z" />
  <path
     style="fill:#cfe2f3;fill-rule:nonzero"
     inkscape:connector-curvature="0"
     id="path4786"
     d="m 24.474709,352.6404 0,0 c 0,-12.48074 9.278633,-22.59842 20.724407,-22.59842 11.445778,0 20.724415,10.11768 20.724415,22.59842 0,12.48077 -9.278637,22.59842 -20.724415,22.59842 -11.445774,0 -20.724407,-10.11765 -20.724407,-22.59842 z" />
  <path
     style="fill:#a5b4c2;fill-rule:nonzero"
     inkscape:connector-curvature="0"
     id="path4788"
     d="m 36.400837,345.8818 c 0,-1.30008 0.966526,-2.354 2.158794,-2.354 1.192269,0 2.158791,1.05392 2.158791,2.354 0,1.30008 -0.966522,2.354 -2.158791,2.354 -1.192268,0 -2.158794,-1.05392 -2.158794,-2.354 m 13.278976,0 c 0,-1.30008 0.966522,-2.354 2.158791,-2.354 1.192268,0 2.158794,1.05392 2.158794,2.354 0,1.30008 -0.966526,2.354 -2.158794,2.354 -1.192269,0 -2.158791,-1.05392 -2.158791,-2.354" />
  <path
     style="stroke:#000000;stroke-width:2;stroke-linecap:butt;stroke-linejoin:round"
     inkscape:connector-curvature="0"
     id="path4790"
     d="m 36.400837,345.8818 c 0,-1.30008 0.966526,-2.354 2.158794,-2.354 1.192269,0 2.158791,1.05392 2.158791,2.354 0,1.30008 -0.966522,2.354 -2.158791,2.354 -1.192268,0 -2.158794,-1.05392 -2.158794,-2.354 m 13.278976,0 c 0,-1.30008 0.966522,-2.354 2.158791,-2.354 1.192268,0 2.158794,1.05392 2.158794,2.354 0,1.30008 -0.966526,2.354 -2.158794,2.354 -1.192269,0 -2.158791,-1.05392 -2.158791,-2.354" />
  <path
     style="fill:#000000;fill-opacity:0;fill-rule:nonzero"
     inkscape:connector-curvature="0"
     id="path4792"
     d="m 33.96635,362.49576 q 11.232765,8.41202 22.4393,0" />
  <path
     style="stroke:#000000;stroke-width:2;stroke-linecap:butt;stroke-linejoin:round"
     inkscape:connector-curvature="0"
     id="path4794"
     d="m 33.96635,362.49576 q 11.232765,8.41202 22.4393,0" />
  <path
     style="fill:#000000;fill-opacity:0;fill-rule:nonzero"
     inkscape:connector-curvature="0"
     id="path4796"
     d="m 24.474709,352.6404 0,0 c 0,-12.48074 9.278633,-22.59842 20.724407,-22.59842 11.445778,0 20.724415,10.11768 20.724415,22.59842 0,12.48077 -9.278637,22.59842 -20.724415,22.59842 -11.445774,0 -20.724407,-10.11765 -20.724407,-22.59842 z" />
  <path
     style="stroke:#000000;stroke-width:2;stroke-linecap:butt;stroke-linejoin:round"
     inkscape:connector-curvature="0"
     id="path4798"
     d="m 24.474709,352.6404 0,0 c 0,-12.48074 9.278633,-22.59842 20.724407,-22.59842 11.445778,0 20.724415,10.11768 20.724415,22.59842 0,12.48077 -9.278637,22.59842 -20.724415,22.59842 -11.445774,0 -20.724407,-10.11765 -20.724407,-22.59842 z" />
</svg>
