<?xml version="1.0" encoding="UTF-8" standalone="no"?>
<svg
   xmlns:dc="http://purl.org/dc/elements/1.1/"
   xmlns:cc="http://creativecommons.org/ns#"
   xmlns:rdf="http://www.w3.org/1999/02/22-rdf-syntax-ns#"
   xmlns:svg="http://www.w3.org/2000/svg"
   xmlns="http://www.w3.org/2000/svg"
   xmlns:sodipodi="http://sodipodi.sourceforge.net/DTD/sodipodi-0.dtd"
   xmlns:inkscape="http://www.inkscape.org/namespaces/inkscape"
   version="1.1"
   viewBox="0.0 0.0 800.0 450.0"
   fill="none"
   stroke="none"
   stroke-linecap="square"
   stroke-miterlimit="10"
   id="svg4322"
   inkscape:version="0.48.2 r9819"
   width="100%"
   height="100%"
   sodipodi:docname="smtpd_scheduling.svg">
  <metadata
     id="metadata4417">
    <rdf:RDF>
      <cc:Work
         rdf:about="">
        <dc:format>image/svg+xml</dc:format>
        <dc:type
           rdf:resource="http://purl.org/dc/dcmitype/StillImage" />
        <dc:title></dc:title>
      </cc:Work>
    </rdf:RDF>
  </metadata>
  <defs
     id="defs4415" />
  <sodipodi:namedview
     pagecolor="#ffffff"
     bordercolor="#666666"
     borderopacity="1"
     objecttolerance="10"
     gridtolerance="10"
     guidetolerance="10"
     inkscape:pageopacity="0"
     inkscape:pageshadow="2"
     inkscape:window-width="919"
     inkscape:window-height="569"
     id="namedview4413"
     showgrid="false"
     inkscape:zoom="1.0610557"
     inkscape:cx="400"
     inkscape:cy="328.5417"
     inkscape:window-x="596"
     inkscape:window-y="237"
     inkscape:window-maximized="0"
     inkscape:current-layer="svg4322" />
  <clipPath
     id="p.0">
    <path
       d="m0 0l800.0 0l0 450.0l-800.0 0l0 -450.0z"
       clip-rule="nonzero"
       id="path4325" />
  </clipPath>
  <path
     style="fill:#000000;fill-opacity:0;fill-rule:nonzero"
     inkscape:connector-curvature="0"
     id="path4329"
     d="m 0,0 800.1627,0 0,450.02362 -800.1627,0 z" />
  <path
     style="fill:#cfe2f3;fill-rule:nonzero"
     inkscape:connector-curvature="0"
     id="path4331"
     d="m 84.20473,111.0147 0,0 c 0,-7.30596 5.922646,-13.228615 13.228607,-13.228615 l 134.361683,0 c 3.50844,0 6.8732,1.39373 9.35403,3.874575 2.48085,2.48084 3.87457,5.84559 3.87457,9.35404 l 0,52.91285 c 0,7.30597 -5.92265,13.22862 -13.2286,13.22862 l -134.361683,0 c -7.305962,0 -13.228607,-5.92265 -13.228607,-13.22862 z" />
  <path
     style="stroke:#000000;stroke-width:2;stroke-linecap:butt;stroke-linejoin:round"
     inkscape:connector-curvature="0"
     id="path4333"
     d="m 84.20473,111.0147 0,0 c 0,-7.30596 5.922646,-13.228615 13.228607,-13.228615 l 134.361683,0 c 3.50844,0 6.8732,1.39373 9.35403,3.874575 2.48085,2.48084 3.87457,5.84559 3.87457,9.35404 l 0,52.91285 c 0,7.30597 -5.92265,13.22862 -13.2286,13.22862 l -134.361683,0 c -7.305962,0 -13.228607,-5.92265 -13.228607,-13.22862 z" />
  <path
     style="fill:#000000;fill-rule:nonzero"
     inkscape:connector-curvature="0"
     id="path4335"
     d="m 107.93797,139.2602 1.6875,-0.14063 q 0.125,1.01563 0.5625,1.67188 0.4375,0.65625 1.35937,1.0625 0.9375,0.40625 2.09375,0.40625 1.03125,0 1.8125,-0.3125 0.79688,-0.3125 1.1875,-0.84375 0.39063,-0.53125 0.39063,-1.15625 0,-0.64063 -0.375,-1.10938 -0.375,-0.48437 -1.23438,-0.8125 -0.54687,-0.21875 -2.42187,-0.65625 -1.875,-0.45312 -2.625,-0.85937 -0.96875,-0.51563 -1.45313,-1.26563 -0.46875,-0.75 -0.46875,-1.6875 0,-1.03125 0.57813,-1.92187 0.59375,-0.90625 1.70312,-1.35938 1.125,-0.46875 2.5,-0.46875 1.51563,0 2.67188,0.48438 1.15625,0.48437 1.76562,1.4375 0.625,0.9375 0.67188,2.14062 l -1.71875,0.125 q -0.14063,-1.28125 -0.95313,-1.9375 -0.79687,-0.67187 -2.35937,-0.67187 -1.625,0 -2.375,0.60937 -0.75,0.59375 -0.75,1.4375 0,0.73438 0.53125,1.20313 0.51562,0.46875 2.70312,0.96875 2.20313,0.5 3.01563,0.875 1.1875,0.54687 1.75,1.39062 0.57812,0.82813 0.57812,1.92188 0,1.09375 -0.625,2.0625 -0.625,0.95312 -1.79687,1.48437 -1.15625,0.53125 -2.60938,0.53125 -1.84375,0 -3.09375,-0.53125 -1.25,-0.54687 -1.96875,-1.625 -0.70312,-1.07812 -0.73437,-2.45312 z m 22.75606,-0.39063 1.79687,0.45313 q -0.5625,2.21875 -2.03125,3.39062 -1.46875,1.15625 -3.59374,1.15625 -2.20312,0 -3.57812,-0.89062 -1.375,-0.90625 -2.09375,-2.59375 -0.71875,-1.70313 -0.71875,-3.65625 0,-2.125 0.79687,-3.70313 0.8125,-1.57812 2.3125,-2.39062 1.5,-0.82813 3.29688,-0.82813 2.04686,0 3.43749,1.04688 1.39062,1.03125 1.9375,2.90625 l -1.76563,0.42187 q -0.46875,-1.48437 -1.375,-2.15625 -0.90625,-0.6875 -2.26561,-0.6875 -1.5625,0 -2.625,0.75 -1.04688,0.75 -1.48438,2.03125 -0.42187,1.26563 -0.42187,2.60938 0,1.73437 0.5,3.03125 0.51562,1.28125 1.57812,1.92187 1.07813,0.64063 2.3125,0.64063 1.51562,0 2.56249,-0.85938 1.04688,-0.875 1.42188,-2.59375 z m 3.8167,4.76563 0,-13.59375 1.8125,0 0,5.57812 7.0625,0 0,-5.57812 1.79687,0 0,13.59375 -1.79687,0 0,-6.40625 -7.0625,0 0,6.40625 -1.8125,0 z m 13.45732,0 0,-13.59375 9.84375,0 0,1.59375 -8.04688,0 0,4.17187 7.53125,0 0,1.59375 -7.53125,0 0,4.625 8.35938,0 0,1.60938 -10.15625,0 z m 12.41232,0 0,-13.59375 4.6875,0 q 1.57813,0 2.42188,0.1875 1.15625,0.26562 1.98437,0.96875 1.07813,0.92187 1.60938,2.34375 0.53125,1.40625 0.53125,3.21875 0,1.54687 -0.35938,2.75 -0.35937,1.1875 -0.92187,1.98437 -0.5625,0.78125 -1.23438,1.23438 -0.67187,0.4375 -1.625,0.67187 -0.95312,0.23438 -2.1875,0.23438 l -4.90625,0 z m 1.79688,-1.60938 2.90625,0 q 1.34375,0 2.10937,-0.25 0.76563,-0.25 1.21875,-0.70312 0.64063,-0.64063 1,-1.71875 0.35938,-1.07813 0.35938,-2.625 0,-2.125 -0.70313,-3.26563 -0.70312,-1.15625 -1.70312,-1.54687 -0.71875,-0.28125 -2.32813,-0.28125 l -2.85937,0 0,10.39062 z m 20.59794,-11.98437 1.79688,0 0,7.84375 q 0,2.0625 -0.46875,3.26562 -0.45313,1.20313 -1.67188,1.96875 -1.20312,0.75 -3.17187,0.75 -1.90625,0 -3.125,-0.65625 -1.21875,-0.65625 -1.73438,-1.90625 -0.51562,-1.25 -0.51562,-3.42187 l 0,-7.84375 1.79687,0 0,7.84375 q 0,1.76562 0.32813,2.60937 0.32812,0.84375 1.125,1.29688 0.8125,0.45312 1.96875,0.45312 1.98437,0 2.82812,-0.89062 0.84375,-0.90625 0.84375,-3.46875 l 0,-7.84375 z m 4.47295,13.59375 0,-13.59375 1.79687,0 0,11.98437 6.70313,0 0,1.60938 -8.5,0 z m 10.48509,0 0,-13.59375 9.84375,0 0,1.59375 -8.04688,0 0,4.17187 7.53125,0 0,1.59375 -7.53125,0 0,4.625 8.35938,0 0,1.60938 -10.15625,0 z m 12.44357,0 0,-13.59375 6.03127,0 q 1.8125,0 2.75,0.35937 0.95312,0.35938 1.51562,1.29688 0.5625,0.92187 0.5625,2.04687 0,1.45313 -0.9375,2.45313 -0.92187,0.98437 -2.89062,1.25 0.71875,0.34375 1.09375,0.67187 0.78125,0.73438 1.48437,1.8125 l 2.375,3.70313 -2.26562,0 -1.79688,-2.82813 q -0.79687,-1.21875 -1.3125,-1.875 -0.5,-0.65625 -0.90626,-0.90625 -0.40625,-0.26562 -0.8125,-0.35937 -0.3125,-0.0781 -1.01563,-0.0781 l -2.07812,0 0,6.04688 -1.79688,0 z m 1.79688,-7.59375 3.85937,0 q 1.23439,0 1.92189,-0.25 0.70313,-0.26563 1.0625,-0.82813 0.375,-0.5625 0.375,-1.21875 0,-0.96875 -0.70312,-1.57812 -0.70313,-0.625 -2.21875,-0.625 l -4.29689,0 0,4.5 z" />
  <path
     style="fill:#cfe2f3;fill-rule:nonzero"
     inkscape:connector-curvature="0"
     id="path4337"
     d="m 328.1076,111.0147 0,0 c 0,-7.30596 5.92267,-13.228615 13.22861,-13.228615 l 134.3617,0 c 3.50842,0 6.8732,1.39373 9.35403,3.874575 2.48084,2.48084 3.87457,5.84559 3.87457,9.35404 l 0,52.91285 c 0,7.30597 -5.92266,13.22862 -13.2286,13.22862 l -134.3617,0 c -7.30594,0 -13.22861,-5.92265 -13.22861,-13.22862 z" />
  <path
     style="stroke:#000000;stroke-width:2;stroke-linecap:butt;stroke-linejoin:round"
     inkscape:connector-curvature="0"
     id="path4339"
     d="m 328.1076,111.0147 0,0 c 0,-7.30596 5.92267,-13.228615 13.22861,-13.228615 l 134.3617,0 c 3.50842,0 6.8732,1.39373 9.35403,3.874575 2.48084,2.48084 3.87457,5.84559 3.87457,9.35404 l 0,52.91285 c 0,7.30597 -5.92266,13.22862 -13.2286,13.22862 l -134.3617,0 c -7.30594,0 -13.22861,-5.92265 -13.22861,-13.22862 z" />
  <path
     style="fill:#000000;fill-rule:nonzero"
     inkscape:connector-curvature="0"
     id="path4341"
     d="m 387.11044,142.18207 q 1.26562,0.85937 2.3125,1.26562 l -0.53125,1.25 q -1.45313,-0.53125 -2.92188,-1.67187 -1.5,0.84375 -3.32812,0.84375 -1.84375,0 -3.35938,-0.89063 -1.5,-0.89062 -2.3125,-2.5 -0.8125,-1.625 -0.8125,-3.64062 0,-2.01563 0.8125,-3.65625 0.82813,-1.65625 2.32813,-2.51563 1.51562,-0.875 3.375,-0.875 1.89062,0 3.39062,0.90625 1.51563,0.89063 2.3125,2.5 0.79688,1.60938 0.79688,3.625 0,1.6875 -0.51563,3.03125 -0.51562,1.32813 -1.54687,2.32813 z m -3.95313,-2.29688 q 1.5625,0.42188 2.5625,1.29688 1.59375,-1.45313 1.59375,-4.35938 0,-1.65625 -0.5625,-2.875 -0.5625,-1.23437 -1.64062,-1.92187 -1.07813,-0.6875 -2.42188,-0.6875 -2.01562,0 -3.34375,1.39062 -1.32812,1.375 -1.32812,4.10938 0,2.65625 1.3125,4.07812 1.3125,1.40625 3.35937,1.40625 0.95313,0 1.8125,-0.35937 -0.84375,-0.54688 -1.78125,-0.78125 l 0.4375,-1.29688 z m 17.08957,-9.84375 1.79688,0 0,7.84375 q 0,2.0625 -0.46875,3.26563 -0.45313,1.20312 -1.67188,1.96875 -1.20312,0.75 -3.17187,0.75 -1.90625,0 -3.125,-0.65625 -1.21875,-0.65625 -1.73438,-1.90625 -0.51562,-1.25 -0.51562,-3.42188 l 0,-7.84375 1.79687,0 0,7.84375 q 0,1.76563 0.32813,2.60938 0.32812,0.84375 1.125,1.29687 0.8125,0.45313 1.96875,0.45313 1.98437,0 2.82812,-0.89063 0.84375,-0.90625 0.84375,-3.46875 l 0,-7.84375 z m 4.58231,13.59375 0,-13.59375 9.84375,0 0,1.59375 -8.04687,0 0,4.17188 7.53125,0 0,1.59375 -7.53125,0 0,4.625 8.35937,0 0,1.60937 -10.15625,0 z m 21.3342,-13.59375 1.79687,0 0,7.84375 q 0,2.0625 -0.46875,3.26563 -0.45312,1.20312 -1.67187,1.96875 -1.20313,0.75 -3.17188,0.75 -1.90625,0 -3.125,-0.65625 -1.21875,-0.65625 -1.73437,-1.90625 -0.51563,-1.25 -0.51563,-3.42188 l 0,-7.84375 1.79688,0 0,7.84375 q 0,1.76563 0.32812,2.60938 0.32813,0.84375 1.125,1.29687 0.8125,0.45313 1.96875,0.45313 1.98438,0 2.82813,-0.89063 0.84375,-0.90625 0.84375,-3.46875 l 0,-7.84375 z m 4.58234,13.59375 0,-13.59375 9.84375,0 0,1.59375 -8.04688,0 0,4.17188 7.53125,0 0,1.59375 -7.53125,0 0,4.625 8.35938,0 0,1.60937 -10.15625,0 z" />
  <path
     style="fill:#cfe2f3;fill-rule:nonzero"
     inkscape:connector-curvature="0"
     id="path4343"
     d="m 563.5958,31.64462 0,0 c 0,-7.30596 5.92261,-13.228611 13.22858,-13.228611 l 134.3617,0 c 3.50842,0 6.87317,1.393724 9.354,3.874571 2.4809,2.480846 3.87457,5.845594 3.87457,9.35404 l 0,52.912857 c 0,7.305961 -5.9226,13.228607 -13.22857,13.228607 l -134.3617,0 c -7.30597,0 -13.22858,-5.922646 -13.22858,-13.228607 z" />
  <path
     style="stroke:#000000;stroke-width:2;stroke-linecap:butt;stroke-linejoin:round"
     inkscape:connector-curvature="0"
     id="path4345"
     d="m 563.5958,31.64462 0,0 c 0,-7.30596 5.92261,-13.228611 13.22858,-13.228611 l 134.3617,0 c 3.50842,0 6.87317,1.393724 9.354,3.874571 2.4809,2.480846 3.87457,5.845594 3.87457,9.35404 l 0,52.912857 c 0,7.305961 -5.9226,13.228607 -13.22857,13.228607 l -134.3617,0 c -7.30597,0 -13.22858,-5.922646 -13.22858,-13.228607 z" />
  <path
     style="fill:#000000;fill-rule:nonzero"
     inkscape:connector-curvature="0"
     id="path4347"
     d="m 598.6564,64.26511 0,-11.999996 -4.46875,0 0,-1.59375 10.76562,0 0,1.59375 -4.5,0 0,11.999996 -1.79687,0 z m 7.97412,0 0,-13.593746 6.03125,0 q 1.8125,0 2.75,0.359375 0.95313,0.359375 1.51563,1.296875 0.5625,0.921875 0.5625,2.046875 0,1.453125 -0.9375,2.453125 -0.92188,0.984375 -2.89063,1.25 0.71875,0.34375 1.09375,0.671875 0.78125,0.734375 1.48438,1.8125 l 2.375,3.703121 -2.26563,0 -1.79687,-2.828121 q -0.79688,-1.21875 -1.3125,-1.875 -0.5,-0.65625 -0.90625,-0.90625 -0.40625,-0.265625 -0.8125,-0.359375 -0.3125,-0.07813 -1.01563,-0.07813 l -2.07812,0 0,6.046871 -1.79688,0 z m 1.79688,-7.593746 3.85937,0 q 1.23438,0 1.92188,-0.25 0.70312,-0.265625 1.0625,-0.828125 0.375,-0.5625 0.375,-1.21875 0,-0.96875 -0.70313,-1.578125 -0.70312,-0.625 -2.21875,-0.625 l -4.29687,0 0,4.5 z m 10.14477,7.593746 5.23438,-13.593746 1.9375,0 5.5625,13.593746 -2.04688,0 -1.59375,-4.124996 -5.6875,0 -1.48437,4.124996 -1.92188,0 z m 3.92188,-5.578121 4.60937,0 -1.40625,-3.78125 q -0.65625,-1.703125 -0.96875,-2.8125 -0.26562,1.3125 -0.73437,2.59375 l -1.5,4 z m 10.0061,5.578121 0,-13.593746 1.84375,0 7.14062,10.671875 0,-10.671875 1.71875,0 0,13.593746 -1.84375,0 -7.14062,-10.687496 0,10.687496 -1.71875,0 z m 12.87921,-4.374996 1.6875,-0.140625 q 0.125,1.015625 0.5625,1.671875 0.4375,0.65625 1.35938,1.0625 0.9375,0.40625 2.09375,0.40625 1.03125,0 1.8125,-0.3125 0.79687,-0.3125 1.1875,-0.84375 0.39062,-0.53125 0.39062,-1.15625 0,-0.640625 -0.375,-1.109375 -0.375,-0.484375 -1.23437,-0.8125 -0.54688,-0.21875 -2.42188,-0.65625 -1.875,-0.453125 -2.625,-0.859375 -0.96875,-0.515625 -1.45312,-1.265625 -0.46875,-0.75 -0.46875,-1.6875 0,-1.03125 0.57812,-1.921875 0.59375,-0.90625 1.70313,-1.359375 1.125,-0.46875 2.5,-0.46875 1.51562,0 2.67187,0.484375 1.15625,0.484375 1.76563,1.4375 0.625,0.9375 0.67187,2.140625 l -1.71875,0.125 q -0.14062,-1.28125 -0.95312,-1.9375 -0.79688,-0.671875 -2.35938,-0.671875 -1.625,0 -2.375,0.609375 -0.75,0.59375 -0.75,1.4375 0,0.734375 0.53125,1.203125 0.51563,0.46875 2.70313,0.96875 2.20312,0.5 3.01562,0.875 1.1875,0.546875 1.75,1.390625 0.57813,0.828125 0.57813,1.921875 0,1.09375 -0.625,2.0625 -0.625,0.953125 -1.79688,1.484375 -1.15625,0.531246 -2.60937,0.531246 -1.84375,0 -3.09375,-0.531246 -1.25,-0.546875 -1.96875,-1.625 -0.70313,-1.078125 -0.73438,-2.453125 z m 13.14667,4.374996 0,-13.593746 9.17187,0 0,1.59375 -7.375,0 0,4.21875 6.375,0 0,1.609375 -6.375,0 0,6.171871 -1.79687,0 z m 11.33349,0 0,-13.593746 9.84375,0 0,1.59375 -8.04687,0 0,4.171875 7.53125,0 0,1.59375 -7.53125,0 0,4.625 8.35937,0 0,1.609371 -10.15625,0 z m 12.44355,0 0,-13.593746 6.03125,0 q 1.8125,0 2.75,0.359375 0.95312,0.359375 1.51562,1.296875 0.5625,0.921875 0.5625,2.046875 0,1.453125 -0.9375,2.453125 -0.92187,0.984375 -2.89062,1.25 0.71875,0.34375 1.09375,0.671875 0.78125,0.734375 1.48437,1.8125 l 2.375,3.703121 -2.26562,0 -1.79688,-2.828121 q -0.79687,-1.21875 -1.3125,-1.875 -0.5,-0.65625 -0.90625,-0.90625 -0.40625,-0.265625 -0.8125,-0.359375 -0.3125,-0.07813 -1.01562,-0.07813 l -2.07813,0 0,6.046871 -1.79687,0 z m 1.79687,-7.593746 3.85938,0 q 1.23437,0 1.92187,-0.25 0.70313,-0.265625 1.0625,-0.828125 0.375,-0.5625 0.375,-1.21875 0,-0.96875 -0.70312,-1.578125 -0.70313,-0.625 -2.21875,-0.625 l -4.29688,0 0,4.5 z" />
  <path
     style="fill:#cfe2f3;fill-rule:nonzero"
     inkscape:connector-curvature="0"
     id="path4349"
     d="m 563.5958,190.38478 0,0 c 0,-7.30597 5.92261,-13.22861 13.22858,-13.22861 l 134.3617,0 c 3.50842,0 6.87317,1.39373 9.354,3.87456 2.4809,2.48085 3.87457,5.8456 3.87457,9.35405 l 0,52.91286 c 0,7.30595 -5.9226,13.2286 -13.22857,13.2286 l -134.3617,0 c -7.30597,0 -13.22858,-5.92265 -13.22858,-13.2286 z" />
  <path
     style="stroke:#000000;stroke-width:2;stroke-linecap:butt;stroke-linejoin:round"
     inkscape:connector-curvature="0"
     id="path4351"
     d="m 563.5958,190.38478 0,0 c 0,-7.30597 5.92261,-13.22861 13.22858,-13.22861 l 134.3617,0 c 3.50842,0 6.87317,1.39373 9.354,3.87456 2.4809,2.48085 3.87457,5.8456 3.87457,9.35405 l 0,52.91286 c 0,7.30595 -5.9226,13.2286 -13.22857,13.2286 l -134.3617,0 c -7.30597,0 -13.22858,-5.92265 -13.22858,-13.2286 z" />
  <path
     style="fill:#000000;fill-rule:nonzero"
     inkscape:connector-curvature="0"
     id="path4353"
     d="m 599.3344,223.00526 0,-13.59375 4.6875,0 q 1.57812,0 2.42187,0.1875 1.15625,0.26562 1.98438,0.96875 1.07812,0.92187 1.60937,2.34375 0.53125,1.40625 0.53125,3.21875 0,1.54687 -0.35937,2.75 -0.35938,1.1875 -0.92188,1.98437 -0.5625,0.78125 -1.23437,1.23438 -0.67188,0.4375 -1.625,0.67187 -0.95313,0.23438 -2.1875,0.23438 l -4.90625,0 z m 1.79687,-1.60938 2.90625,0 q 1.34375,0 2.10938,-0.25 0.76562,-0.25 1.21875,-0.70312 0.64062,-0.64063 1,-1.71875 0.35937,-1.07813 0.35937,-2.625 0,-2.125 -0.70312,-3.26563 -0.70313,-1.15625 -1.70313,-1.54687 -0.71875,-0.28125 -2.32812,-0.28125 l -2.85938,0 0,10.39062 z m 11.70728,1.60938 0,-13.59375 9.84375,0 0,1.59375 -8.04688,0 0,4.17187 7.53125,0 0,1.59375 -7.53125,0 0,4.625 8.35938,0 0,1.60938 -10.15625,0 z m 12.33423,0 0,-13.59375 1.79687,0 0,11.98437 6.70313,0 0,1.60938 -8.5,0 z m 10.75073,0 0,-13.59375 1.8125,0 0,13.59375 -1.8125,0 z m 8.77704,0 -5.28125,-13.59375 1.95312,0 3.53125,9.875 q 0.4375,1.1875 0.71875,2.21875 0.3125,-1.10938 0.73438,-2.21875 l 3.67187,-9.875 1.84375,0 -5.32812,13.59375 -1.84375,0 z m 8.58417,0 0,-13.59375 9.84375,0 0,1.59375 -8.04688,0 0,4.17187 7.53125,0 0,1.59375 -7.53125,0 0,4.625 8.35938,0 0,1.60938 -10.15625,0 z m 12.4436,0 0,-13.59375 6.03125,0 q 1.8125,0 2.75,0.35937 0.95313,0.35938 1.51563,1.29688 0.5625,0.92187 0.5625,2.04687 0,1.45313 -0.9375,2.45313 -0.92188,0.98437 -2.89063,1.25 0.71875,0.34375 1.09375,0.67187 0.78125,0.73438 1.48438,1.8125 l 2.375,3.70313 -2.26563,0 -1.79687,-2.82813 q -0.79688,-1.21875 -1.3125,-1.875 -0.5,-0.65625 -0.90625,-0.90625 -0.40625,-0.26562 -0.8125,-0.35937 -0.3125,-0.0781 -1.01563,-0.0781 l -2.07812,0 0,6.04688 -1.79688,0 z m 1.79688,-7.59375 3.85937,0 q 1.23438,0 1.92188,-0.25 0.70312,-0.26563 1.0625,-0.82813 0.375,-0.5625 0.375,-1.21875 0,-0.96875 -0.70313,-1.57812 -0.70312,-0.625 -2.21875,-0.625 l -4.29687,0 0,4.5 z m 15.47296,7.59375 0,-5.76563 -5.23438,-7.82812 2.1875,0 2.67188,4.09375 q 0.75,1.15625 1.39062,2.29687 0.60938,-1.0625 1.48438,-2.40625 l 2.625,-3.98437 2.10937,0 -5.4375,7.82812 0,5.76563 -1.79687,0 z" />
  <path
     style="fill:#000000;fill-opacity:0;fill-rule:nonzero"
     inkscape:connector-curvature="0"
     id="path4373"
     d="m 231.61679,75.42257 106.89764,0 0,48 -106.89764,0 z" />
  <g
     id="phase1"
     inkscape:label="#g4465">
    <path
       d="m 256.76117,118.5538 57.98422,0"
       id="path4355"
       inkscape:connector-curvature="0"
       style="fill:#000000;fill-opacity:0;fill-rule:nonzero" />
    <path
       d="m 256.76117,118.5538 45.98422,0"
       id="path4357"
       inkscape:connector-curvature="0"
       style="stroke:#000000;stroke-width:2;stroke-linecap:butt;stroke-linejoin:round" />
    <path
       d="m 302.74542,121.85727 9.07617,-3.30347 -9.07617,-3.30346 z"
       id="path4359"
       inkscape:connector-curvature="0"
       style="fill:#000000;fill-rule:evenodd;stroke:#000000;stroke-width:2;stroke-linecap:butt" />
    <path
       d="m 270.64056,102.24288 1.625,0.15625 q -0.35938,1.21875 -1.625,2.3125 -1.26563,1.09375 -3.01563,1.09375 -1.09375,0 -2.01562,-0.5 -0.90625,-0.5 -1.39063,-1.46875 -0.46875,-0.96875 -0.46875,-2.20312 0,-1.60938 0.75,-3.125005 0.75,-1.515625 1.9375,-2.25 1.1875,-0.75 2.5625,-0.75 1.76563,0 2.8125,1.09375 1.0625,1.09375 1.0625,2.984375 0,0.73438 -0.14062,1.48438 l -7.25,0 q -0.0312,0.29687 -0.0312,0.53125 0,1.375 0.625,2.10937 0.64062,0.71875 1.5625,0.71875 0.85937,0 1.6875,-0.5625 0.84375,-0.5625 1.3125,-1.625 z m -4.89063,-2.453125 5.53125,0 q 0.0156,-0.25 0.0156,-0.359375 0,-1.265625 -0.64063,-1.9375 -0.625,-0.671875 -1.625,-0.671875 -1.0625,0 -1.95312,0.75 -0.89063,0.734375 -1.32813,2.21875 z m 10.51636,5.796875 -1.625,-9.859375 1.64063,0 0.84375,5.437505 q 0.14062,0.89062 0.34375,2.90625 0.48437,-1.04688 1.23437,-2.40625 l 3.28125,-5.937505 1.78125,0 -5.64062,9.859375 -1.85938,0 z m 6.01563,3.78125 2.84375,-13.640625 1.54687,0 -0.28125,1.375 q 0.85938,-0.890625 1.53125,-1.234375 0.6875,-0.359375 1.45313,-0.359375 1.40625,0 2.32812,1.03125 0.9375,1.015625 0.9375,2.9375 0,1.531255 -0.51562,2.796875 -0.51563,1.26563 -1.26563,2.04688 -0.73437,0.76562 -1.5,1.125 -0.75,0.35937 -1.54687,0.35937 -1.76563,0 -2.75,-1.79687 l -1.10938,5.35937 -1.67187,0 z m 3.3125,-7.8125 q 0,1.10938 0.15625,1.53125 0.23437,0.60938 0.76562,0.98438 0.53125,0.35937 1.21875,0.35937 1.45313,0 2.34375,-1.625 0.89063,-1.625 0.89063,-3.328125 0,-1.25 -0.60938,-1.921875 -0.59375,-0.6875 -1.48437,-0.6875 -0.64063,0 -1.1875,0.34375 -0.54688,0.328125 -1.01563,1 -0.46875,0.671875 -0.78125,1.65625 -0.29687,0.96875 -0.29687,1.6875 z m 10.26632,-7.671875 0.40625,-1.890625 1.65625,0 -0.39062,1.890625 -1.67188,0 z m -2.45312,11.703125 2.0625,-9.859375 1.6875,0 -2.0625,9.859375 -1.6875,0 z m 10.86358,-1.42187 q -1.45312,1.64062 -3.01562,1.64062 -1.40625,0 -2.34375,-1.03125 -0.92188,-1.03125 -0.92188,-3 0,-1.796875 0.73438,-3.28125 0.75,-1.5 1.84375,-2.234375 1.10937,-0.75 2.23437,-0.75 1.82813,0 2.76563,1.78125 l 1.10937,-5.296875 1.67188,0 -2.82813,13.59375 -1.54687,0 0.29687,-1.42187 z m -4.60937,-2.70313 q 0,1.03125 0.20312,1.625 0.20313,0.59375 0.6875,0.98438 0.5,0.39062 1.1875,0.39062 1.14063,0 2.0625,-1.1875 1.25,-1.57812 1.25,-3.890625 0,-1.171875 -0.60937,-1.828125 -0.60938,-0.65625 -1.54688,-0.65625 -0.59375,0 -1.09375,0.265625 -0.5,0.265625 -0.98437,0.921875 -0.48438,0.640625 -0.82813,1.640625 -0.32812,0.984375 -0.32812,1.734375 z"
       id="path4375"
       inkscape:connector-curvature="0"
       style="fill:#000000;fill-rule:nonzero" />
  </g>
  <path
     style="fill:#000000;fill-opacity:0;fill-rule:nonzero"
     inkscape:connector-curvature="0"
     id="path4377"
     d="m 435.04987,57.422573 144,0 0,47.999997 -144,0 z" />
  <path
     style="fill:#000000;fill-opacity:0;fill-rule:nonzero"
     inkscape:connector-curvature="0"
     id="path4381"
     d="m 481.6614,110.49344 144.00003,0 0,48 -144.00003,0 z" />
  <g
     id="phase3"
     inkscape:label="#g4480">
    <path
       d="m 557.98425,105.42257 -59.77954,34.4882"
       id="path4361"
       inkscape:connector-curvature="0"
       style="fill:#000000;fill-opacity:0;fill-rule:nonzero" />
    <path
       d="m 557.98425,105.42257 -49.38528,28.49152"
       id="path4363"
       inkscape:connector-curvature="0"
       style="stroke:#000000;stroke-width:2;stroke-linecap:butt;stroke-linejoin:round" />
    <path
       d="m 506.94815,131.05267 -6.21088,7.397 9.51249,-1.67416 z"
       id="path4365"
       inkscape:connector-curvature="0"
       style="fill:#000000;fill-rule:evenodd;stroke:#000000;stroke-width:2;stroke-linecap:butt" />
    <path
       d="m 529.55554,137.2825 1.6875,-0.0937 q 0,0.71875 0.21875,1.23437 0.21875,0.51563 0.8125,0.84375 0.60937,0.3125 1.40625,0.3125 1.10937,0 1.67187,-0.4375 0.5625,-0.45312 0.5625,-1.04687 0,-0.4375 -0.34375,-0.82813 -0.34375,-0.39062 -1.67187,-0.95312 -1.32813,-0.57813 -1.70313,-0.8125 -0.625,-0.375 -0.9375,-0.89063 -0.3125,-0.51562 -0.3125,-1.1875 0,-1.17187 0.92188,-2 0.9375,-0.84375 2.60937,-0.84375 1.84375,0 2.8125,0.85938 0.96875,0.85937 1.01563,2.26562 l -1.64063,0.10938 q -0.0469,-0.89063 -0.64062,-1.40625 -0.59375,-0.53125 -1.67188,-0.53125 -0.875,0 -1.35937,0.40625 -0.48438,0.39062 -0.48438,0.85937 0,0.46875 0.42188,0.8125 0.28125,0.25 1.4375,0.75 1.9375,0.82813 2.4375,1.3125 0.79687,0.76563 0.79687,1.875 0,0.73438 -0.45312,1.4375 -0.45313,0.70313 -1.375,1.125 -0.92188,0.42188 -2.17188,0.42188 -1.70312,0 -2.90625,-0.84375 -1.20312,-0.84375 -1.14062,-2.75 z m 13.10937,2.01562 -0.28125,1.375 q -0.60937,0.15625 -1.17187,0.15625 -1,0 -1.59375,-0.5 -0.45313,-0.375 -0.45313,-1.01562 0,-0.3125 0.25,-1.48438 l 1.1875,-5.71875 -1.32812,0 0.28125,-1.3125 1.32812,0 0.5,-2.42187 1.92188,-1.15625 -0.75,3.57812 1.65625,0 -0.28125,1.3125 -1.64063,0 -1.14062,5.4375 q -0.21875,1.04688 -0.21875,1.25 0,0.29688 0.17187,0.45313 0.17188,0.15625 0.5625,0.15625 0.5625,0 1,-0.10938 z m 7.90204,0.14063 q -0.875,0.75 -1.6875,1.09375 -0.8125,0.34375 -1.71875,0.34375 -1.375,0 -2.21875,-0.79688 -0.82812,-0.79687 -0.82812,-2.0625 0,-0.8125 0.375,-1.45312 0.39062,-0.64063 1,-1.01563 0.625,-0.39062 1.53125,-0.5625 0.5625,-0.10937 2.14062,-0.17187 1.57813,-0.0625 2.26563,-0.32813 0.20312,-0.6875 0.20312,-1.14062 0,-0.59375 -0.4375,-0.92188 -0.57812,-0.46875 -1.70312,-0.46875 -1.04688,0 -1.73438,0.46875 -0.67187,0.46875 -0.96875,1.32813 l -1.70312,-0.14063 q 0.51562,-1.46875 1.64062,-2.25 1.14063,-0.78125 2.85938,-0.78125 1.82812,0 2.89062,0.875 0.8125,0.65625 0.8125,1.6875 0,0.79688 -0.23437,1.82813 l -0.54688,2.45312 q -0.25,1.17188 -0.25,1.89063 0,0.46875 0.20313,1.34375 l -1.70313,0 q -0.14062,-0.48438 -0.1875,-1.21875 z m 0.60938,-3.76563 q -0.34375,0.125 -0.75,0.20313 -0.40625,0.0781 -1.34375,0.15625 -1.46875,0.14062 -2.07813,0.34375 -0.59375,0.1875 -0.90625,0.625 -0.3125,0.4375 -0.3125,0.96875 0,0.70312 0.48438,1.15625 0.5,0.45312 1.39062,0.45312 0.84375,0 1.60938,-0.4375 0.76562,-0.4375 1.20312,-1.21875 0.45313,-0.79687 0.70313,-2.25 z m 7.04761,3.625 -0.28125,1.375 q -0.60938,0.15625 -1.17188,0.15625 -1,0 -1.59375,-0.5 -0.45312,-0.375 -0.45312,-1.01562 0,-0.3125 0.25,-1.48438 l 1.1875,-5.71875 -1.32813,0 0.28125,-1.3125 1.32813,0 0.5,-2.42187 1.92187,-1.15625 -0.75,3.57812 1.65625,0 -0.28125,1.3125 -1.64062,0 -1.14063,5.4375 q -0.21875,1.04688 -0.21875,1.25 0,0.29688 0.17188,0.45313 0.17187,0.15625 0.5625,0.15625 0.5625,0 1,-0.10938 z m 7.98016,-0.42187 q -1.78125,2 -3.625,2 -1.14063,0 -1.84375,-0.64063 -0.70313,-0.65625 -0.70313,-1.60937 0,-0.625 0.3125,-2.14063 l 1.1875,-5.6875 1.6875,0 -1.32812,6.3125 q -0.15625,0.78125 -0.15625,1.21875 0,0.5625 0.32812,0.875 0.34375,0.29688 1,0.29688 0.70313,0 1.375,-0.34375 0.67188,-0.34375 1.15625,-0.92188 0.5,-0.57812 0.79688,-1.375 0.20312,-0.51562 0.48437,-1.79687 l 0.89063,-4.26563 1.67187,0 -2.0625,9.85938 -1.54687,0 0.375,-1.78125 z m 3.79761,-1.59375 1.6875,-0.0937 q 0,0.71875 0.21875,1.23437 0.21875,0.51563 0.8125,0.84375 0.60937,0.3125 1.40625,0.3125 1.10937,0 1.67187,-0.4375 0.5625,-0.45312 0.5625,-1.04687 0,-0.4375 -0.34375,-0.82813 -0.34375,-0.39062 -1.67187,-0.95312 -1.32813,-0.57813 -1.70313,-0.8125 -0.625,-0.375 -0.9375,-0.89063 -0.3125,-0.51562 -0.3125,-1.1875 0,-1.17187 0.92188,-2 0.9375,-0.84375 2.60937,-0.84375 1.84375,0 2.8125,0.85938 0.96875,0.85937 1.01563,2.26562 l -1.64063,0.10938 q -0.0469,-0.89063 -0.64062,-1.40625 -0.59375,-0.53125 -1.67188,-0.53125 -0.875,0 -1.35937,0.40625 -0.48438,0.39062 -0.48438,0.85937 0,0.46875 0.42188,0.8125 0.28125,0.25 1.4375,0.75 1.9375,0.82813 2.4375,1.3125 0.79687,0.76563 0.79687,1.875 0,0.73438 -0.45312,1.4375 -0.45313,0.70313 -1.375,1.125 -0.92188,0.42188 -2.17188,0.42188 -1.70312,0 -2.90625,-0.84375 -1.20312,-0.84375 -1.14062,-2.75 z"
       id="path4383"
       inkscape:connector-curvature="0"
       style="fill:#000000;fill-rule:nonzero" />
  </g>
  <path
     style="fill:#000000;fill-opacity:0;fill-rule:nonzero"
     inkscape:connector-curvature="0"
     id="path4385"
     d="m 213.06561,148.05249 144,0 0,48 -144,0 z" />
  <g
     id="phase4"
     inkscape:label="#g4486">
    <path
       d="m 311.979,150.99475 -53.82678,0"
       id="path4367"
       inkscape:connector-curvature="0"
       style="fill:#000000;fill-opacity:0;fill-rule:nonzero" />
    <path
       d="m 311.979,150.99475 -41.82678,0"
       id="path4369"
       inkscape:connector-curvature="0"
       style="stroke:#000000;stroke-width:2;stroke-linecap:butt;stroke-linejoin:round" />
    <path
       d="m 270.15222,147.69128 -9.07617,3.30347 9.07617,3.30346 z"
       id="path4371"
       inkscape:connector-curvature="0"
       style="fill:#000000;fill-rule:evenodd;stroke:#000000;stroke-width:2;stroke-linecap:butt" />
    <path
       d="m 260.95972,174.84155 1.6875,-0.0937 q 0,0.71875 0.21875,1.23437 0.21875,0.51563 0.8125,0.84375 0.60937,0.3125 1.40625,0.3125 1.10937,0 1.67187,-0.4375 0.5625,-0.45312 0.5625,-1.04687 0,-0.4375 -0.34375,-0.82813 -0.34375,-0.39062 -1.67187,-0.95312 -1.32813,-0.57813 -1.70313,-0.8125 -0.625,-0.375 -0.9375,-0.89063 -0.3125,-0.51562 -0.3125,-1.1875 0,-1.17187 0.92188,-2 0.9375,-0.84375 2.60937,-0.84375 1.84375,0 2.8125,0.85938 0.96875,0.85937 1.01563,2.26562 l -1.64063,0.10938 q -0.0469,-0.89063 -0.64062,-1.40625 -0.59375,-0.53125 -1.67188,-0.53125 -0.875,0 -1.35937,0.40625 -0.48438,0.39062 -0.48438,0.85937 0,0.46875 0.42188,0.8125 0.28125,0.25 1.4375,0.75 1.9375,0.82813 2.4375,1.3125 0.79687,0.76563 0.79687,1.875 0,0.73438 -0.45312,1.4375 -0.45313,0.70313 -1.375,1.125 -0.92188,0.42188 -2.17188,0.42188 -1.70312,0 -2.90625,-0.84375 -1.20312,-0.84375 -1.14062,-2.75 z m 13.10937,2.01562 -0.28125,1.375 q -0.60937,0.15625 -1.17187,0.15625 -1,0 -1.59375,-0.5 -0.45313,-0.375 -0.45313,-1.01562 0,-0.3125 0.25,-1.48438 l 1.1875,-5.71875 -1.32812,0 0.28125,-1.3125 1.32812,0 0.5,-2.42187 1.92188,-1.15625 -0.75,3.57812 1.65625,0 -0.28125,1.3125 -1.64063,0 -1.14062,5.4375 q -0.21875,1.04688 -0.21875,1.25 0,0.29688 0.17187,0.45313 0.17188,0.15625 0.5625,0.15625 0.5625,0 1,-0.10938 z m 7.90207,0.14063 q -0.875,0.75 -1.6875,1.09375 -0.8125,0.34375 -1.71875,0.34375 -1.375,0 -2.21875,-0.79688 -0.82812,-0.79687 -0.82812,-2.0625 0,-0.8125 0.375,-1.45312 0.39062,-0.64063 1,-1.01563 0.625,-0.39062 1.53125,-0.5625 0.5625,-0.10937 2.14062,-0.17187 1.57813,-0.0625 2.26563,-0.32813 0.20312,-0.6875 0.20312,-1.14062 0,-0.59375 -0.4375,-0.92188 -0.57812,-0.46875 -1.70312,-0.46875 -1.04688,0 -1.73438,0.46875 -0.67187,0.46875 -0.96875,1.32813 l -1.70312,-0.14063 q 0.51562,-1.46875 1.64062,-2.25 1.14063,-0.78125 2.85938,-0.78125 1.82812,0 2.89062,0.875 0.8125,0.65625 0.8125,1.6875 0,0.79688 -0.23437,1.82813 l -0.54688,2.45312 q -0.25,1.17188 -0.25,1.89063 0,0.46875 0.20313,1.34375 l -1.70313,0 q -0.14062,-0.48438 -0.1875,-1.21875 z m 0.60938,-3.76563 q -0.34375,0.125 -0.75,0.20313 -0.40625,0.0781 -1.34375,0.15625 -1.46875,0.14062 -2.07813,0.34375 -0.59375,0.1875 -0.90625,0.625 -0.3125,0.4375 -0.3125,0.96875 0,0.70312 0.48438,1.15625 0.5,0.45312 1.39062,0.45312 0.84375,0 1.60938,-0.4375 0.76562,-0.4375 1.20312,-1.21875 0.45313,-0.79687 0.70313,-2.25 z m 7.04758,3.625 -0.28125,1.375 q -0.60938,0.15625 -1.17188,0.15625 -1,0 -1.59375,-0.5 -0.45312,-0.375 -0.45312,-1.01562 0,-0.3125 0.25,-1.48438 l 1.1875,-5.71875 -1.32813,0 0.28125,-1.3125 1.32813,0 0.5,-2.42187 1.92187,-1.15625 -0.75,3.57812 1.65625,0 -0.28125,1.3125 -1.64062,0 -1.14063,5.4375 q -0.21875,1.04688 -0.21875,1.25 0,0.29688 0.17188,0.45313 0.17187,0.15625 0.5625,0.15625 0.5625,0 1,-0.10938 z m 7.98019,-0.42187 q -1.78125,2 -3.625,2 -1.14063,0 -1.84375,-0.64063 -0.70313,-0.65625 -0.70313,-1.60937 0,-0.625 0.3125,-2.14063 l 1.1875,-5.6875 1.6875,0 -1.32812,6.3125 q -0.15625,0.78125 -0.15625,1.21875 0,0.5625 0.32812,0.875 0.34375,0.29688 1,0.29688 0.70313,0 1.375,-0.34375 0.67188,-0.34375 1.15625,-0.92188 0.5,-0.57812 0.79688,-1.375 0.20312,-0.51562 0.48437,-1.79687 l 0.89063,-4.26563 1.67187,0 -2.0625,9.85938 -1.54687,0 0.375,-1.78125 z m 3.79758,-1.59375 1.6875,-0.0937 q 0,0.71875 0.21875,1.23437 0.21875,0.51563 0.8125,0.84375 0.60937,0.3125 1.40625,0.3125 1.10937,0 1.67187,-0.4375 0.5625,-0.45312 0.5625,-1.04687 0,-0.4375 -0.34375,-0.82813 -0.34375,-0.39062 -1.67187,-0.95312 -1.32813,-0.57813 -1.70313,-0.8125 -0.625,-0.375 -0.9375,-0.89063 -0.3125,-0.51562 -0.3125,-1.1875 0,-1.17187 0.92188,-2 0.9375,-0.84375 2.60937,-0.84375 1.84375,0 2.8125,0.85938 0.96875,0.85937 1.01563,2.26562 l -1.64063,0.10938 q -0.0469,-0.89063 -0.64062,-1.40625 -0.59375,-0.53125 -1.67188,-0.53125 -0.875,0 -1.35937,0.40625 -0.48438,0.39062 -0.48438,0.85937 0,0.46875 0.42188,0.8125 0.28125,0.25 1.4375,0.75 1.9375,0.82813 2.4375,1.3125 0.79687,0.76563 0.79687,1.875 0,0.73438 -0.45312,1.4375 -0.45313,0.70313 -1.375,1.125 -0.92188,0.42188 -2.17188,0.42188 -1.70312,0 -2.90625,-0.84375 -1.20312,-0.84375 -1.14062,-2.75 z"
       id="path4387"
       inkscape:connector-curvature="0"
       style="fill:#000000;fill-rule:nonzero" />
  </g>
  <g
     id="phase2"
     inkscape:label="#g4471">
    <path
       d="m 499.8851,84.24288 1.625,0.15625 q -0.35937,1.21875 -1.625,2.3125 -1.26562,1.09375 -3.01562,1.09375 -1.09375,0 -2.01563,-0.5 -0.90625,-0.5 -1.39062,-1.46875 -0.46875,-0.96875 -0.46875,-2.203125 0,-1.609375 0.75,-3.125 0.75,-1.515625 1.9375,-2.25 1.1875,-0.75 2.5625,-0.75 1.76562,0 2.8125,1.09375 1.0625,1.09375 1.0625,2.984375 0,0.734375 -0.14063,1.484375 l -7.25,0 q -0.0312,0.296875 -0.0312,0.53125 0,1.375 0.625,2.109375 0.64063,0.71875 1.5625,0.71875 0.85938,0 1.6875,-0.5625 0.84375,-0.5625 1.3125,-1.625 z m -4.89062,-2.453125 5.53125,0 q 0.0156,-0.25 0.0156,-0.359375 0,-1.265625 -0.64062,-1.9375 -0.625,-0.671875 -1.625,-0.671875 -1.0625,0 -1.95313,0.75 -0.89062,0.734375 -1.32812,2.21875 z m 10.51632,5.796875 -1.625,-9.859375 1.64063,0 0.84375,5.4375 q 0.14062,0.890625 0.34375,2.90625 0.48437,-1.046875 1.23437,-2.40625 l 3.28125,-5.9375 1.78125,0 -5.64062,9.859375 -1.85938,0 z m 6.01563,3.78125 2.84375,-13.640625 1.54687,0 -0.28125,1.375 q 0.85938,-0.890625 1.53125,-1.234375 0.6875,-0.359375 1.45313,-0.359375 1.40625,0 2.32812,1.03125 0.9375,1.015625 0.9375,2.9375 0,1.53125 -0.51562,2.796875 -0.51563,1.265625 -1.26563,2.046875 -0.73437,0.765625 -1.5,1.125 -0.75,0.359375 -1.54687,0.359375 -1.76563,0 -2.75,-1.796875 l -1.10938,5.359375 -1.67187,0 z m 3.3125,-7.8125 q 0,1.109375 0.15625,1.53125 0.23437,0.609375 0.76562,0.984375 0.53125,0.359375 1.21875,0.359375 1.45313,0 2.34375,-1.625 0.89063,-1.625 0.89063,-3.328125 0,-1.25 -0.60938,-1.921875 -0.59375,-0.6875 -1.48437,-0.6875 -0.64063,0 -1.1875,0.34375 -0.54688,0.328125 -1.01563,1 -0.46875,0.671875 -0.78125,1.65625 -0.29687,0.96875 -0.29687,1.6875 z"
       id="path4379"
       inkscape:connector-curvature="0"
       style="fill:#000000;fill-rule:nonzero" />
    <path
       d="M 495.07874,112.54068 554.85828,78.05249"
       id="path4389"
       inkscape:connector-curvature="0"
       style="fill:#000000;fill-opacity:0;fill-rule:nonzero" />
    <path
       d="M 495.07874,112.54068 544.46406,84.049164"
       id="path4391"
       inkscape:connector-curvature="0"
       style="stroke:#000000;stroke-width:2;stroke-linecap:butt;stroke-linejoin:round" />
    <path
       d="m 546.11487,86.910576 6.21082,-7.396988 -9.51246,1.674164 z"
       id="path4393"
       inkscape:connector-curvature="0"
       style="fill:#000000;fill-rule:evenodd;stroke:#000000;stroke-width:2;stroke-linecap:butt" />
    <path
       d="m 495.07874,154.8084 59.77954,34.48819"
       id="path4395"
       inkscape:connector-curvature="0"
       style="fill:#000000;fill-opacity:0;fill-rule:nonzero" />
    <path
       d="m 495.07874,154.8084 49.38532,28.49152"
       id="path4397"
       inkscape:connector-curvature="0"
       style="stroke:#b7b7b7;stroke-width:2;stroke-linecap:butt;stroke-linejoin:round" />
    <path
       d="m 542.81323,186.16133 9.51245,1.67416 -6.21081,-7.39698 z"
       id="path4399"
       inkscape:connector-curvature="0"
       style="fill:#b7b7b7;fill-rule:evenodd;stroke:#b7b7b7;stroke-width:2;stroke-linecap:butt" />
  </g>
  <path
     style="fill:#cfe2f3;fill-rule:nonzero"
     inkscape:connector-curvature="0"
     id="path4401"
     d="m 177.79002,75.42257 53.82677,0 0,32.44095 -53.82677,0 z" />
  <path
     style="stroke:#000000;stroke-width:2;stroke-linecap:butt;stroke-linejoin:round"
     inkscape:connector-curvature="0"
     id="path4403"
     d="m 177.79002,75.42257 53.82677,0 0,32.44095 -53.82677,0 z" />
  <path
     style="fill:#000000;fill-opacity:0;fill-rule:nonzero"
     inkscape:connector-curvature="0"
     id="path4405"
     d="m 179.04462,75.961945 27,14.501312 25.50131,-14.501312" />
  <path
     style="stroke:#000000;stroke-width:2;stroke-linecap:butt;stroke-linejoin:round"
     inkscape:connector-curvature="0"
     id="path4407"
     d="m 179.04462,75.961945 27,14.501312 25.50131,-14.501312" />
  <g
     id="phase0"
     inkscape:label="#g4461">
    <path
       d="m 213.06564,71.090256 11.27254,7.6e-5 3.48333,-10.70713 3.48334,10.70713 11.27254,-7.6e-5 -9.11972,6.617294 3.48347,10.707077 -9.11963,-6.617416 -9.11962,6.617416 3.48347,-10.707077 z"
       id="path4409"
       inkscape:connector-curvature="0"
       style="fill:#ffff00;fill-rule:nonzero" />
    <path
       d="m 213.06564,71.090256 11.27254,7.6e-5 3.48333,-10.70713 3.48334,10.70713 11.27254,-7.6e-5 -9.11972,6.617294 3.48347,10.707077 -9.11963,-6.617416 -9.11962,6.617416 3.48347,-10.707077 z"
       id="path4411"
       inkscape:connector-curvature="0"
       style="stroke:#000000;stroke-width:2;stroke-linecap:butt;stroke-linejoin:round" />
  </g>
</svg>
